<?xml version="1.0" encoding="UTF-8"?>
<svg version="1.1" xmlns="http://www.w3.org/2000/svg" width="600" height="600">
<path d="M0 0 C198 0 396 0 600 0 C600 198 600 396 600 600 C402 600 204 600 0 600 C0 402 0 204 0 0 Z " fill="#FCFCFC" transform="translate(0,0)"/>
<path d="M0 0 C2.46096498 -0.01818341 4.92189937 -0.04101514 7.38278198 -0.06814575 C13.36964158 -0.12075416 19.35443814 -0.12165402 25.3413096 -0.09665674 C30.20820238 -0.07726086 35.07467451 -0.07865142 39.941576 -0.09477234 C40.63493346 -0.09703535 41.32829092 -0.09929836 42.04265921 -0.10162994 C43.45132974 -0.10629165 44.86000016 -0.11098941 46.26867045 -0.11572284 C59.47106984 -0.15741229 72.67265143 -0.1301834 85.87497754 -0.08035058 C97.19504914 -0.0393865 108.51357438 -0.06195719 119.83349609 -0.12988281 C132.98789692 -0.20880995 146.141336 -0.24489237 159.29597241 -0.215446 C160.69969071 -0.21244534 162.10340917 -0.20951301 163.50712776 -0.20664978 C164.54302936 -0.20452637 164.54302936 -0.20452637 165.59985827 -0.20236006 C170.45859411 -0.19545002 175.31661236 -0.21938574 180.17519951 -0.25563049 C186.72024641 -0.3036998 193.2626398 -0.28310581 199.80768967 -0.21654892 C202.20863322 -0.20256227 204.60982342 -0.21069885 207.01059532 -0.24263382 C224.67478323 -0.45836552 224.67478323 -0.45836552 229.00962377 2.71172714 C232.15879688 6.16914615 233.66717667 10.09395143 235.29125977 14.45507812 C236.43447382 16.48956839 237.60826315 18.50752117 238.82641602 20.49804688 C240.00409454 22.54513363 241.17981756 24.59334641 242.35375977 26.64257812 C243.33172426 28.34339666 244.30969168 30.04421352 245.28782654 31.74493408 C246.29220011 33.49186995 247.29573756 35.2392837 248.29907227 36.98681641 C251.47810094 42.52128716 254.66517103 48.05111102 257.85375977 53.58007812 C258.47452393 54.65668701 259.09528809 55.7332959 259.73486328 56.8425293 C264.4707949 65.04937834 269.24102656 73.23581888 274.02197266 81.41650391 C278.94177258 89.84077151 283.81648114 98.29061709 288.68579102 106.74414062 C292.86475105 113.99459302 297.06866482 121.22996082 301.29125977 128.45507812 C306.79071513 137.86498143 312.24575173 147.29978375 317.68579102 156.74414062 C321.29486263 163.00584252 324.91812883 169.25883435 328.56469727 175.4987793 C329.70770353 177.4558866 330.84836397 179.414366 331.98657227 181.37426758 C334.78361879 186.187279 337.6019371 190.98473716 340.48071289 195.74923706 C341.91503921 198.12880912 343.3350265 200.51676464 344.75317383 202.90600586 C345.77126827 204.60913516 346.80844001 206.30081398 347.84594727 207.9921875 C348.45696289 209.02537109 349.06797852 210.05855469 349.69750977 211.12304688 C350.24729492 212.0333667 350.79708008 212.94368652 351.36352539 213.8815918 C352.29125977 216.45507812 352.29125977 216.45507812 351.62841797 218.96435547 C351.18715576 219.78629395 350.74589355 220.60823242 350.29125977 221.45507812 C349.86031006 222.28450928 349.42936035 223.11394043 348.98535156 223.96850586 C348.49204346 224.84966064 347.99873535 225.73081543 347.49047852 226.63867188 C346.93239502 227.63697021 346.37431152 228.63526855 345.79931641 229.66381836 C344.89814087 231.26205444 344.89814087 231.26205444 343.97875977 232.89257812 C343.03987915 234.56332397 343.03987915 234.56332397 342.08203125 236.26782227 C337.57124026 244.26321775 332.9511305 252.18784005 328.2565918 260.07641602 C324.06284854 267.12723369 319.94503929 274.21935756 315.85375977 281.33007812 C311.02558686 289.72047415 306.17648074 298.09776224 301.29125977 306.45507812 C293.90698038 319.09243563 286.5963578 331.77183218 279.29125977 344.45507812 C271.42003951 358.12123591 263.53450705 371.7781047 255.57373047 385.39233398 C252.48554925 390.67806793 249.41316476 395.97234233 246.36157227 401.27929688 C246.03139099 401.85334259 245.70120972 402.42738831 245.36102295 403.01882935 C243.77655784 405.77408507 242.19423003 408.53052814 240.61547852 411.2890625 C239.48154885 413.26270622 238.32369894 415.22288155 237.13768768 417.16567421 C235.21651522 420.39054648 235.21651522 420.39054648 234.03009796 423.8366909 C232.32048527 427.77718475 230.80423659 430.88376297 227.29125977 433.45507812 C219.79078224 436.0320791 211.28134513 435.23060107 203.46899414 435.13720703 C201.00787483 435.15482928 198.54678982 435.17797988 196.08576965 435.20623779 C190.10205493 435.25933058 184.12127889 435.25161316 178.1376797 435.21387346 C173.27363178 435.18446952 168.41017765 435.18055112 163.54606628 435.19468307 C162.85284432 435.1966751 162.15962235 435.19866713 161.44539365 435.20071953 C160.0369646 435.20487611 158.62853572 435.20909089 157.22010702 435.21336322 C144.02422064 435.25040188 130.82950973 435.20786315 117.63381618 435.13795845 C106.3199863 435.07987776 95.0078904 435.08996706 83.6940918 435.14990234 C70.54439658 435.21953111 57.39573062 435.24683168 44.24587679 435.20694292 C42.84273577 435.20280194 41.43959459 435.19871512 40.03645325 435.19468307 C39.34614717 435.19267749 38.65584109 435.19067191 37.94461665 435.18860555 C33.08841058 435.17739779 28.23285938 435.19628889 23.37675476 435.22691727 C16.83571426 435.26726743 10.29743594 435.23839582 3.75653648 435.16329193 C1.35723491 435.14611231 -1.04234239 435.15102504 -3.44153404 435.17970657 C-21.09232525 435.37125111 -21.09232525 435.37125111 -25.42643738 432.19709539 C-28.57398096 428.73929176 -30.08379 424.81515622 -31.70874023 420.45507812 C-32.85201681 418.42062299 -34.02581525 416.40267892 -35.24389648 414.41210938 C-36.42157501 412.36502262 -37.59729803 410.31680984 -38.77124023 408.26757812 C-39.74920473 406.56675959 -40.72717215 404.86594273 -41.70530701 403.16522217 C-42.70968058 401.4182863 -43.71321803 399.67087255 -44.71655273 397.92333984 C-47.89558141 392.38886909 -51.0826515 386.85904523 -54.27124023 381.33007812 C-54.89200439 380.25346924 -55.51276855 379.17686035 -56.15234375 378.06762695 C-60.88827537 369.86077791 -65.65850703 361.67433737 -70.43945312 353.49365234 C-75.35925305 345.06938474 -80.23396161 336.61953916 -85.10327148 328.16601562 C-89.28223152 320.91556323 -93.48614529 313.68019543 -97.70874023 306.45507812 C-103.2081956 297.04517482 -108.66323219 287.6103725 -114.10327148 278.16601562 C-117.71230802 271.90437459 -121.33542189 265.6513757 -124.98217773 259.41162109 C-126.12546827 257.45386539 -127.26613181 255.494573 -128.40405273 253.53369141 C-131.19602458 248.72662345 -134.01205208 243.93773164 -136.89819336 239.18670654 C-138.33366706 236.81754901 -139.75313203 234.43901341 -141.1706543 232.05908203 C-142.18719861 230.36595719 -143.22511163 228.6857206 -144.26342773 227.00585938 C-144.87444336 225.97589844 -145.48545898 224.9459375 -146.11499023 223.88476562 C-146.66477539 222.97968262 -147.21456055 222.07459961 -147.78100586 221.14208984 C-149.03111471 217.52137984 -148.25618667 215.90147009 -146.70874023 212.45507812 C-145.84906388 210.78744766 -144.93685947 209.14600933 -143.97827148 207.53320312 C-143.43041992 206.60378906 -142.88256836 205.674375 -142.31811523 204.71679688 C-141.72514648 203.72292969 -141.13217773 202.7290625 -140.52124023 201.70507812 C-139.24581926 199.54402179 -137.97110351 197.38254913 -136.69702148 195.22070312 C-136.03782715 194.10501953 -135.37863281 192.98933594 -134.69946289 191.83984375 C-131.49956729 186.39915788 -128.35505792 180.92686338 -125.20874023 175.45507812 C-119.83037212 166.11600392 -114.41614285 156.79866995 -108.97827148 147.49414062 C-104.69651902 140.16224089 -100.44663085 132.81240575 -96.20874023 125.45507812 C-90.82959944 116.11644606 -85.41614577 106.79867495 -79.97827148 97.49414062 C-75.69651902 90.16224089 -71.44663085 82.81240575 -67.20874023 75.45507812 C-61.83499824 66.12581883 -56.42917569 56.81609595 -50.99365234 47.52270508 C-47.89102749 42.21300866 -44.80546643 36.89402002 -41.74389648 31.56054688 C-41.41134857 30.98176788 -41.07880066 30.40298889 -40.73617554 29.80667114 C-39.1359759 27.0213442 -37.53825117 24.23466038 -35.94506836 21.4453125 C-35.36305664 20.43146484 -34.78104492 19.41761719 -34.18139648 18.37304688 C-33.67874268 17.49414795 -33.17608887 16.61524902 -32.65820312 15.7097168 C-32.01488037 14.63568604 -31.37155762 13.56165527 -30.70874023 12.45507812 C-30.2691224 11.13197742 -30.2691224 11.13197742 -29.8206234 9.78214741 C-24.48868741 -2.73729835 -11.59318762 -0.10138473 0 0 Z " fill="#233C98" transform="translate(198.708740234375,82.544921875)"/>
<path d="M0 0 C1.02735155 0.971879 2.0401137 1.9614345 3 3 C1.53416665 7.54071365 -1.04531733 10.76266969 -4.125 14.3125 C-4.82689453 15.13717773 -4.82689453 15.13717773 -5.54296875 15.97851562 C-6.68952483 17.32396409 -7.84397451 18.662679 -9 20 C-11.3987917 18.81541151 -13.7705962 17.59310985 -16.13671875 16.34375 C-28.56221135 9.83615854 -42.21740998 5.82942067 -56.21484375 9.9453125 C-59.77539221 11.60794747 -62.38880476 13.37082843 -65.125 16.1875 C-66.7631185 21.45288091 -66.93023944 26.74784136 -64.8125 31.875 C-58.23144439 39.59072037 -48.12838331 42.5532362 -38.98828125 46.375 C-38.28436249 46.66963135 -37.58044373 46.9642627 -36.85519409 47.26782227 C-33.93787001 48.48781138 -31.02034417 49.70715279 -28.09838867 50.91601562 C-25.93395176 51.81260464 -23.77341429 52.71809936 -21.61328125 53.625 C-20.644226 54.02211182 -20.644226 54.02211182 -19.65559387 54.42724609 C-14.63441276 56.5478194 -10.76852739 59.01967038 -6 62 C4.23 62.33 14.46 62.66 25 63 C25 38.25 25 13.5 25 -12 C34.57 -12 44.14 -12 54 -12 C57.36845052 -4.14028213 57.36845052 -4.14028213 58.17578125 -1.01171875 C58.36076172 -0.3148999 58.54574219 0.38191895 58.73632812 1.09985352 C58.92646484 1.83002686 59.11660156 2.5602002 59.3125 3.3125 C61.01161983 9.63780034 62.88671946 15.86336334 65 22.0625 C67.6746433 29.92288483 70.07367347 37.83798645 72.36914062 45.81640625 C73.50162012 49.73625788 74.65881663 53.64884787 75.8125 57.5625 C76.23577815 59.00127235 76.65896504 60.44007156 77.08203125 61.87890625 C77.38496094 62.90886719 77.68789063 63.93882812 78 65 C78.19932129 64.26628174 78.39864258 63.53256348 78.60400391 62.77661133 C85.4641637 37.66044154 93.17898743 12.83143678 101 -12 C110.9 -12 120.8 -12 131 -12 C131 13.41 131 38.82 131 65 C157.73 65 184.46 65 212 65 C208.04214701 72.25606381 204.0674562 79.49352834 200 86.6875 C199.4416748 87.67516357 198.88334961 88.66282715 198.30810547 89.68041992 C193.72771395 97.76019995 189.06498549 105.79002478 184.37304688 113.80541992 C180.0526666 121.18686345 175.76795674 128.58813248 171.5 136 C166.12100102 145.33871324 160.707405 154.65640408 155.26953125 163.9609375 C150.98777878 171.29283723 146.73789061 178.64267238 142.5 186 C137.1208592 195.33863207 131.70740553 204.65640317 126.26953125 213.9609375 C121.98777819 221.29283824 117.73804211 228.64275889 113.5 236 C108.47585249 244.71856628 103.43855223 253.42925036 98.375 262.125 C97.80716797 263.10210937 97.23933594 264.07921875 96.65429688 265.0859375 C96.11611328 266.00890625 95.57792969 266.931875 95.0234375 267.8828125 C94.55856934 268.68090332 94.09370117 269.47899414 93.61474609 270.30126953 C93.08187988 271.19185059 92.54901367 272.08243164 92 273 C91.70455097 273.65330968 91.40910194 274.30661937 91.10469991 274.97972631 C88.30085591 280.54519108 88.30085591 280.54519108 84.89257467 281.73680401 C82.18965464 282.01244139 79.58626035 282.02783325 76.86979675 281.96203613 C75.84055299 281.96887153 74.81130922 281.97570693 73.75087625 281.98274946 C70.29657537 281.99594398 66.8453725 281.95190568 63.39135742 281.90820312 C60.9177457 281.90594691 58.44412862 281.90721246 55.97052002 281.91174316 C50.64233131 281.91356581 45.31510978 281.8908566 39.98717308 281.84584045 C32.28406684 281.78079871 24.58133945 281.7599866 16.87798838 281.74993652 C4.37978838 281.73243119 -8.1179937 281.67920243 -20.6159668 281.60351562 C-32.75591949 281.53007345 -44.89575865 281.47345119 -57.03588867 281.43945312 C-57.78431094 281.43735134 -58.53273322 281.43524955 -59.30383495 281.43308407 C-63.05848295 281.4226437 -66.81313175 281.41253406 -70.56778109 281.40258884 C-101.71215795 281.31966664 -132.85601549 281.17817719 -164 281 C-163.46645905 280.06650726 -162.93291809 279.13301453 -162.38320923 278.17123413 C-161.66774288 276.91933305 -160.95227873 275.66743072 -160.23681641 274.41552734 C-159.88700211 273.8034996 -159.53718781 273.19147186 -159.17677307 272.56089783 C-156.85191535 268.49277448 -154.53036458 264.42278461 -152.2109375 260.3515625 C-145.2721343 248.17976389 -138.29576788 236.03296083 -131.22021484 223.93994141 C-126.95208497 216.64266018 -122.71898407 209.3257942 -118.5 202 C-113.69155226 193.65197464 -108.86090978 185.31758725 -104 177 C-98.95629175 168.36731939 -93.93645927 159.72114879 -88.9375 151.0625 C-88.31810547 149.99064453 -87.69871094 148.91878906 -87.06054688 147.81445312 C-83.65264267 141.90567727 -80.28807627 135.97634546 -77 130 C-77.82242188 129.5875 -78.64484375 129.175 -79.4921875 128.75 C-87.02915824 124.85096664 -93.55917557 120.59755622 -100 115 C-95.48432691 108.87647362 -90.77926562 102.9194965 -86 97 C-81.21218367 99.24829331 -76.84812614 102.2026657 -72.38671875 105.02734375 C-60.14622963 112.15704041 -46.40915846 114.16613534 -32.52734375 111.27734375 C-27.37709368 109.56521486 -23.81707954 107.86586466 -21 103 C-19.67184704 100.34369407 -19.75760875 98.21670703 -19.6875 95.25 C-19.65011719 94.22390625 -19.61273438 93.1978125 -19.57421875 92.140625 C-20.12232962 88.09767873 -21.38226809 86.11634751 -24 83 C-26.86845826 81.00389755 -26.86845826 81.00389755 -30.375 79.4375 C-31.04055908 79.11579834 -31.70611816 78.79409668 -32.3918457 78.46264648 C-37.29110362 76.14009453 -42.2752656 74.02221004 -47.26953125 71.9140625 C-47.91619751 71.63947708 -48.56286377 71.36489166 -49.22912598 71.08198547 C-52.47782919 69.70287705 -55.7311562 68.33946253 -58.99951172 67.00756836 C-72.82906168 61.26441435 -85.33648374 54.12189826 -91.3125 39.75 C-94.96407744 30.07409016 -95.20209839 21.26162645 -91.2578125 11.56640625 C-85.08012842 -1.03837152 -74.05050206 -8.36761746 -61.125 -13.0390625 C-39.79005394 -19.24242997 -17.58917712 -12.73178858 0 0 Z " fill="#3A56A6" transform="translate(339,235)"/>
<path d="M0 0 C0.66 0 1.32 0 2 0 C2.3810791 0.66193359 2.7621582 1.32386719 3.15478516 2.00585938 C10.07404382 14.02101663 17.00377176 26.0294354 24 38 C29.49947067 47.4098944 34.954492 56.84470569 40.39453125 66.2890625 C44.57349128 73.5395149 48.77740506 80.77488269 53 88 C58.49945536 97.4099033 63.95449196 106.84470563 69.39453125 116.2890625 C73.57349128 123.5395149 77.77740506 130.77488269 82 138 C87.49432064 147.40111749 92.94460907 156.82691381 98.37915039 166.26269531 C102.70747273 173.7728616 107.0642577 181.26591288 111.4375 188.75 C119.20852983 202.05678013 119.20852983 202.05678013 122.875 208.4375 C123.49117187 209.50871094 124.10734375 210.57992187 124.7421875 211.68359375 C126 214 126 214 126 215 C99.27 215 72.54 215 45 215 C45 189.59 45 164.18 45 138 C35.1 138 25.2 138 15 138 C14.34 140.97 13.68 143.94 13 147 C12.51817781 148.74691679 12.01403165 150.48803511 11.4753418 152.21826172 C11.04930916 153.59677811 11.04930916 153.59677811 10.6146698 155.00314331 C10.31257095 155.96890289 10.01047211 156.93466248 9.69921875 157.9296875 C9.38096634 158.95949738 9.06271393 159.98930725 8.7348175 161.05032349 C7.38732244 165.41056769 6.03182437 169.7683084 4.67602539 174.12597656 C3.68041618 177.33035875 2.68855568 180.53586344 1.69921875 183.7421875 C1.37831268 184.78042664 1.05740662 185.81866577 0.72677612 186.8883667 C-1.55545157 194.34904639 -3.617662 201.84817082 -5.43782043 209.43527222 C-5.90096084 211.30539132 -6.44256892 213.15578877 -7 215 C-7.66 215.33 -8.32 215.66 -9 216 C-9.27972656 214.96746094 -9.55945313 213.93492187 -9.84765625 212.87109375 C-13.04153993 201.17876127 -16.5180596 189.58450002 -20.07958984 177.99951172 C-21.62564978 172.96107872 -23.15555991 167.91774027 -24.6875 162.875 C-27.10768091 154.91124837 -29.55218866 146.95538685 -32 139 C-41.57 138.67 -51.14 138.34 -61 138 C-61 162.75 -61 187.5 -61 213 C-92 213 -92 213 -102 207 C-104.39381859 205.8769452 -106.81480081 204.80891838 -109.265625 203.81640625 C-109.90634949 203.55294907 -110.54707397 203.28949188 -111.20721436 203.01805115 C-113.21845224 202.19187708 -115.23368337 201.37619123 -117.25 200.5625 C-125.14572069 197.36312234 -133.00530597 194.12475235 -140.671875 190.40234375 C-141.77112305 189.86988037 -142.87037109 189.33741699 -144.00292969 188.78881836 C-148.25435158 186.25133317 -151.41128432 183.76614704 -153 179 C-153.50416259 174.19805797 -153.48952389 170.17930756 -151.625 165.6875 C-146.1604899 160.09288251 -140.60103406 157.7894133 -132.83325195 157.5078125 C-120.00594031 157.46243119 -110.04802741 160.47657592 -99 167 C-97.68 167.66 -96.36 168.32 -95 169 C-91.37 164.38 -87.74 159.76 -84 155 C-84.66 153.68 -85.32 152.36 -86 151 C-85.43737423 146.65153488 -82.94057333 143.00936202 -80.8125 139.25 C-80.15254028 138.0734082 -80.15254028 138.0734082 -79.47924805 136.87304688 C-74.65158516 128.30754333 -69.67634898 119.82752818 -64.70703125 111.34375 C-60.94246163 104.91240269 -57.21827906 98.45819045 -53.5 92 C-48.12106363 82.6612509 -42.70740477 73.34359553 -37.26953125 64.0390625 C-32.98777862 56.70716249 -28.73793023 49.35730505 -24.5 42 C-19.43959527 33.21571405 -14.3583902 24.44397619 -9.25 15.6875 C-8.37311523 14.18413086 -8.37311523 14.18413086 -7.47851562 12.65039062 C-4.43083118 7.43145644 -4.43083118 7.43145644 -3 5 C-2.48791992 4.07550049 -1.97583984 3.15100098 -1.44824219 2.19848633 C-0.97032227 1.47298584 -0.49240234 0.74748535 0 0 Z " fill="#283180" transform="translate(425,85)"/>
<path d="M0 0 C2.65565787 2.39969682 4.27998553 4.96444189 6.046875 8.06640625 C6.63742676 9.09733398 7.22797852 10.12826172 7.83642578 11.19042969 C8.46790527 12.30321289 9.09938477 13.41599609 9.75 14.5625 C10.75206976 16.31162987 11.75414419 18.06075708 12.75650024 19.8097229 C15.2087226 24.0929766 17.64936576 28.38283202 20.08886719 32.67333984 C21.44595431 35.05987712 22.80595981 37.44470742 24.16894531 39.82788086 C25.44705797 42.06393991 26.72007259 44.30292276 27.98730469 46.54516602 C28.57157227 47.56666748 29.15583984 48.58816895 29.7578125 49.640625 C30.2645752 50.53297852 30.77133789 51.42533203 31.29345703 52.34472656 C31.85661621 53.2209668 32.41977539 54.09720703 33 55 C33.64343196 56.02910051 34.28686392 57.05820103 34.94979382 58.1184864 C36.6467274 60.10972814 37.61812648 60.90215354 40.17267001 61.55669761 C42.96714844 61.77549673 45.70687597 61.79753531 48.50984192 61.75949097 C49.57992121 61.76870107 50.6500005 61.77791117 51.75250643 61.78740036 C55.34437171 61.81102734 58.93473661 61.79185188 62.52661133 61.77294922 C65.09875415 61.78111746 67.67088977 61.79191837 70.24301147 61.80516052 C75.78370391 61.82952431 81.32405878 61.8319981 86.86478615 61.81957626 C94.87565736 61.80164826 102.88619828 61.8167765 110.89704355 61.83995558 C123.89419746 61.87666544 136.89122912 61.88666643 149.88842773 61.87988281 C162.51347002 61.87335061 175.13840313 61.8793899 187.76342773 61.90234375 C188.54171996 61.9037544 189.32001219 61.90516506 190.12188903 61.90661846 C194.02637886 61.91377293 197.93086818 61.92117463 201.83535731 61.92869925 C234.2235879 61.99079714 266.61170853 62.00955415 299 62 C299 62.33 299 62.66 299 63 C295.37 63 291.74 63 288 63 C288 67.62 288 72.24 288 77 C297.9 77 307.8 77 318 77 C318 86.9 318 96.8 318 107 C327.9 107 337.8 107 348 107 C348 116.9 348 126.8 348 137 C258.9 137 169.8 137 78 137 C78 127.1 78 117.2 78 107 C68.1 107 58.2 107 48 107 C48 97.1 48 87.2 48 77 C38.1 77 28.2 77 18 77 C18 67.1 18 57.2 18 47 C8.1 47 -1.8 47 -12 47 C-12 37.1 -12 27.2 -12 17 C-2.1 16.505 -2.1 16.505 8 16 C5.371912 11.47990728 5.371912 11.47990728 2.734375 6.96533203 C0 2.22222222 0 2.22222222 0 0 Z " fill="#E5E5E5" transform="translate(132,463)"/>
<path d="M0 0 C0.495 0.99 0.495 0.99 1 2 C-0.32 4.31 -1.64 6.62 -3 9 C10.365 9.495 10.365 9.495 24 10 C24 19.9 24 29.8 24 40 C33.9 40 43.8 40 54 40 C54 49.9 54 59.8 54 70 C63.9 70 73.8 70 84 70 C84 119.5 84 169 84 220 C74.1 220 64.2 220 54 220 C54 210.1 54 200.2 54 190 C44.1 190 34.2 190 24 190 C24 180.1 24 170.2 24 160 C14.1 160 4.2 160 -6 160 C-6 150.1 -6 140.2 -6 130 C-15.9 130 -25.8 130 -36 130 C-36 120.1 -36 110.2 -36 100 C-42.93 100 -49.86 100 -57 100 C-55.61089926 95.83269777 -54.6531952 93.09240477 -52.48828125 89.515625 C-51.98490234 88.67531738 -51.48152344 87.83500977 -50.96289062 86.96923828 C-50.41826172 86.07188965 -49.87363281 85.17454102 -49.3125 84.25 C-48.14055543 82.29509247 -46.97004468 80.33932484 -45.80078125 78.3828125 C-44.87579834 76.8364209 -44.87579834 76.8364209 -43.93212891 75.25878906 C-39.92040826 68.4924955 -36.02395349 61.65872897 -32.11450195 54.83300781 C-28.8496535 49.14816397 -25.51883262 43.53149825 -22 38 C-21.67 38.66 -21.34 39.32 -21 40 C-16.05 40 -11.1 40 -6 40 C-6.33 32.08 -6.66 24.16 -7 16 C-7.99 16.99 -8.98 17.98 -10 19 C-8.62394084 14.23448987 -6.53221934 10.2751447 -3.875 6.125 C-3.50246094 5.53203125 -3.12992188 4.9390625 -2.74609375 4.328125 C-1.83635 2.8818657 -0.91896202 1.44041954 0 0 Z " fill="#E5E5E5" transform="translate(516,380)"/>
<path d="M0 0 C9.57 0 19.14 0 29 0 C32.36845052 7.85971787 32.36845052 7.85971787 33.17578125 10.98828125 C33.45325195 12.03350952 33.45325195 12.03350952 33.73632812 13.09985352 C33.92646484 13.83002686 34.11660156 14.5602002 34.3125 15.3125 C36.01161983 21.63780034 37.88671946 27.86336334 40 34.0625 C42.6746433 41.92288483 45.07367347 49.83798645 47.36914062 57.81640625 C48.50162012 61.73625788 49.65881663 65.64884787 50.8125 69.5625 C51.23577815 71.00127235 51.65896504 72.44007156 52.08203125 73.87890625 C52.38496094 74.90886719 52.68789063 75.93882812 53 77 C53.19932129 76.26628174 53.39864258 75.53256348 53.60400391 74.77661133 C60.4641637 49.66044154 68.17898743 24.83143678 76 0 C85.57 0 95.14 0 105 0 C105 47.85 105 95.7 105 145 C97.41 145 89.82 145 82 145 C81.95403309 136.53890599 81.91768608 128.07791592 81.89637566 119.61672878 C81.88612587 115.6839716 81.87233214 111.75130725 81.84912109 107.81860352 C81.73523775 87.98077771 82.20673049 68.3408844 83.73199463 48.55691528 C84.19784705 42.37421235 84.59618039 36.18702786 85 30 C84.71074142 31.01180832 84.42148285 32.02361664 84.12345886 33.06608582 C76.96806068 58.04162985 68.799818 82.5582105 60 107 C55.05 107 50.1 107 45 107 C44.5968457 105.84588623 44.19369141 104.69177246 43.77832031 103.50268555 C42.26567412 99.17301357 40.75210841 94.84366349 39.23828125 90.5144043 C38.58634218 88.64958155 37.93464418 86.78467451 37.28320312 84.91967773 C36.34049638 82.22096279 35.39688815 79.52256442 34.453125 76.82421875 C34.14687195 75.94694626 33.8406189 75.06967377 33.52508545 74.16581726 C31.99307331 69.78826375 30.42173182 65.43209904 28.78125 61.09375 C26.47202818 54.79547772 24.88286362 48.31241851 23.25 41.8125 C22.93417969 40.57435547 22.61835938 39.33621094 22.29296875 38.06054688 C21.52365984 35.04159222 20.75944426 32.02144833 20 29 C20.09087891 30.02689941 20.18175781 31.05379883 20.27539062 32.11181641 C22.59459835 59.0554674 23.27512681 85.84943063 23.1875 112.875 C23.18364792 114.07150555 23.18364792 114.07150555 23.17971802 115.29218292 C23.14547416 125.19502374 23.0827689 135.0974441 23 145 C15.41 145 7.82 145 0 145 C0 97.15 0 49.3 0 0 Z " fill="#FBFCFD" transform="translate(364,223)"/>
<path d="M0 0 C10.23 0 20.46 0 31 0 C35.50347442 11.25868604 35.50347442 11.25868604 36.78125 15.11328125 C37.06613281 15.96986328 37.35101563 16.82644531 37.64453125 17.70898438 C37.92683594 18.56814453 38.20914063 19.42730469 38.5 20.3125 C38.92345703 21.58383789 38.92345703 21.58383789 39.35546875 22.88085938 C40.88548226 27.50205403 42.35329976 32.13774998 43.76757812 36.7956543 C45.99900509 44.06112906 48.36171081 51.27987947 50.74536133 58.4964447 C51.52092289 60.84459783 52.29482924 63.19329121 53.06835938 65.54211426 C54.71083054 70.5285412 56.35525982 75.51432109 58 80.5 C59.90922859 86.2874191 61.81760445 92.07511661 63.72387695 97.86351013 C64.47829389 100.15288016 65.23422318 102.44174687 65.99023438 104.73059082 C68.47145976 112.25602655 70.8930179 119.79329961 73.19476318 127.37619019 C74.44994178 131.46610491 75.85785696 135.49985113 77.265625 139.5390625 C78 142 78 142 78 145 C69.09 145 60.18 145 51 145 C48.22761601 137.60697604 45.96599362 130.269511 43.8125 122.6875 C43.44096116 121.40033116 43.06921785 120.11322132 42.69726562 118.82617188 C42.34986328 117.60865234 42.00246094 116.39113281 41.64453125 115.13671875 C41.32846924 114.03030029 41.01240723 112.92388184 40.68676758 111.78393555 C40 109 40 109 40 106 C23.83 106 7.66 106 -9 106 C-9.66 109.3 -10.32 112.6 -11 116 C-11.51637881 117.942138 -12.06236331 119.87701936 -12.65625 121.796875 C-12.95660156 122.77527344 -13.25695312 123.75367188 -13.56640625 124.76171875 C-13.87449219 125.74785156 -14.18257812 126.73398437 -14.5 127.75 C-14.80808594 128.75160156 -15.11617187 129.75320313 -15.43359375 130.78515625 C-16.90235223 135.54443801 -18.42461732 140.27385196 -20 145 C-28.58 145 -37.16 145 -46 145 C-44.87505041 137.12535284 -44.87505041 137.12535284 -43.53222656 133.06665039 C-43.23342087 132.15370209 -42.93461517 131.24075378 -42.62675476 130.30014038 C-42.13862053 128.83866074 -42.13862053 128.83866074 -41.640625 127.34765625 C-41.29993484 126.31178375 -40.95924469 125.27591125 -40.60823059 124.20864868 C-39.49410836 120.82482942 -38.37199941 117.44371459 -37.25 114.0625 C-36.47387911 111.70895412 -35.6984131 109.35519218 -34.92358398 107.0012207 C-33.35925887 102.24977161 -31.79254648 97.49912053 -30.22412109 92.74902344 C-27.14139186 83.4045469 -24.09923685 74.04700188 -21.0625 64.6875 C-20.53553122 63.06525086 -20.00851347 61.44301763 -19.48144531 59.82080078 C-17.03024467 52.27378703 -14.58619455 44.72450225 -12.15234375 37.171875 C-11.92531265 36.46742752 -11.69828156 35.76298004 -11.46437073 35.03718567 C-10.41891946 31.7924147 -9.3746738 28.54726729 -8.33227539 25.30151367 C-5.61287409 16.84758009 -2.81866891 8.42126961 0 0 Z " fill="#FBFCFD" transform="translate(153,223)"/>
<path d="M0 0 C1.02735155 0.971879 2.0401137 1.9614345 3 3 C1.53416665 7.54071365 -1.04531733 10.76266969 -4.125 14.3125 C-4.82689453 15.13717773 -4.82689453 15.13717773 -5.54296875 15.97851562 C-6.68952483 17.32396409 -7.84397451 18.662679 -9 20 C-11.3987917 18.81541151 -13.7705962 17.59310985 -16.13671875 16.34375 C-28.56221135 9.83615854 -42.21740998 5.82942067 -56.21484375 9.9453125 C-59.77539221 11.60794747 -62.38880476 13.37082843 -65.125 16.1875 C-66.7631185 21.45288091 -66.93023944 26.74784136 -64.8125 31.875 C-58.24410294 39.57587932 -48.19538785 42.532112 -39.05859375 46.3046875 C-37.63605626 46.89450363 -36.21353037 47.48434777 -34.79101562 48.07421875 C-32.61281164 48.97725102 -30.43344826 49.87664818 -28.24926758 50.76513672 C-13.75768108 56.67098233 -0.84874008 63.33412376 6.2734375 78.04296875 C9.84827454 87.67196528 9.06541371 99.37093573 5.140625 108.69921875 C3.66158731 111.68262011 2.01840794 114.35083958 0 117 C-0.804375 118.2065625 -0.804375 118.2065625 -1.625 119.4375 C-8.94373125 127.33402582 -17.86450489 130.92207978 -28 134 C-28.74636719 134.2475 -29.49273437 134.495 -30.26171875 134.75 C-48.27813654 139.84698264 -68.33799558 134.86395541 -84.3046875 126.16015625 C-89.45246655 123.21684733 -94.70089459 120.10783165 -99 116 C-99 111.66635072 -96.3650131 109.58936477 -93.625 106.5 C-89.60376489 101.91576472 -89.60376489 101.91576472 -86 97 C-81.21218367 99.24829331 -76.84812614 102.2026657 -72.38671875 105.02734375 C-60.14622963 112.15704041 -46.40915846 114.16613534 -32.52734375 111.27734375 C-27.37709368 109.56521486 -23.81707954 107.86586466 -21 103 C-19.67184704 100.34369407 -19.75760875 98.21670703 -19.6875 95.25 C-19.65011719 94.22390625 -19.61273438 93.1978125 -19.57421875 92.140625 C-20.12232962 88.09767873 -21.38226809 86.11634751 -24 83 C-26.86845826 81.00389755 -26.86845826 81.00389755 -30.375 79.4375 C-31.04055908 79.11579834 -31.70611816 78.79409668 -32.3918457 78.46264648 C-37.29110362 76.14009453 -42.2752656 74.02221004 -47.26953125 71.9140625 C-47.91619751 71.63947708 -48.56286377 71.36489166 -49.22912598 71.08198547 C-52.47782919 69.70287705 -55.7311562 68.33946253 -58.99951172 67.00756836 C-72.82906168 61.26441435 -85.33648374 54.12189826 -91.3125 39.75 C-94.96407744 30.07409016 -95.20209839 21.26162645 -91.2578125 11.56640625 C-85.08012842 -1.03837152 -74.05050206 -8.36761746 -61.125 -13.0390625 C-39.79005394 -19.24242997 -17.58917712 -12.73178858 0 0 Z " fill="#FCFCFD" transform="translate(339,235)"/>
<path d="M0 0 C2.65565787 2.39969682 4.27998553 4.96444189 6.046875 8.06640625 C6.63662109 9.09572266 7.22636719 10.12503906 7.83398438 11.18554688 C8.78241211 12.85713867 8.78241211 12.85713867 9.75 14.5625 C10.41941347 15.73401461 11.08934426 16.90523376 11.75976562 18.07617188 C13.15239997 20.50943834 14.54279747 22.94396232 15.93164062 25.37939453 C19.10029745 30.93157556 22.30173114 36.46484354 25.5 42 C26.74366892 44.15484442 27.98715766 46.30979285 29.23046875 48.46484375 C29.84841309 49.53589355 30.46635742 50.60694336 31.10302734 51.71044922 C33.04519939 55.07838052 34.98566627 58.4472896 36.92578125 61.81640625 C37.57160156 62.93724609 38.21742187 64.05808594 38.8828125 65.21289062 C40.15322571 67.41811194 41.42277973 69.62382848 42.69140625 71.83007812 C45.49049052 76.68959942 48.30667442 81.53526322 51.19921875 86.33984375 C51.67705811 87.13640381 52.15489746 87.93296387 52.6472168 88.75366211 C53.5230543 90.20801708 54.40561604 91.65835249 55.29614258 93.10375977 C56.25760755 94.70112841 57.13876772 96.34643402 58 98 C57.67 98.66 57.34 99.32 57 100 C56.34 98.35 55.68 96.7 55 95 C49.39 95 43.78 95 38 95 C38 104.9 38 114.8 38 125 C28.1 125 18.2 125 8 125 C8 115.1 8 105.2 8 95 C-1.9 95 -11.8 95 -22 95 C-22 85.1 -22 75.2 -22 65 C-12.1 65 -2.2 65 8 65 C8 55.1 8 45.2 8 35 C-1.9 35 -11.8 35 -22 35 C-22 25.1 -22 15.2 -22 5 C-14.41 4.67 -6.82 4.34 1 4 C0.67 2.68 0.34 1.36 0 0 Z " fill="#E5E5E5" transform="translate(52,325)"/>
<path d="M0 0 C2.65565787 2.39969682 4.27998553 4.96444189 6.046875 8.06640625 C6.63742676 9.09733398 7.22797852 10.12826172 7.83642578 11.19042969 C8.46790527 12.30321289 9.09938477 13.41599609 9.75 14.5625 C10.75206976 16.31162987 11.75414419 18.06075708 12.75650024 19.8097229 C15.2087226 24.0929766 17.64936576 28.38283202 20.08886719 32.67333984 C21.44595431 35.05987712 22.80595981 37.44470742 24.16894531 39.82788086 C25.44705797 42.06393991 26.72007259 44.30292276 27.98730469 46.54516602 C28.57157227 47.56666748 29.15583984 48.58816895 29.7578125 49.640625 C30.2645752 50.53297852 30.77133789 51.42533203 31.29345703 52.34472656 C31.85661621 53.2209668 32.41977539 54.09720703 33 55 C33.64343196 56.02910051 34.28686392 57.05820103 34.94979382 58.1184864 C36.6467274 60.10972814 37.61812648 60.90215354 40.17267001 61.55669761 C42.96714844 61.77549673 45.70687597 61.79753531 48.50984192 61.75949097 C49.57992121 61.76870107 50.6500005 61.77791117 51.75250643 61.78740036 C55.34437171 61.81102734 58.93473661 61.79185188 62.52661133 61.77294922 C65.09875415 61.78111746 67.67088977 61.79191837 70.24301147 61.80516052 C75.78370391 61.82952431 81.32405878 61.8319981 86.86478615 61.81957626 C94.87565736 61.80164826 102.88619828 61.8167765 110.89704355 61.83995558 C123.89419746 61.87666544 136.89122912 61.88666643 149.88842773 61.87988281 C162.51347002 61.87335061 175.13840313 61.8793899 187.76342773 61.90234375 C188.54171996 61.9037544 189.32001219 61.90516506 190.12188903 61.90661846 C194.02637886 61.91377293 197.93086818 61.92117463 201.83535731 61.92869925 C234.2235879 61.99079714 266.61170853 62.00955415 299 62 C299 62.33 299 62.66 299 63 C235.97 63 172.94 63 108 63 C108 67.62 108 72.24 108 77 C98.1 77 88.2 77 78 77 C78 86.9 78 96.8 78 107 C68.1 107 58.2 107 48 107 C48 97.1 48 87.2 48 77 C38.1 77 28.2 77 18 77 C18 67.1 18 57.2 18 47 C8.1 47 -1.8 47 -12 47 C-12 37.1 -12 27.2 -12 17 C-2.1 16.505 -2.1 16.505 8 16 C5.371912 11.47990728 5.371912 11.47990728 2.734375 6.96533203 C0 2.22222222 0 2.22222222 0 0 Z " fill="#E1E1E1" transform="translate(132,463)"/>
<path d="M0 0 C2.65565787 2.39969682 4.27998553 4.96444189 6.046875 8.06640625 C6.63662109 9.09572266 7.22636719 10.12503906 7.83398438 11.18554688 C8.78241211 12.85713867 8.78241211 12.85713867 9.75 14.5625 C10.41941347 15.73401461 11.08934426 16.90523376 11.75976562 18.07617188 C13.15239997 20.50943834 14.54279747 22.94396232 15.93164062 25.37939453 C19.10029745 30.93157556 22.30173114 36.46484354 25.5 42 C26.74366892 44.15484442 27.98715766 46.30979285 29.23046875 48.46484375 C29.84841309 49.53589355 30.46635742 50.60694336 31.10302734 51.71044922 C33.04519939 55.07838052 34.98566627 58.4472896 36.92578125 61.81640625 C37.57160156 62.93724609 38.21742187 64.05808594 38.8828125 65.21289062 C40.15322571 67.41811194 41.42277973 69.62382848 42.69140625 71.83007812 C45.49049052 76.68959942 48.30667442 81.53526322 51.19921875 86.33984375 C51.67705811 87.13640381 52.15489746 87.93296387 52.6472168 88.75366211 C53.5230543 90.20801708 54.40561604 91.65835249 55.29614258 93.10375977 C56.25760755 94.70112841 57.13876772 96.34643402 58 98 C57.67 98.66 57.34 99.32 57 100 C56.34 98.35 55.68 96.7 55 95 C49.39 95 43.78 95 38 95 C37.67 85.43 37.34 75.86 37 66 C27.43 65.67 17.86 65.34 8 65 C8 55.1 8 45.2 8 35 C-1.9 35 -11.8 35 -22 35 C-22 25.1 -22 15.2 -22 5 C-14.41 4.67 -6.82 4.34 1 4 C0.67 2.68 0.34 1.36 0 0 Z " fill="#E3E3E3" transform="translate(52,325)"/>
<path d="M0 0 C2.08203125 1.59765625 2.08203125 1.59765625 2.92041016 3.31054688 C3.16932904 6.83301233 1.56268862 8.80507782 -0.25 11.7890625 C-0.60180832 12.3755809 -0.95361664 12.9620993 -1.31608582 13.56639099 C-2.44269615 15.43822959 -3.5862826 17.29902052 -4.73046875 19.16015625 C-5.49005582 20.41663918 -6.24853261 21.67379403 -7.00585938 22.93164062 C-9.58074293 27.19573355 -12.154457 31.45238862 -14.91796875 35.59765625 C-18.75630131 34.04724793 -22.5876129 32.48015676 -26.41796875 30.91015625 C-27.495625 30.47509766 -28.57328125 30.04003906 -29.68359375 29.59179688 C-45.52184539 23.07300428 -45.52184539 23.07300428 -50.91796875 16.59765625 C-52.75133821 11.09754786 -52.76971989 5.64960218 -50.54296875 0.28515625 C-37.08987715 -13.48824705 -15.107169 -8.1047044 0 0 Z " fill="#253D98" transform="translate(323.91796875,250.40234375)"/>
<path d="M0 0 C0.495 0.99 0.495 0.99 1 2 C-0.13305664 4.41650391 -0.13305664 4.41650391 -1.91015625 7.4765625 C-2.89036743 9.17776245 -2.89036743 9.17776245 -3.89038086 10.91333008 C-4.61421332 12.15067465 -5.33825815 13.38789501 -6.0625 14.625 C-6.7969703 15.89243716 -7.53076925 17.16026358 -8.26391602 18.4284668 C-10.13976678 21.66882428 -12.02514983 24.90352376 -13.91320801 28.13677979 C-15.57005242 30.97731048 -17.21823112 33.82285375 -18.8671875 36.66796875 C-25.15475933 47.49962096 -31.51088763 58.2878145 -38 69 C-38.33 68.34 -38.66 67.68 -39 67 C-38.34 65.68 -37.68 64.36 -37 63 C-41.95 62.67 -46.9 62.34 -52 62 C-52 52.1 -52 42.2 -52 32 C-42.1 32 -32.2 32 -22 32 C-22 22.1 -22 12.2 -22 2 C-11.5625 1.5625 -11.5625 1.5625 -8.26782227 1.43188477 C-6.99249634 1.3747229 -6.99249634 1.3747229 -5.69140625 1.31640625 C-4.81685791 1.27974854 -3.94230957 1.24309082 -3.04125977 1.20532227 C-1.0072598 1.21818934 -1.0072598 1.21818934 0 0 Z " fill="#E0E0E0" transform="translate(142,118)"/>
<path d="M0 0 C2.22347679 2.22347679 2.43028238 3.09664364 3.078125 6.0859375 C3.26632813 6.92398926 3.45453125 7.76204102 3.6484375 8.62548828 C3.84695312 9.53282715 4.04546875 10.44016602 4.25 11.375 C5.92109707 18.71247515 7.78072141 25.93410922 10 33.125 C12.0870989 39.90638501 14.05943044 46.70295287 15.875 53.5625 C16.09027344 54.3663916 16.30554688 55.1702832 16.52734375 55.99853516 C17.33200295 59.07529081 18 61.80570425 18 65 C6.45 65 -5.1 65 -17 65 C-15.87755102 54.89795918 -15.87755102 54.89795918 -14.65234375 51.21484375 C-14.3805127 50.36937988 -14.10868164 49.52391602 -13.82861328 48.65283203 C-13.5345459 47.75677246 -13.24047852 46.86071289 -12.9375 45.9375 C-9.30637288 34.5097336 -6.3960607 22.94864819 -3.57788086 11.30053711 C-3.41302689 10.62376419 -3.24817291 9.94699127 -3.07832336 9.24971008 C-2.62757071 7.39601953 -2.18203317 5.5410631 -1.73681641 3.68603516 C-1 1 -1 1 0 0 Z " fill="#273F9A" transform="translate(168,243)"/>
<path d="M0 0 C8.58300605 2.53269031 19.33304459 5.80875738 24.2578125 13.87890625 C26.32395766 19.78373164 25.98058321 25.88797462 23.375 31.5 C17.84446761 37.32161304 11.73768403 39.95431952 3.73046875 40.30078125 C2.21625354 40.31925936 0.70179308 40.32277728 -0.8125 40.3125 C-1.99465088 40.31056641 -1.99465088 40.31056641 -3.20068359 40.30859375 C-9.16333618 40.21046328 -14.46833706 39.3349733 -20 37 C-18.49568905 32.92439998 -16.54488686 29.28763449 -14.375 25.52734375 C-14.02743652 24.92241592 -13.67987305 24.3174881 -13.32177734 23.69422913 C-12.21758733 21.77353287 -11.10903275 19.85540337 -10 17.9375 C-8.89172299 16.01560311 -7.78439026 14.09317095 -6.67822266 12.1700592 C-5.67534688 10.42733298 -4.66977545 8.68615882 -3.6640625 6.94506836 C-2.36990537 4.65466086 -1.14217102 2.36834641 0 0 Z " fill="#3B57A6" transform="translate(295,308)"/>
<path d="M0 0 C0.495 0.99 0.495 0.99 1 2 C5.95 2 10.9 2 16 2 C16 11.9 16 21.8 16 32 C6.1 32 -3.8 32 -14 32 C-14 41.9 -14 51.8 -14 62 C-20.93 62 -27.86 62 -35 62 C-33.61089926 57.83269777 -32.6531952 55.09240477 -30.48828125 51.515625 C-29.73321289 50.25516357 -29.73321289 50.25516357 -28.96289062 48.96923828 C-28.41826172 48.07188965 -27.87363281 47.17454102 -27.3125 46.25 C-26.14055543 44.29509247 -24.97004468 42.33932484 -23.80078125 40.3828125 C-22.87579834 38.8364209 -22.87579834 38.8364209 -21.93212891 37.25878906 C-17.92040826 30.4924955 -14.02395349 23.65872897 -10.11450195 16.83300781 C-6.8496535 11.14816397 -3.51883262 5.53149825 0 0 Z " fill="#E3E3E3" transform="translate(494,418)"/>
<path d="M0 0 C5.61 0 11.22 0 17 0 C17.85980469 1.54945313 18.71960938 3.09890625 19.60546875 4.6953125 C27.08792168 18.14026178 34.74051388 31.46222315 42.61816406 44.6796875 C44.52678361 47.88454972 46.42356014 51.09599196 48.3125 54.3125 C48.84488281 55.21613281 49.37726563 56.11976563 49.92578125 57.05078125 C51 59 51 59 51 60 C44.07 60 37.14 60 30 60 C30 50.1 30 40.2 30 30 C20.1 30 10.2 30 0 30 C0 20.1 0 10.2 0 0 Z " fill="#FEFEFE" transform="translate(90,420)"/>
<path d="M0 0 C6.6 0 13.2 0 20 0 C20 9.9 20 19.8 20 30 C29.9 30 39.8 30 50 30 C50 39.9 50 49.8 50 60 C44.72 60 39.44 60 34 60 C32.83597656 57.9271875 32.83597656 57.9271875 31.6484375 55.8125 C24.63492346 43.34951849 17.51616651 30.95359886 10.2890625 18.61328125 C9.75829102 17.70658691 9.22751953 16.79989258 8.68066406 15.86572266 C7.46680833 13.7959611 6.24958917 11.72817083 5.03027344 9.66162109 C4.38864258 8.57059082 3.74701172 7.47956055 3.0859375 6.35546875 C2.49603027 5.35539795 1.90612305 4.35532715 1.29833984 3.32495117 C0 1 0 1 0 0 Z " fill="#FEFEFE" transform="translate(460,120)"/>
<path d="M0 0 C2.65565787 2.39969682 4.27998553 4.96444189 6.046875 8.06640625 C6.63670166 9.09588379 7.22652832 10.12536133 7.83422852 11.18603516 C8.46643311 12.30026855 9.0986377 13.41450195 9.75 14.5625 C10.41867512 15.7325532 11.08787351 16.9023075 11.75756836 18.07177734 C13.14953254 20.50354367 14.53923202 22.93658244 15.92724609 25.37060547 C19.12019601 30.96623017 22.34244121 36.5449481 25.5625 42.125 C26.17125977 43.18340088 26.78001953 44.24180176 27.40722656 45.33227539 C30.59949093 50.87569057 33.82139722 56.39961315 37.08984375 61.8984375 C38.07392212 63.56108643 38.07392212 63.56108643 39.07788086 65.25732422 C40.33622054 67.38018305 41.60111714 69.49917217 42.87329102 71.61376953 C43.43072998 72.55591309 43.98816895 73.49805664 44.5625 74.46875 C45.05878906 75.29826172 45.55507812 76.12777344 46.06640625 76.98242188 C46.37449219 77.64822266 46.68257812 78.31402344 47 79 C46.67 79.66 46.34 80.32 46 81 C45.34 79.35 44.68 77.7 44 76 C38.39 76 32.78 76 27 76 C26.67 66.43 26.34 56.86 26 47 C16.43 46.67 6.86 46.34 -3 46 C-3 36.1 -3 26.2 -3 16 C0.63 16 4.26 16 8 16 C7.4225 15.01257813 6.845 14.02515625 6.25 13.0078125 C5.499774 11.71367265 4.74978632 10.41939463 4 9.125 C3.6184375 8.47402344 3.236875 7.82304687 2.84375 7.15234375 C0 2.2265625 0 2.2265625 0 0 Z " fill="#E0E0E0" transform="translate(63,344)"/>
<path d="M0 0 C9.9 0 19.8 0 30 0 C30 9.9 30 19.8 30 30 C27.69 30 25.38 30 23 30 C23.680625 31.11375 24.36125 32.2275 25.0625 33.375 C26.22265625 35.2734375 26.22265625 35.2734375 27 37 C26.67 37.66 26.34 38.32 26 39 C25.72325439 38.51644043 25.44650879 38.03288086 25.16137695 37.53466797 C23.88438381 35.31129136 22.59852442 33.0931641 21.3125 30.875 C20.87744141 30.11445312 20.44238281 29.35390625 19.99414062 28.5703125 C19.55908203 27.82265625 19.12402344 27.075 18.67578125 26.3046875 C18.28302002 25.62390137 17.89025879 24.94311523 17.4855957 24.24169922 C16.99534912 23.50193848 16.50510254 22.76217773 16 22 C15.35937056 20.97975676 14.71874111 19.95951351 14.05869865 18.90835381 C12.36528833 16.91578782 11.39204059 16.10191195 8.84126592 15.43883157 C6.07080405 15.21756338 3.35450291 15.19097375 0.57522583 15.22463989 C-1.01635934 15.20848328 -1.01635934 15.20848328 -2.64009774 15.19200027 C-6.20177817 15.16334467 -9.76198198 15.17767044 -13.32373047 15.19189453 C-15.87466633 15.18049224 -18.42559198 15.1665657 -20.97650146 15.15029907 C-27.19004485 15.11808282 -33.40304138 15.11424669 -39.61664306 15.12472488 C-44.66751655 15.13280808 -49.71827055 15.12992153 -54.76913834 15.11922836 C-55.48803375 15.11773152 -56.20692916 15.11623467 -56.94760928 15.11469247 C-58.40806152 15.11162951 -59.86851373 15.10855281 -61.32896592 15.10546254 C-75.02564507 15.07800518 -88.72209578 15.08889237 -102.41876973 15.11183296 C-114.94607853 15.1316945 -127.47279641 15.10582403 -140.00001405 15.05796458 C-152.86545886 15.00918365 -165.73062843 14.98996666 -178.59616387 15.00327003 C-185.81820934 15.01025544 -193.03980044 15.00578513 -200.26177597 14.97076797 C-207.05338943 14.93824592 -213.84369411 14.94768348 -220.63533783 14.98537827 C-223.12863826 14.99276412 -225.62202192 14.98649186 -228.11524582 14.96560669 C-231.51855891 14.93927351 -234.91810836 14.96219202 -238.32125854 14.99758911 C-239.30910461 14.9783791 -240.29695068 14.95916909 -241.31473148 14.93937695 C-245.32444421 15.02524909 -247.94917432 15.13143067 -251.10794854 17.74234366 C-252.87496076 19.75556525 -254.4337291 21.82947403 -256 24 C-256.97976945 25.01982931 -257.97333408 26.02739674 -259 27 C-257.72184544 21.17729589 -254.83367082 17.37126508 -250 14 C-246.53853889 13.03116954 -243.24415087 13.08163646 -239.66725159 13.15821838 C-238.64038252 13.15223741 -237.61351346 13.14625644 -236.55552715 13.14009422 C-233.12151058 13.12858205 -229.68989871 13.16703151 -226.25610352 13.20532227 C-223.79204871 13.20729715 -221.32798979 13.20618774 -218.86393738 13.20222473 C-213.56261455 13.20063175 -208.26203735 13.22045744 -202.96090889 13.2598896 C-195.29657422 13.31686313 -187.63253091 13.33501815 -179.96800744 13.34380554 C-167.53197282 13.35911292 -155.09626023 13.40566169 -142.66040039 13.47192383 C-130.58261726 13.53621096 -118.50492171 13.58574316 -106.42700195 13.61547852 C-105.30963721 13.61823711 -105.30963721 13.61823711 -104.16969944 13.62105144 C-100.43257662 13.63018693 -96.69545317 13.63903283 -92.95832932 13.64773476 C-61.9719854 13.72026123 -30.98604168 13.84403896 0 14 C0 9.38 0 4.76 0 0 Z " fill="#C9C9C9" transform="translate(420,60)"/>
<path d="M0 0 C0.33 0.66 0.66 1.32 1 2 C-0.32 4.31 -1.64 6.62 -3 9 C10.365 9.495 10.365 9.495 24 10 C24 19.9 24 29.8 24 40 C14.1 40 4.2 40 -6 40 C-6.33 32.08 -6.66 24.16 -7 16 C-7.99 16.99 -8.98 17.98 -10 19 C-8.62394084 14.23448987 -6.53221934 10.2751447 -3.875 6.125 C-3.50246094 5.53203125 -3.12992188 4.9390625 -2.74609375 4.328125 C-1.83635 2.8818657 -0.91896202 1.44041954 0 0 Z " fill="#E3E3E3" transform="translate(516,380)"/>
<path d="M0 0 C9.9 0 19.8 0 30 0 C30.4375 12.875 30.4375 12.875 30.56811523 16.93310547 C30.6252771 18.50922607 30.6252771 18.50922607 30.68359375 20.1171875 C30.72025146 21.19597168 30.75690918 22.27475586 30.79467773 23.38623047 C30.83376643 25.98069536 30.83376643 25.98069536 32 28 C30.78515625 30.3828125 30.78515625 30.3828125 29.0625 33.125 C28.21365234 34.49011719 28.21365234 34.49011719 27.34765625 35.8828125 C26.90292969 36.58148438 26.45820312 37.28015625 26 38 C25.67 37.34 25.34 36.68 25 36 C25.99 34.02 26.98 32.04 28 30 C18.76 30 9.52 30 0 30 C0 20.1 0 10.2 0 0 Z " fill="#E3E3E3" transform="translate(60,180)"/>
<path d="M0 0 C12.21 0 24.42 0 37 0 C37 9.9 37 19.8 37 30 C30.73 30.33 24.46 30.66 18 31 C18.33 32.32 18.66 33.64 19 35 C14.96281087 31.30445353 12.67505667 26.52615662 10 21.8125 C9.46632813 20.89146484 8.93265625 19.97042969 8.3828125 19.02148438 C4.83794145 12.80914196 2.26042708 6.78128123 0 0 Z " fill="#E2E2E2" transform="translate(443,90)"/>
<path d="M0 0 C9.9 0 19.8 0 30 0 C30 9.9 30 19.8 30 30 C20.1 30 10.2 30 0 30 C0 20.1 0 10.2 0 0 Z " fill="#E5E5E5" transform="translate(570,570)"/>
<path d="M0 0 C9.9 0 19.8 0 30 0 C30 9.9 30 19.8 30 30 C20.1 30 10.2 30 0 30 C0 20.1 0 10.2 0 0 Z " fill="#FFFFFF" transform="translate(540,570)"/>
<path d="M0 0 C9.9 0 19.8 0 30 0 C30 9.9 30 19.8 30 30 C20.1 30 10.2 30 0 30 C0 20.1 0 10.2 0 0 Z " fill="#E5E5E5" transform="translate(510,570)"/>
<path d="M0 0 C9.9 0 19.8 0 30 0 C30 9.9 30 19.8 30 30 C20.1 30 10.2 30 0 30 C0 20.1 0 10.2 0 0 Z " fill="#FFFFFF" transform="translate(480,570)"/>
<path d="M0 0 C9.9 0 19.8 0 30 0 C30 9.9 30 19.8 30 30 C20.1 30 10.2 30 0 30 C0 20.1 0 10.2 0 0 Z " fill="#E5E5E5" transform="translate(450,570)"/>
<path d="M0 0 C9.9 0 19.8 0 30 0 C30 9.9 30 19.8 30 30 C20.1 30 10.2 30 0 30 C0 20.1 0 10.2 0 0 Z " fill="#FFFFFF" transform="translate(420,570)"/>
<path d="M0 0 C9.9 0 19.8 0 30 0 C30 9.9 30 19.8 30 30 C20.1 30 10.2 30 0 30 C0 20.1 0 10.2 0 0 Z " fill="#E5E5E5" transform="translate(390,570)"/>
<path d="M0 0 C9.9 0 19.8 0 30 0 C30 9.9 30 19.8 30 30 C20.1 30 10.2 30 0 30 C0 20.1 0 10.2 0 0 Z " fill="#FFFFFF" transform="translate(360,570)"/>
<path d="M0 0 C9.9 0 19.8 0 30 0 C30 9.9 30 19.8 30 30 C20.1 30 10.2 30 0 30 C0 20.1 0 10.2 0 0 Z " fill="#E5E5E5" transform="translate(330,570)"/>
<path d="M0 0 C9.9 0 19.8 0 30 0 C30 9.9 30 19.8 30 30 C20.1 30 10.2 30 0 30 C0 20.1 0 10.2 0 0 Z " fill="#FFFFFF" transform="translate(300,570)"/>
<path d="M0 0 C9.9 0 19.8 0 30 0 C30 9.9 30 19.8 30 30 C20.1 30 10.2 30 0 30 C0 20.1 0 10.2 0 0 Z " fill="#E5E5E5" transform="translate(270,570)"/>
<path d="M0 0 C9.9 0 19.8 0 30 0 C30 9.9 30 19.8 30 30 C20.1 30 10.2 30 0 30 C0 20.1 0 10.2 0 0 Z " fill="#FFFFFF" transform="translate(240,570)"/>
<path d="M0 0 C9.9 0 19.8 0 30 0 C30 9.9 30 19.8 30 30 C20.1 30 10.2 30 0 30 C0 20.1 0 10.2 0 0 Z " fill="#E5E5E5" transform="translate(210,570)"/>
<path d="M0 0 C9.9 0 19.8 0 30 0 C30 9.9 30 19.8 30 30 C20.1 30 10.2 30 0 30 C0 20.1 0 10.2 0 0 Z " fill="#FFFFFF" transform="translate(180,570)"/>
<path d="M0 0 C9.9 0 19.8 0 30 0 C30 9.9 30 19.8 30 30 C20.1 30 10.2 30 0 30 C0 20.1 0 10.2 0 0 Z " fill="#E5E5E5" transform="translate(150,570)"/>
<path d="M0 0 C9.9 0 19.8 0 30 0 C30 9.9 30 19.8 30 30 C20.1 30 10.2 30 0 30 C0 20.1 0 10.2 0 0 Z " fill="#FFFFFF" transform="translate(120,570)"/>
<path d="M0 0 C9.9 0 19.8 0 30 0 C30 9.9 30 19.8 30 30 C20.1 30 10.2 30 0 30 C0 20.1 0 10.2 0 0 Z " fill="#E5E5E5" transform="translate(90,570)"/>
<path d="M0 0 C9.9 0 19.8 0 30 0 C30 9.9 30 19.8 30 30 C20.1 30 10.2 30 0 30 C0 20.1 0 10.2 0 0 Z " fill="#FFFFFF" transform="translate(60,570)"/>
<path d="M0 0 C9.9 0 19.8 0 30 0 C30 9.9 30 19.8 30 30 C20.1 30 10.2 30 0 30 C0 20.1 0 10.2 0 0 Z " fill="#E5E5E5" transform="translate(30,570)"/>
<path d="M0 0 C9.9 0 19.8 0 30 0 C30 9.9 30 19.8 30 30 C20.1 30 10.2 30 0 30 C0 20.1 0 10.2 0 0 Z " fill="#FFFFFF" transform="translate(0,570)"/>
<path d="M0 0 C9.9 0 19.8 0 30 0 C30 9.9 30 19.8 30 30 C20.1 30 10.2 30 0 30 C0 20.1 0 10.2 0 0 Z " fill="#FFFFFF" transform="translate(570,540)"/>
<path d="M0 0 C9.9 0 19.8 0 30 0 C30 9.9 30 19.8 30 30 C20.1 30 10.2 30 0 30 C0 20.1 0 10.2 0 0 Z " fill="#E5E5E5" transform="translate(540,540)"/>
<path d="M0 0 C9.9 0 19.8 0 30 0 C30 9.9 30 19.8 30 30 C20.1 30 10.2 30 0 30 C0 20.1 0 10.2 0 0 Z " fill="#FFFFFF" transform="translate(510,540)"/>
<path d="M0 0 C9.9 0 19.8 0 30 0 C30 9.9 30 19.8 30 30 C20.1 30 10.2 30 0 30 C0 20.1 0 10.2 0 0 Z " fill="#E5E5E5" transform="translate(480,540)"/>
<path d="M0 0 C9.9 0 19.8 0 30 0 C30 9.9 30 19.8 30 30 C20.1 30 10.2 30 0 30 C0 20.1 0 10.2 0 0 Z " fill="#FFFFFF" transform="translate(450,540)"/>
<path d="M0 0 C9.9 0 19.8 0 30 0 C30 9.9 30 19.8 30 30 C20.1 30 10.2 30 0 30 C0 20.1 0 10.2 0 0 Z " fill="#E5E5E5" transform="translate(420,540)"/>
<path d="M0 0 C9.9 0 19.8 0 30 0 C30 9.9 30 19.8 30 30 C20.1 30 10.2 30 0 30 C0 20.1 0 10.2 0 0 Z " fill="#FFFFFF" transform="translate(390,540)"/>
<path d="M0 0 C9.9 0 19.8 0 30 0 C30 9.9 30 19.8 30 30 C20.1 30 10.2 30 0 30 C0 20.1 0 10.2 0 0 Z " fill="#E5E5E5" transform="translate(360,540)"/>
<path d="M0 0 C9.9 0 19.8 0 30 0 C30 9.9 30 19.8 30 30 C20.1 30 10.2 30 0 30 C0 20.1 0 10.2 0 0 Z " fill="#FFFFFF" transform="translate(330,540)"/>
<path d="M0 0 C9.9 0 19.8 0 30 0 C30 9.9 30 19.8 30 30 C20.1 30 10.2 30 0 30 C0 20.1 0 10.2 0 0 Z " fill="#E5E5E5" transform="translate(300,540)"/>
<path d="M0 0 C9.9 0 19.8 0 30 0 C30 9.9 30 19.8 30 30 C20.1 30 10.2 30 0 30 C0 20.1 0 10.2 0 0 Z " fill="#FFFFFF" transform="translate(270,540)"/>
<path d="M0 0 C9.9 0 19.8 0 30 0 C30 9.9 30 19.8 30 30 C20.1 30 10.2 30 0 30 C0 20.1 0 10.2 0 0 Z " fill="#FFFFFF" transform="translate(210,540)"/>
<path d="M0 0 C9.9 0 19.8 0 30 0 C30 9.9 30 19.8 30 30 C20.1 30 10.2 30 0 30 C0 20.1 0 10.2 0 0 Z " fill="#E5E5E5" transform="translate(180,540)"/>
<path d="M0 0 C9.9 0 19.8 0 30 0 C30 9.9 30 19.8 30 30 C20.1 30 10.2 30 0 30 C0 20.1 0 10.2 0 0 Z " fill="#FFFFFF" transform="translate(150,540)"/>
<path d="M0 0 C9.9 0 19.8 0 30 0 C30 9.9 30 19.8 30 30 C20.1 30 10.2 30 0 30 C0 20.1 0 10.2 0 0 Z " fill="#E5E5E5" transform="translate(120,540)"/>
<path d="M0 0 C9.9 0 19.8 0 30 0 C30 9.9 30 19.8 30 30 C20.1 30 10.2 30 0 30 C0 20.1 0 10.2 0 0 Z " fill="#FFFFFF" transform="translate(90,540)"/>
<path d="M0 0 C9.9 0 19.8 0 30 0 C30 9.9 30 19.8 30 30 C20.1 30 10.2 30 0 30 C0 20.1 0 10.2 0 0 Z " fill="#E5E5E5" transform="translate(60,540)"/>
<path d="M0 0 C9.9 0 19.8 0 30 0 C30 9.9 30 19.8 30 30 C20.1 30 10.2 30 0 30 C0 20.1 0 10.2 0 0 Z " fill="#FFFFFF" transform="translate(30,540)"/>
<path d="M0 0 C9.9 0 19.8 0 30 0 C30 9.9 30 19.8 30 30 C20.1 30 10.2 30 0 30 C0 20.1 0 10.2 0 0 Z " fill="#E5E5E5" transform="translate(0,540)"/>
<path d="M0 0 C9.9 0 19.8 0 30 0 C30 9.9 30 19.8 30 30 C20.1 30 10.2 30 0 30 C0 20.1 0 10.2 0 0 Z " fill="#E5E5E5" transform="translate(570,510)"/>
<path d="M0 0 C9.9 0 19.8 0 30 0 C30 9.9 30 19.8 30 30 C20.1 30 10.2 30 0 30 C0 20.1 0 10.2 0 0 Z " fill="#FFFFFF" transform="translate(540,510)"/>
<path d="M0 0 C9.9 0 19.8 0 30 0 C30 9.9 30 19.8 30 30 C20.1 30 10.2 30 0 30 C0 20.1 0 10.2 0 0 Z " fill="#E5E5E5" transform="translate(510,510)"/>
<path d="M0 0 C9.9 0 19.8 0 30 0 C30 9.9 30 19.8 30 30 C20.1 30 10.2 30 0 30 C0 20.1 0 10.2 0 0 Z " fill="#FFFFFF" transform="translate(480,510)"/>
<path d="M0 0 C9.9 0 19.8 0 30 0 C30 9.9 30 19.8 30 30 C20.1 30 10.2 30 0 30 C0 20.1 0 10.2 0 0 Z " fill="#E5E5E5" transform="translate(450,510)"/>
<path d="M0 0 C9.9 0 19.8 0 30 0 C30 9.9 30 19.8 30 30 C20.1 30 10.2 30 0 30 C0 20.1 0 10.2 0 0 Z " fill="#FFFFFF" transform="translate(120,510)"/>
<path d="M0 0 C9.9 0 19.8 0 30 0 C30 9.9 30 19.8 30 30 C20.1 30 10.2 30 0 30 C0 20.1 0 10.2 0 0 Z " fill="#E5E5E5" transform="translate(90,510)"/>
<path d="M0 0 C9.9 0 19.8 0 30 0 C30 9.9 30 19.8 30 30 C20.1 30 10.2 30 0 30 C0 20.1 0 10.2 0 0 Z " fill="#FFFFFF" transform="translate(60,510)"/>
<path d="M0 0 C9.9 0 19.8 0 30 0 C30 9.9 30 19.8 30 30 C20.1 30 10.2 30 0 30 C0 20.1 0 10.2 0 0 Z " fill="#E5E5E5" transform="translate(30,510)"/>
<path d="M0 0 C9.9 0 19.8 0 30 0 C30 9.9 30 19.8 30 30 C20.1 30 10.2 30 0 30 C0 20.1 0 10.2 0 0 Z " fill="#FFFFFF" transform="translate(0,510)"/>
<path d="M0 0 C9.9 0 19.8 0 30 0 C30 9.9 30 19.8 30 30 C20.1 30 10.2 30 0 30 C0 20.1 0 10.2 0 0 Z " fill="#FFFFFF" transform="translate(570,480)"/>
<path d="M0 0 C9.9 0 19.8 0 30 0 C30 9.9 30 19.8 30 30 C20.1 30 10.2 30 0 30 C0 20.1 0 10.2 0 0 Z " fill="#E5E5E5" transform="translate(540,480)"/>
<path d="M0 0 C9.9 0 19.8 0 30 0 C30 9.9 30 19.8 30 30 C20.1 30 10.2 30 0 30 C0 20.1 0 10.2 0 0 Z " fill="#FFFFFF" transform="translate(510,480)"/>
<path d="M0 0 C9.9 0 19.8 0 30 0 C30 9.9 30 19.8 30 30 C20.1 30 10.2 30 0 30 C0 20.1 0 10.2 0 0 Z " fill="#E5E5E5" transform="translate(480,480)"/>
<path d="M0 0 C9.9 0 19.8 0 30 0 C30 9.9 30 19.8 30 30 C20.1 30 10.2 30 0 30 C0 20.1 0 10.2 0 0 Z " fill="#FFFFFF" transform="translate(90,480)"/>
<path d="M0 0 C9.9 0 19.8 0 30 0 C30 9.9 30 19.8 30 30 C20.1 30 10.2 30 0 30 C0 20.1 0 10.2 0 0 Z " fill="#E5E5E5" transform="translate(60,480)"/>
<path d="M0 0 C9.9 0 19.8 0 30 0 C30 9.9 30 19.8 30 30 C20.1 30 10.2 30 0 30 C0 20.1 0 10.2 0 0 Z " fill="#FFFFFF" transform="translate(30,480)"/>
<path d="M0 0 C9.9 0 19.8 0 30 0 C30 9.9 30 19.8 30 30 C20.1 30 10.2 30 0 30 C0 20.1 0 10.2 0 0 Z " fill="#E5E5E5" transform="translate(0,480)"/>
<path d="M0 0 C9.9 0 19.8 0 30 0 C30 9.9 30 19.8 30 30 C20.1 30 10.2 30 0 30 C0 20.1 0 10.2 0 0 Z " fill="#E5E5E5" transform="translate(570,450)"/>
<path d="M0 0 C9.9 0 19.8 0 30 0 C30 9.9 30 19.8 30 30 C20.1 30 10.2 30 0 30 C0 20.1 0 10.2 0 0 Z " fill="#FFFFFF" transform="translate(540,450)"/>
<path d="M0 0 C9.9 0 19.8 0 30 0 C30 9.9 30 19.8 30 30 C20.1 30 10.2 30 0 30 C0 20.1 0 10.2 0 0 Z " fill="#FFFFFF" transform="translate(480,450)"/>
<path d="M0 0 C9.9 0 19.8 0 30 0 C30 9.9 30 19.8 30 30 C20.1 30 10.2 30 0 30 C0 20.1 0 10.2 0 0 Z " fill="#E5E5E5" transform="translate(90,450)"/>
<path d="M0 0 C9.9 0 19.8 0 30 0 C30 9.9 30 19.8 30 30 C20.1 30 10.2 30 0 30 C0 20.1 0 10.2 0 0 Z " fill="#FFFFFF" transform="translate(60,450)"/>
<path d="M0 0 C9.9 0 19.8 0 30 0 C30 9.9 30 19.8 30 30 C20.1 30 10.2 30 0 30 C0 20.1 0 10.2 0 0 Z " fill="#E5E5E5" transform="translate(30,450)"/>
<path d="M0 0 C9.9 0 19.8 0 30 0 C30 9.9 30 19.8 30 30 C20.1 30 10.2 30 0 30 C0 20.1 0 10.2 0 0 Z " fill="#FFFFFF" transform="translate(0,450)"/>
<path d="M0 0 C9.9 0 19.8 0 30 0 C30 9.9 30 19.8 30 30 C20.1 30 10.2 30 0 30 C0 20.1 0 10.2 0 0 Z " fill="#FFFFFF" transform="translate(570,420)"/>
<path d="M0 0 C9.9 0 19.8 0 30 0 C30 9.9 30 19.8 30 30 C20.1 30 10.2 30 0 30 C0 20.1 0 10.2 0 0 Z " fill="#FFFFFF" transform="translate(510,420)"/>
<path d="M0 0 C9.9 0 19.8 0 30 0 C30 9.9 30 19.8 30 30 C20.1 30 10.2 30 0 30 C0 20.1 0 10.2 0 0 Z " fill="#E5E5E5" transform="translate(60,420)"/>
<path d="M0 0 C9.9 0 19.8 0 30 0 C30 9.9 30 19.8 30 30 C20.1 30 10.2 30 0 30 C0 20.1 0 10.2 0 0 Z " fill="#FFFFFF" transform="translate(30,420)"/>
<path d="M0 0 C9.9 0 19.8 0 30 0 C30 9.9 30 19.8 30 30 C20.1 30 10.2 30 0 30 C0 20.1 0 10.2 0 0 Z " fill="#E5E5E5" transform="translate(0,420)"/>
<path d="M0 0 C9.9 0 19.8 0 30 0 C30 9.9 30 19.8 30 30 C20.1 30 10.2 30 0 30 C0 20.1 0 10.2 0 0 Z " fill="#E5E5E5" transform="translate(570,390)"/>
<path d="M0 0 C9.9 0 19.8 0 30 0 C30 9.9 30 19.8 30 30 C20.1 30 10.2 30 0 30 C0 20.1 0 10.2 0 0 Z " fill="#FFFFFF" transform="translate(540,390)"/>
<path d="M0 0 C9.9 0 19.8 0 30 0 C30 9.9 30 19.8 30 30 C20.1 30 10.2 30 0 30 C0 20.1 0 10.2 0 0 Z " fill="#FFFFFF" transform="translate(0,390)"/>
<path d="M0 0 C9.9 0 19.8 0 30 0 C30 9.9 30 19.8 30 30 C20.1 30 10.2 30 0 30 C0 20.1 0 10.2 0 0 Z " fill="#FFFFFF" transform="translate(570,360)"/>
<path d="M0 0 C9.9 0 19.8 0 30 0 C30 9.9 30 19.8 30 30 C20.1 30 10.2 30 0 30 C0 20.1 0 10.2 0 0 Z " fill="#E5E5E5" transform="translate(540,360)"/>
<path d="M0 0 C9.9 0 19.8 0 30 0 C30 9.9 30 19.8 30 30 C20.1 30 10.2 30 0 30 C0 20.1 0 10.2 0 0 Z " fill="#FFFFFF" transform="translate(30,360)"/>
<path d="M0 0 C9.9 0 19.8 0 30 0 C30 9.9 30 19.8 30 30 C20.1 30 10.2 30 0 30 C0 20.1 0 10.2 0 0 Z " fill="#E5E5E5" transform="translate(0,360)"/>
<path d="M0 0 C9.9 0 19.8 0 30 0 C30 9.9 30 19.8 30 30 C20.1 30 10.2 30 0 30 C0 20.1 0 10.2 0 0 Z " fill="#E5E5E5" transform="translate(570,330)"/>
<path d="M0 0 C9.9 0 19.8 0 30 0 C30 9.9 30 19.8 30 30 C20.1 30 10.2 30 0 30 C0 20.1 0 10.2 0 0 Z " fill="#FFFFFF" transform="translate(0,330)"/>
<path d="M0 0 C9.9 0 19.8 0 30 0 C30 9.9 30 19.8 30 30 C20.1 30 10.2 30 0 30 C0 20.1 0 10.2 0 0 Z " fill="#FFFFFF" transform="translate(570,300)"/>
<path d="M0 0 C9.9 0 19.8 0 30 0 C30 9.9 30 19.8 30 30 C20.1 30 10.2 30 0 30 C0 20.1 0 10.2 0 0 Z " fill="#E5E5E5" transform="translate(0,300)"/>
<path d="M0 0 C9.9 0 19.8 0 30 0 C30 9.9 30 19.8 30 30 C20.1 30 10.2 30 0 30 C0 20.1 0 10.2 0 0 Z " fill="#E5E5E5" transform="translate(570,270)"/>
<path d="M0 0 C9.9 0 19.8 0 30 0 C30 9.9 30 19.8 30 30 C20.1 30 10.2 30 0 30 C0 20.1 0 10.2 0 0 Z " fill="#FFFFFF" transform="translate(0,270)"/>
<path d="M0 0 C9.9 0 19.8 0 30 0 C30 9.9 30 19.8 30 30 C20.1 30 10.2 30 0 30 C0 20.1 0 10.2 0 0 Z " fill="#FFFFFF" transform="translate(570,240)"/>
<path d="M0 0 C9.9 0 19.8 0 30 0 C30 9.9 30 19.8 30 30 C20.1 30 10.2 30 0 30 C0 20.1 0 10.2 0 0 Z " fill="#E5E5E5" transform="translate(0,240)"/>
<path d="M0 0 C9.9 0 19.8 0 30 0 C30 9.9 30 19.8 30 30 C20.1 30 10.2 30 0 30 C0 20.1 0 10.2 0 0 Z " fill="#E5E5E5" transform="translate(570,210)"/>
<path d="M0 0 C9.9 0 19.8 0 30 0 C30 9.9 30 19.8 30 30 C20.1 30 10.2 30 0 30 C0 20.1 0 10.2 0 0 Z " fill="#FFFFFF" transform="translate(540,210)"/>
<path d="M0 0 C9.9 0 19.8 0 30 0 C30 9.9 30 19.8 30 30 C20.1 30 10.2 30 0 30 C0 20.1 0 10.2 0 0 Z " fill="#E5E5E5" transform="translate(30,210)"/>
<path d="M0 0 C9.9 0 19.8 0 30 0 C30 9.9 30 19.8 30 30 C20.1 30 10.2 30 0 30 C0 20.1 0 10.2 0 0 Z " fill="#FFFFFF" transform="translate(0,210)"/>
<path d="M0 0 C9.9 0 19.8 0 30 0 C30 9.9 30 19.8 30 30 C20.1 30 10.2 30 0 30 C0 20.1 0 10.2 0 0 Z " fill="#FFFFFF" transform="translate(570,180)"/>
<path d="M0 0 C9.9 0 19.8 0 30 0 C30 9.9 30 19.8 30 30 C20.1 30 10.2 30 0 30 C0 20.1 0 10.2 0 0 Z " fill="#E5E5E5" transform="translate(540,180)"/>
<path d="M0 0 C9.9 0 19.8 0 30 0 C30 9.9 30 19.8 30 30 C20.1 30 10.2 30 0 30 C0 20.1 0 10.2 0 0 Z " fill="#FFFFFF" transform="translate(30,180)"/>
<path d="M0 0 C9.9 0 19.8 0 30 0 C30 9.9 30 19.8 30 30 C20.1 30 10.2 30 0 30 C0 20.1 0 10.2 0 0 Z " fill="#E5E5E5" transform="translate(0,180)"/>
<path d="M0 0 C9.9 0 19.8 0 30 0 C30 9.9 30 19.8 30 30 C20.1 30 10.2 30 0 30 C0 20.1 0 10.2 0 0 Z " fill="#E5E5E5" transform="translate(570,150)"/>
<path d="M0 0 C9.9 0 19.8 0 30 0 C30 9.9 30 19.8 30 30 C20.1 30 10.2 30 0 30 C0 20.1 0 10.2 0 0 Z " fill="#FFFFFF" transform="translate(540,150)"/>
<path d="M0 0 C9.9 0 19.8 0 30 0 C30 9.9 30 19.8 30 30 C20.1 30 10.2 30 0 30 C0 20.1 0 10.2 0 0 Z " fill="#E5E5E5" transform="translate(510,150)"/>
<path d="M0 0 C9.9 0 19.8 0 30 0 C30 9.9 30 19.8 30 30 C20.1 30 10.2 30 0 30 C0 20.1 0 10.2 0 0 Z " fill="#FFFFFF" transform="translate(60,150)"/>
<path d="M0 0 C9.9 0 19.8 0 30 0 C30 9.9 30 19.8 30 30 C20.1 30 10.2 30 0 30 C0 20.1 0 10.2 0 0 Z " fill="#E5E5E5" transform="translate(30,150)"/>
<path d="M0 0 C9.9 0 19.8 0 30 0 C30 9.9 30 19.8 30 30 C20.1 30 10.2 30 0 30 C0 20.1 0 10.2 0 0 Z " fill="#FFFFFF" transform="translate(0,150)"/>
<path d="M0 0 C9.9 0 19.8 0 30 0 C30 9.9 30 19.8 30 30 C20.1 30 10.2 30 0 30 C0 20.1 0 10.2 0 0 Z " fill="#FFFFFF" transform="translate(570,120)"/>
<path d="M0 0 C9.9 0 19.8 0 30 0 C30 9.9 30 19.8 30 30 C20.1 30 10.2 30 0 30 C0 20.1 0 10.2 0 0 Z " fill="#E5E5E5" transform="translate(540,120)"/>
<path d="M0 0 C9.9 0 19.8 0 30 0 C30 9.9 30 19.8 30 30 C20.1 30 10.2 30 0 30 C0 20.1 0 10.2 0 0 Z " fill="#FFFFFF" transform="translate(510,120)"/>
<path d="M0 0 C9.9 0 19.8 0 30 0 C30 9.9 30 19.8 30 30 C20.1 30 10.2 30 0 30 C0 20.1 0 10.2 0 0 Z " fill="#E5E5E5" transform="translate(480,120)"/>
<path d="M0 0 C9.9 0 19.8 0 30 0 C30 9.9 30 19.8 30 30 C20.1 30 10.2 30 0 30 C0 20.1 0 10.2 0 0 Z " fill="#FFFFFF" transform="translate(90,120)"/>
<path d="M0 0 C9.9 0 19.8 0 30 0 C30 9.9 30 19.8 30 30 C20.1 30 10.2 30 0 30 C0 20.1 0 10.2 0 0 Z " fill="#E5E5E5" transform="translate(60,120)"/>
<path d="M0 0 C9.9 0 19.8 0 30 0 C30 9.9 30 19.8 30 30 C20.1 30 10.2 30 0 30 C0 20.1 0 10.2 0 0 Z " fill="#FFFFFF" transform="translate(30,120)"/>
<path d="M0 0 C9.9 0 19.8 0 30 0 C30 9.9 30 19.8 30 30 C20.1 30 10.2 30 0 30 C0 20.1 0 10.2 0 0 Z " fill="#E5E5E5" transform="translate(0,120)"/>
<path d="M0 0 C9.9 0 19.8 0 30 0 C30 9.9 30 19.8 30 30 C20.1 30 10.2 30 0 30 C0 20.1 0 10.2 0 0 Z " fill="#E5E5E5" transform="translate(570,90)"/>
<path d="M0 0 C9.9 0 19.8 0 30 0 C30 9.9 30 19.8 30 30 C20.1 30 10.2 30 0 30 C0 20.1 0 10.2 0 0 Z " fill="#FFFFFF" transform="translate(540,90)"/>
<path d="M0 0 C9.9 0 19.8 0 30 0 C30 9.9 30 19.8 30 30 C20.1 30 10.2 30 0 30 C0 20.1 0 10.2 0 0 Z " fill="#E5E5E5" transform="translate(510,90)"/>
<path d="M0 0 C9.9 0 19.8 0 30 0 C30 9.9 30 19.8 30 30 C20.1 30 10.2 30 0 30 C0 20.1 0 10.2 0 0 Z " fill="#FFFFFF" transform="translate(480,90)"/>
<path d="M0 0 C9.9 0 19.8 0 30 0 C30 9.9 30 19.8 30 30 C20.1 30 10.2 30 0 30 C0 20.1 0 10.2 0 0 Z " fill="#E5E5E5" transform="translate(90,90)"/>
<path d="M0 0 C9.9 0 19.8 0 30 0 C30 9.9 30 19.8 30 30 C20.1 30 10.2 30 0 30 C0 20.1 0 10.2 0 0 Z " fill="#FFFFFF" transform="translate(60,90)"/>
<path d="M0 0 C9.9 0 19.8 0 30 0 C30 9.9 30 19.8 30 30 C20.1 30 10.2 30 0 30 C0 20.1 0 10.2 0 0 Z " fill="#E5E5E5" transform="translate(30,90)"/>
<path d="M0 0 C9.9 0 19.8 0 30 0 C30 9.9 30 19.8 30 30 C20.1 30 10.2 30 0 30 C0 20.1 0 10.2 0 0 Z " fill="#FFFFFF" transform="translate(0,90)"/>
<path d="M0 0 C9.9 0 19.8 0 30 0 C30 9.9 30 19.8 30 30 C20.1 30 10.2 30 0 30 C0 20.1 0 10.2 0 0 Z " fill="#FFFFFF" transform="translate(570,60)"/>
<path d="M0 0 C9.9 0 19.8 0 30 0 C30 9.9 30 19.8 30 30 C20.1 30 10.2 30 0 30 C0 20.1 0 10.2 0 0 Z " fill="#E5E5E5" transform="translate(540,60)"/>
<path d="M0 0 C9.9 0 19.8 0 30 0 C30 9.9 30 19.8 30 30 C20.1 30 10.2 30 0 30 C0 20.1 0 10.2 0 0 Z " fill="#FFFFFF" transform="translate(510,60)"/>
<path d="M0 0 C9.9 0 19.8 0 30 0 C30 9.9 30 19.8 30 30 C20.1 30 10.2 30 0 30 C0 20.1 0 10.2 0 0 Z " fill="#E5E5E5" transform="translate(480,60)"/>
<path d="M0 0 C9.9 0 19.8 0 30 0 C30 9.9 30 19.8 30 30 C20.1 30 10.2 30 0 30 C0 20.1 0 10.2 0 0 Z " fill="#FFFFFF" transform="translate(450,60)"/>
<path d="M0 0 C9.9 0 19.8 0 30 0 C30 9.9 30 19.8 30 30 C20.1 30 10.2 30 0 30 C0 20.1 0 10.2 0 0 Z " fill="#E5E5E5" transform="translate(120,60)"/>
<path d="M0 0 C9.9 0 19.8 0 30 0 C30 9.9 30 19.8 30 30 C20.1 30 10.2 30 0 30 C0 20.1 0 10.2 0 0 Z " fill="#FFFFFF" transform="translate(90,60)"/>
<path d="M0 0 C9.9 0 19.8 0 30 0 C30 9.9 30 19.8 30 30 C20.1 30 10.2 30 0 30 C0 20.1 0 10.2 0 0 Z " fill="#E5E5E5" transform="translate(60,60)"/>
<path d="M0 0 C9.9 0 19.8 0 30 0 C30 9.9 30 19.8 30 30 C20.1 30 10.2 30 0 30 C0 20.1 0 10.2 0 0 Z " fill="#FFFFFF" transform="translate(30,60)"/>
<path d="M0 0 C9.9 0 19.8 0 30 0 C30 9.9 30 19.8 30 30 C20.1 30 10.2 30 0 30 C0 20.1 0 10.2 0 0 Z " fill="#E5E5E5" transform="translate(0,60)"/>
<path d="M0 0 C9.9 0 19.8 0 30 0 C30 9.9 30 19.8 30 30 C20.1 30 10.2 30 0 30 C0 20.1 0 10.2 0 0 Z " fill="#E5E5E5" transform="translate(570,30)"/>
<path d="M0 0 C9.9 0 19.8 0 30 0 C30 9.9 30 19.8 30 30 C20.1 30 10.2 30 0 30 C0 20.1 0 10.2 0 0 Z " fill="#FFFFFF" transform="translate(540,30)"/>
<path d="M0 0 C9.9 0 19.8 0 30 0 C30 9.9 30 19.8 30 30 C20.1 30 10.2 30 0 30 C0 20.1 0 10.2 0 0 Z " fill="#E5E5E5" transform="translate(510,30)"/>
<path d="M0 0 C9.9 0 19.8 0 30 0 C30 9.9 30 19.8 30 30 C20.1 30 10.2 30 0 30 C0 20.1 0 10.2 0 0 Z " fill="#FFFFFF" transform="translate(480,30)"/>
<path d="M0 0 C9.9 0 19.8 0 30 0 C30 9.9 30 19.8 30 30 C20.1 30 10.2 30 0 30 C0 20.1 0 10.2 0 0 Z " fill="#E5E5E5" transform="translate(450,30)"/>
<path d="M0 0 C9.9 0 19.8 0 30 0 C30 9.9 30 19.8 30 30 C20.1 30 10.2 30 0 30 C0 20.1 0 10.2 0 0 Z " fill="#FFFFFF" transform="translate(420,30)"/>
<path d="M0 0 C9.9 0 19.8 0 30 0 C30 9.9 30 19.8 30 30 C20.1 30 10.2 30 0 30 C0 20.1 0 10.2 0 0 Z " fill="#E5E5E5" transform="translate(390,30)"/>
<path d="M0 0 C9.9 0 19.8 0 30 0 C30 9.9 30 19.8 30 30 C20.1 30 10.2 30 0 30 C0 20.1 0 10.2 0 0 Z " fill="#FFFFFF" transform="translate(360,30)"/>
<path d="M0 0 C9.9 0 19.8 0 30 0 C30 9.9 30 19.8 30 30 C20.1 30 10.2 30 0 30 C0 20.1 0 10.2 0 0 Z " fill="#E5E5E5" transform="translate(330,30)"/>
<path d="M0 0 C9.9 0 19.8 0 30 0 C30 9.9 30 19.8 30 30 C20.1 30 10.2 30 0 30 C0 20.1 0 10.2 0 0 Z " fill="#FFFFFF" transform="translate(300,30)"/>
<path d="M0 0 C9.9 0 19.8 0 30 0 C30 9.9 30 19.8 30 30 C20.1 30 10.2 30 0 30 C0 20.1 0 10.2 0 0 Z " fill="#E5E5E5" transform="translate(270,30)"/>
<path d="M0 0 C9.9 0 19.8 0 30 0 C30 9.9 30 19.8 30 30 C20.1 30 10.2 30 0 30 C0 20.1 0 10.2 0 0 Z " fill="#FFFFFF" transform="translate(240,30)"/>
<path d="M0 0 C9.9 0 19.8 0 30 0 C30 9.9 30 19.8 30 30 C20.1 30 10.2 30 0 30 C0 20.1 0 10.2 0 0 Z " fill="#E5E5E5" transform="translate(210,30)"/>
<path d="M0 0 C9.9 0 19.8 0 30 0 C30 9.9 30 19.8 30 30 C20.1 30 10.2 30 0 30 C0 20.1 0 10.2 0 0 Z " fill="#FFFFFF" transform="translate(180,30)"/>
<path d="M0 0 C9.9 0 19.8 0 30 0 C30 9.9 30 19.8 30 30 C20.1 30 10.2 30 0 30 C0 20.1 0 10.2 0 0 Z " fill="#E5E5E5" transform="translate(150,30)"/>
<path d="M0 0 C9.9 0 19.8 0 30 0 C30 9.9 30 19.8 30 30 C20.1 30 10.2 30 0 30 C0 20.1 0 10.2 0 0 Z " fill="#FFFFFF" transform="translate(120,30)"/>
<path d="M0 0 C9.9 0 19.8 0 30 0 C30 9.9 30 19.8 30 30 C20.1 30 10.2 30 0 30 C0 20.1 0 10.2 0 0 Z " fill="#E5E5E5" transform="translate(90,30)"/>
<path d="M0 0 C9.9 0 19.8 0 30 0 C30 9.9 30 19.8 30 30 C20.1 30 10.2 30 0 30 C0 20.1 0 10.2 0 0 Z " fill="#FFFFFF" transform="translate(60,30)"/>
<path d="M0 0 C9.9 0 19.8 0 30 0 C30 9.9 30 19.8 30 30 C20.1 30 10.2 30 0 30 C0 20.1 0 10.2 0 0 Z " fill="#E5E5E5" transform="translate(30,30)"/>
<path d="M0 0 C9.9 0 19.8 0 30 0 C30 9.9 30 19.8 30 30 C20.1 30 10.2 30 0 30 C0 20.1 0 10.2 0 0 Z " fill="#FFFFFF" transform="translate(0,30)"/>
<path d="M0 0 C9.9 0 19.8 0 30 0 C30 9.9 30 19.8 30 30 C20.1 30 10.2 30 0 30 C0 20.1 0 10.2 0 0 Z " fill="#FFFFFF" transform="translate(570,0)"/>
<path d="M0 0 C9.9 0 19.8 0 30 0 C30 9.9 30 19.8 30 30 C20.1 30 10.2 30 0 30 C0 20.1 0 10.2 0 0 Z " fill="#E5E5E5" transform="translate(540,0)"/>
<path d="M0 0 C9.9 0 19.8 0 30 0 C30 9.9 30 19.8 30 30 C20.1 30 10.2 30 0 30 C0 20.1 0 10.2 0 0 Z " fill="#FFFFFF" transform="translate(510,0)"/>
<path d="M0 0 C9.9 0 19.8 0 30 0 C30 9.9 30 19.8 30 30 C20.1 30 10.2 30 0 30 C0 20.1 0 10.2 0 0 Z " fill="#E5E5E5" transform="translate(480,0)"/>
<path d="M0 0 C9.9 0 19.8 0 30 0 C30 9.9 30 19.8 30 30 C20.1 30 10.2 30 0 30 C0 20.1 0 10.2 0 0 Z " fill="#FFFFFF" transform="translate(450,0)"/>
<path d="M0 0 C9.9 0 19.8 0 30 0 C30 9.9 30 19.8 30 30 C20.1 30 10.2 30 0 30 C0 20.1 0 10.2 0 0 Z " fill="#E5E5E5" transform="translate(420,0)"/>
<path d="M0 0 C9.9 0 19.8 0 30 0 C30 9.9 30 19.8 30 30 C20.1 30 10.2 30 0 30 C0 20.1 0 10.2 0 0 Z " fill="#FFFFFF" transform="translate(390,0)"/>
<path d="M0 0 C9.9 0 19.8 0 30 0 C30 9.9 30 19.8 30 30 C20.1 30 10.2 30 0 30 C0 20.1 0 10.2 0 0 Z " fill="#E5E5E5" transform="translate(360,0)"/>
<path d="M0 0 C9.9 0 19.8 0 30 0 C30 9.9 30 19.8 30 30 C20.1 30 10.2 30 0 30 C0 20.1 0 10.2 0 0 Z " fill="#FFFFFF" transform="translate(330,0)"/>
<path d="M0 0 C9.9 0 19.8 0 30 0 C30 9.9 30 19.8 30 30 C20.1 30 10.2 30 0 30 C0 20.1 0 10.2 0 0 Z " fill="#E5E5E5" transform="translate(300,0)"/>
<path d="M0 0 C9.9 0 19.8 0 30 0 C30 9.9 30 19.8 30 30 C20.1 30 10.2 30 0 30 C0 20.1 0 10.2 0 0 Z " fill="#FFFFFF" transform="translate(270,0)"/>
<path d="M0 0 C9.9 0 19.8 0 30 0 C30 9.9 30 19.8 30 30 C20.1 30 10.2 30 0 30 C0 20.1 0 10.2 0 0 Z " fill="#E5E5E5" transform="translate(240,0)"/>
<path d="M0 0 C9.9 0 19.8 0 30 0 C30 9.9 30 19.8 30 30 C20.1 30 10.2 30 0 30 C0 20.1 0 10.2 0 0 Z " fill="#FFFFFF" transform="translate(210,0)"/>
<path d="M0 0 C9.9 0 19.8 0 30 0 C30 9.9 30 19.8 30 30 C20.1 30 10.2 30 0 30 C0 20.1 0 10.2 0 0 Z " fill="#E5E5E5" transform="translate(180,0)"/>
<path d="M0 0 C9.9 0 19.8 0 30 0 C30 9.9 30 19.8 30 30 C20.1 30 10.2 30 0 30 C0 20.1 0 10.2 0 0 Z " fill="#FFFFFF" transform="translate(150,0)"/>
<path d="M0 0 C9.9 0 19.8 0 30 0 C30 9.9 30 19.8 30 30 C20.1 30 10.2 30 0 30 C0 20.1 0 10.2 0 0 Z " fill="#E5E5E5" transform="translate(120,0)"/>
<path d="M0 0 C9.9 0 19.8 0 30 0 C30 9.9 30 19.8 30 30 C20.1 30 10.2 30 0 30 C0 20.1 0 10.2 0 0 Z " fill="#FFFFFF" transform="translate(90,0)"/>
<path d="M0 0 C9.9 0 19.8 0 30 0 C30 9.9 30 19.8 30 30 C20.1 30 10.2 30 0 30 C0 20.1 0 10.2 0 0 Z " fill="#E5E5E5" transform="translate(60,0)"/>
<path d="M0 0 C9.9 0 19.8 0 30 0 C30 9.9 30 19.8 30 30 C20.1 30 10.2 30 0 30 C0 20.1 0 10.2 0 0 Z " fill="#E5E5E5" transform="translate(0,0)"/>
<path d="M0 0 C7.1465625 -0.0309375 7.1465625 -0.0309375 14.4375 -0.0625 C15.9423999 -0.071604 17.4472998 -0.08070801 18.99780273 -0.09008789 C20.17286377 -0.09258545 21.3479248 -0.09508301 22.55859375 -0.09765625 C24.37315063 -0.10551147 24.37315063 -0.10551147 26.22436523 -0.11352539 C29 0 29 0 30 1 C30.08775605 3.14558827 30.10695219 5.29404421 30.09765625 7.44140625 C30.09515869 8.61646729 30.09266113 9.79152832 30.09008789 11.00219727 C30.08098389 12.50709717 30.07187988 14.01199707 30.0625 15.5625 C30.041875 20.326875 30.02125 25.09125 30 30 C20.1 30 10.2 30 0 30 C0 20.1 0 10.2 0 0 Z " fill="#FEFEFE" transform="translate(60,390)"/>
<path d="M0 0 C9.9 0 19.8 0 30 0 C30 9.9 30 19.8 30 30 C23.131875 30.0928125 23.131875 30.0928125 16.125 30.1875 C13.9596167 30.22846802 13.9596167 30.22846802 11.75048828 30.27026367 C10.05255127 30.28150269 10.05255127 30.28150269 8.3203125 30.29296875 C6.57645264 30.31653442 6.57645264 30.31653442 4.79736328 30.34057617 C3.8742334 30.22818604 2.95110352 30.1157959 2 30 C-0.36008817 26.45986775 -0.23463644 24.98878045 -0.1953125 20.80078125 C-0.18781982 19.16749878 -0.18781982 19.16749878 -0.18017578 17.5012207 C-0.16196777 16.11894287 -0.14375977 14.73666504 -0.125 13.3125 C-0.08375 8.919375 -0.0425 4.52625 0 0 Z " fill="#FEFEFE" transform="translate(510,180)"/>
<path d="M0 0 C9.9 0 19.8 0 30 0 C30 9.9 30 19.8 30 30 C22.74 30.33 15.48 30.66 8 31 C8.33 32.32 8.66 33.64 9 35 C5.75258576 32.21503399 3.83910905 28.60463249 1.75 24.9375 C1.37359375 24.30005859 0.9971875 23.66261719 0.609375 23.00585938 C-0.32643643 21.3733501 -1.17105723 19.68928489 -2 18 C-1.67 17.34 -1.34 16.68 -1 16 C-0.76759495 13.28573859 -0.58091198 10.59366233 -0.4375 7.875 C-0.293125 5.27625 -0.14875 2.6775 0 0 Z " fill="#E3E3E3" transform="translate(540,240)"/>
<path d="M0 0 C1.5 1.375 1.5 1.375 3 3 C3 3.66 3 4.32 3 5 C8.28 5 13.56 5 19 5 C19.06058594 6.92585937 19.12117188 8.85171875 19.18359375 10.8359375 C19.26798651 13.34896649 19.35263514 15.8619869 19.4375 18.375 C19.47681641 19.64601562 19.51613281 20.91703125 19.55664062 22.2265625 C19.59853516 23.43828125 19.64042969 24.65 19.68359375 25.8984375 C19.72025146 27.01911621 19.75690918 28.13979492 19.79467773 29.29443359 C19.82596013 31.96712771 19.82596013 31.96712771 21 34 C34.86 34.495 34.86 34.495 49 35 C49 44.9 49 54.8 49 65 C45.7 65 42.4 65 39 65 C39.33 66.32 39.66 67.64 40 69 C37.18215963 66.4916488 35.54276277 63.70077062 33.69921875 60.42578125 C33.05847412 59.29462891 32.41772949 58.16347656 31.75756836 56.99804688 C31.42014618 56.39726318 31.082724 55.79647949 30.7350769 55.17749023 C28.95292148 52.00473753 27.15485426 48.84100629 25.359375 45.67578125 C24.99488754 45.0321463 24.63040009 44.38851135 24.25486755 43.72537231 C20.69998092 37.45366651 17.07815352 31.22234412 13.4375 25 C12.8911792 24.06583252 12.3448584 23.13166504 11.78198242 22.16918945 C11.25451416 21.26773193 10.7270459 20.36627441 10.18359375 19.4375 C9.6716748 18.5609375 9.15975586 17.684375 8.63232422 16.78125 C7.4436549 14.7559253 6.24616504 12.73576967 5.04345703 10.71875 C4.40134277 9.6359375 3.75922852 8.553125 3.09765625 7.4375 C2.50605713 6.44621094 1.91445801 5.45492187 1.30493164 4.43359375 C0 2 0 2 0 0 Z " fill="#E1E1E1" transform="translate(491,175)"/>
<path d="M0 0 C86.46 0.33 172.92 0.66 262 1 C262 1.33 262 1.66 262 2 C198.97 2 135.94 2 71 2 C71 6.62 71 11.24 71 16 C61.1 16 51.2 16 41 16 C41 11.38 41 6.76 41 2 C27.47 2 13.94 2 0 2 C0 1.34 0 0.68 0 0 Z " fill="#C3C3C3" transform="translate(169,524)"/>
<path d="M0 0 C0.33 0.66 0.66 1.32 1 2 C-0.15576172 4.23974609 -0.15576172 4.23974609 -1.9296875 7.0234375 C-2.56003906 8.04566406 -3.19039062 9.06789063 -3.83984375 10.12109375 C-5.17687695 12.2588071 -6.52552236 14.38930962 -7.88671875 16.51171875 C-12.31188068 23.7487962 -14.12380966 29.49141948 -14 38 C-14.33 38 -14.66 38 -15 38 C-15 36.02 -15 34.04 -15 32 C-18.3 32 -21.6 32 -25 32 C-25 22.1 -25 12.2 -25 2 C-13.0625 1.5625 -13.0625 1.5625 -9.29321289 1.43188477 C-8.3211792 1.39377686 -7.34914551 1.35566895 -6.34765625 1.31640625 C-5.34742432 1.27974854 -4.34719238 1.24309082 -3.31665039 1.20532227 C-1.03930812 1.25328159 -1.03930812 1.25328159 0 0 Z " fill="#DEDEDE" transform="translate(55,268)"/>
<path d="M0 0 C0.33 0 0.66 0 1 0 C1 1.98 1 3.96 1 6 C3.97 6 6.94 6 10 6 C10 15.9 10 25.8 10 36 C2.08 36 -5.84 36 -14 36 C-11.76313007 29.2893902 -11.76313007 29.2893902 -9.43359375 25.8984375 C-1.46385597 14.02300175 -1.46385597 14.02300175 0 0 Z " fill="#DFDEDE" transform="translate(560,294)"/>
<path d="M0 0 C9.9 0 19.8 0 30 0 C30 4.62 30 9.24 30 14 C20.1 14 10.2 14 0 14 C0 9.38 0 4.76 0 0 Z " fill="#E5E5E5" transform="translate(390,526)"/>
<path d="M0 0 C9.9 0 19.8 0 30 0 C30 4.62 30 9.24 30 14 C20.1 14 10.2 14 0 14 C0 9.38 0 4.76 0 0 Z " fill="#FFFFFF" transform="translate(360,526)"/>
<path d="M0 0 C9.9 0 19.8 0 30 0 C30 4.62 30 9.24 30 14 C20.1 14 10.2 14 0 14 C0 9.38 0 4.76 0 0 Z " fill="#E5E5E5" transform="translate(330,526)"/>
<path d="M0 0 C9.9 0 19.8 0 30 0 C30 4.62 30 9.24 30 14 C20.1 14 10.2 14 0 14 C0 9.38 0 4.76 0 0 Z " fill="#FFFFFF" transform="translate(300,526)"/>
<path d="M0 0 C9.9 0 19.8 0 30 0 C30 4.62 30 9.24 30 14 C20.1 14 10.2 14 0 14 C0 9.38 0 4.76 0 0 Z " fill="#FFFFFF" transform="translate(240,526)"/>
<path d="M0 0 C9.9 0 19.8 0 30 0 C30 4.62 30 9.24 30 14 C20.1 14 10.2 14 0 14 C0 9.38 0 4.76 0 0 Z " fill="#FFFFFF" transform="translate(180,526)"/>
<path d="M0 0 C9.9 0 19.8 0 30 0 C30 4.62 30 9.24 30 14 C20.1 14 10.2 14 0 14 C0 9.38 0 4.76 0 0 Z " fill="#FFFFFF" transform="translate(390,60)"/>
<path d="M0 0 C9.9 0 19.8 0 30 0 C30 4.62 30 9.24 30 14 C20.1 14 10.2 14 0 14 C0 9.38 0 4.76 0 0 Z " fill="#E5E5E5" transform="translate(360,60)"/>
<path d="M0 0 C9.9 0 19.8 0 30 0 C30 4.62 30 9.24 30 14 C20.1 14 10.2 14 0 14 C0 9.38 0 4.76 0 0 Z " fill="#FFFFFF" transform="translate(330,60)"/>
<path d="M0 0 C9.9 0 19.8 0 30 0 C30 4.62 30 9.24 30 14 C20.1 14 10.2 14 0 14 C0 9.38 0 4.76 0 0 Z " fill="#E5E5E5" transform="translate(300,60)"/>
<path d="M0 0 C9.9 0 19.8 0 30 0 C30 4.62 30 9.24 30 14 C20.1 14 10.2 14 0 14 C0 9.38 0 4.76 0 0 Z " fill="#FFFFFF" transform="translate(270,60)"/>
<path d="M0 0 C9.9 0 19.8 0 30 0 C30 4.62 30 9.24 30 14 C20.1 14 10.2 14 0 14 C0 9.38 0 4.76 0 0 Z " fill="#E5E5E5" transform="translate(240,60)"/>
<path d="M0 0 C9.9 0 19.8 0 30 0 C30 4.62 30 9.24 30 14 C20.1 14 10.2 14 0 14 C0 9.38 0 4.76 0 0 Z " fill="#FFFFFF" transform="translate(210,60)"/>
<path d="M0 0 C9.9 0 19.8 0 30 0 C30 4.62 30 9.24 30 14 C20.1 14 10.2 14 0 14 C0 9.38 0 4.76 0 0 Z " fill="#E5E5E5" transform="translate(180,60)"/>
<path d="M0 0 C0.33 0.66 0.66 1.32 1 2 C-0.21484375 4.6015625 -0.21484375 4.6015625 -1.9375 7.625 C-2.50339844 8.62789063 -3.06929688 9.63078125 -3.65234375 10.6640625 C-4.09707031 11.43492187 -4.54179687 12.20578125 -5 13 C-4.34 13 -3.68 13 -3 13 C-3 22.9 -3 32.8 -3 43 C-9.93 43 -16.86 43 -24 43 C-22.57276207 38.7182862 -21.50558335 35.84263891 -19.27734375 32.12890625 C-18.74262451 31.23123535 -18.20790527 30.33356445 -17.65698242 29.40869141 C-17.08955322 28.46944824 -16.52212402 27.53020508 -15.9375 26.5625 C-15.35911377 25.59489746 -14.78072754 24.62729492 -14.18481445 23.63037109 C-12.46182606 20.75037249 -10.73136107 17.87497062 -9 15 C-8.04630018 13.40789627 -7.09312499 11.81547809 -6.140625 10.22265625 C-4.0996137 6.81154888 -2.05218323 3.40439699 0 0 Z " fill="#DCDCDC" transform="translate(483,437)"/>
<path d="M0 0 C0.33 0 0.66 0 1 0 C0.14812138 16.34261878 -0.93015903 32.67052055 -2 49 C-5.96 49 -9.92 49 -14 49 C-12.35260851 40.86990038 -9.97679298 32.98989857 -7.5625 25.0625 C-7.16310749 23.74293051 -6.76401715 22.42326951 -6.36523438 21.10351562 C-5.59809785 18.56608233 -4.82911471 16.02923449 -4.05908203 13.49267578 C-2.69618348 8.99806382 -1.34575658 4.49977004 0 0 Z " fill="#333C86" transform="translate(449,250)"/>
<path d="M0 0 C2.80955262 2.5064055 4.47111394 5.29934448 6.328125 8.55859375 C7.28138672 10.22245117 7.28138672 10.22245117 8.25390625 11.91992188 C8.91944065 13.09235154 9.58480466 14.26487793 10.25 15.4375 C11.54659516 17.70719113 12.84346894 19.97672313 14.140625 22.24609375 C14.77419922 23.36226074 15.40777344 24.47842773 16.06054688 25.62841797 C17.37907566 27.92057336 18.71093908 30.19254448 20.08007812 32.45361328 C20.72912109 33.53239746 21.37816406 34.61118164 22.046875 35.72265625 C22.63823242 36.69082275 23.22958984 37.65898926 23.83886719 38.65649414 C24.22204102 39.42985107 24.60521484 40.20320801 25 41 C24.67 41.66 24.34 42.32 24 43 C23.34 41.35 22.68 39.7 22 38 C16.39 38 10.78 38 5 38 C4.96132812 34.98166016 4.96132812 34.98166016 4.921875 31.90234375 C4.88012201 29.93299438 4.83822787 27.9636454 4.79248047 25.99438477 C4.76442157 24.63578578 4.74313256 23.27702814 4.72900391 21.91821289 C4.63332024 11.26955555 4.63332024 11.26955555 0 2 C0 1.34 0 0.68 0 0 Z " fill="#D8D8D8" transform="translate(85,382)"/>
<path d="M0 0 C2.99780587 2.99780587 3.27397753 6.79277381 4.1875 10.8125 C6.22350439 19.43413784 8.789146 27.76390952 11.7644043 36.10668945 C12.05484619 36.93644287 12.34528809 37.76619629 12.64453125 38.62109375 C12.90596924 39.3473999 13.16740723 40.07370605 13.43676758 40.82202148 C14.07356739 43.28447972 14.09638905 45.4669402 14 48 C10.74696956 49.62651522 7.60774398 49.11453156 4 49 C2.04838757 47.04838757 2.63175558 43.37783814 2.5 40.703125 C2.45939453 39.95851013 2.41878906 39.21389526 2.37695312 38.44671631 C2.24688507 36.04802368 2.1231519 33.64905681 2 31.25 C1.83548987 28.130091 1.66833 25.01033008 1.5 21.890625 C1.4594751 21.13309937 1.4189502 20.37557373 1.37719727 19.59509277 C1.0199445 13.05453735 0.54422902 6.52785336 0 0 Z " fill="#374089" transform="translate(383,250)"/>
<path d="M0 0 C1.5 1.375 1.5 1.375 3 3 C3 3.66 3 4.32 3 5 C8.28 5 13.56 5 19 5 C19.01417969 6.84464844 19.02835937 8.68929687 19.04296875 10.58984375 C19.08988912 13.0390869 19.13813638 15.48830488 19.1875 17.9375 C19.19330078 19.14986328 19.19910156 20.36222656 19.20507812 21.61132812 C19.3756512 28.60482418 20.0418872 33.49169975 24.0324707 39.33032227 C24.35175537 39.88131592 24.67104004 40.43230957 25 41 C24.67 41.66 24.34 42.32 24 43 C21.20987924 38.26836664 18.42574798 33.53325875 15.64453125 28.79638672 C14.48241497 26.82030598 13.31814304 24.8454922 12.15234375 22.87158203 C10.22261352 19.60419789 8.29848977 16.33356089 6.375 13.0625 C5.74706543 12.00224609 5.11913086 10.94199219 4.47216797 9.84960938 C3.89096191 8.85896484 3.30975586 7.86832031 2.7109375 6.84765625 C1.92662354 5.5174646 1.92662354 5.5174646 1.12646484 4.16040039 C0 2 0 2 0 0 Z " fill="#D7D7D7" transform="translate(491,175)"/>
<path d="M0 0 C0.33 0.66 0.66 1.32 1 2 C-0.0355834 4.17642531 -1.12205549 6.20762632 -2.33203125 8.28515625 C-2.68383957 8.90144394 -3.03564789 9.51773163 -3.39811707 10.1526947 C-4.14508867 11.4569651 -4.89604733 12.7589588 -5.65063477 14.05883789 C-6.80664434 16.05240179 -7.94813257 18.05375047 -9.08789062 20.05664062 C-9.81425257 21.32080219 -10.54143895 22.58449049 -11.26953125 23.84765625 C-11.6123262 24.44868668 -11.95512115 25.0497171 -12.30830383 25.66896057 C-14.76898192 29.88449096 -14.76898192 29.88449096 -17 31 C-15.125 25.125 -15.125 25.125 -14 24 C-13.84313751 22.44051458 -13.74923361 20.87457332 -13.68359375 19.30859375 C-13.64169922 18.36435547 -13.59980469 17.42011719 -13.55664062 16.44726562 C-13.49766602 14.95743164 -13.49766602 14.95743164 -13.4375 13.4375 C-13.39431641 12.44041016 -13.35113281 11.44332031 -13.30664062 10.41601562 C-13.20019833 7.94418889 -13.09956241 5.4721134 -13 3 C-9.04 3 -5.08 3 -1 3 C-0.67 2.01 -0.34 1.02 0 0 Z " fill="#D4D4D4" transform="translate(73,237)"/>
<path d="M0 0 C0.33 0.66 0.66 1.32 1 2 C0.24733983 3.17182457 -0.55503339 4.31174474 -1.375 5.4375 C-5.73043732 12.74884353 -4.90757496 21.74056216 -5 30 C-8.96 30.33 -12.92 30.66 -17 31 C-15.49539438 25.6708382 -13.02587411 21.32357511 -10.1875 16.625 C-9.76146484 15.90828125 -9.33542969 15.1915625 -8.89648438 14.453125 C-5.99747003 9.59365769 -3.01590246 4.78763407 0 0 Z " fill="#D4D3D3" transform="translate(545,330)"/>
<path d="M0 0 C2.98682849 3.73353561 5.37332774 7.09942059 7.75 11.1875 C8.67039062 12.75564453 8.67039062 12.75564453 9.609375 14.35546875 C11 17 11 17 11 19 C7.37 19 3.74 19 0 19 C0 12.73 0 6.46 0 0 Z " fill="#FEFEFE" transform="translate(60,341)"/>
<path d="M0 0 C0.33 0.66 0.66 1.32 1 2 C0.21142578 3.78759766 0.21142578 3.78759766 -1.0546875 5.9140625 C-1.72951172 7.05488281 -1.72951172 7.05488281 -2.41796875 8.21875 C-2.89878906 9.0128125 -3.37960938 9.806875 -3.875 10.625 C-4.34808594 11.42679688 -4.82117188 12.22859375 -5.30859375 13.0546875 C-7.89309774 17.38428392 -7.89309774 17.38428392 -9 19 C-9.33 19 -9.66 19 -10 19 C-10 13.72 -10 8.44 -10 3 C-7.03 3 -4.06 3 -1 3 C-0.67 2.01 -0.34 1.02 0 0 Z " fill="#D3D2D2" transform="translate(160,87)"/>
<path d="M0 0 C0.33 0.66 0.66 1.32 1 2 C0.071875 3.36125 0.071875 3.36125 -0.875 4.75 C-4.26132571 10.22650606 -3.8264775 16.74451378 -4 23 C-6.97 23.33 -9.94 23.66 -13 24 C-11.20469881 18.95263894 -8.55008635 14.40609448 -5.9375 9.75 C-5.47794922 8.92242187 -5.01839844 8.09484375 -4.54492188 7.2421875 C-1.13705937 1.13705937 -1.13705937 1.13705937 0 0 Z " fill="#CECECE" transform="translate(454,487)"/>
<path d="M0 0 C8 8 8 8 8 13 C5.36 13 2.72 13 0 13 C0 8.71 0 4.42 0 0 Z " fill="#FDFDFD" transform="translate(150,497)"/>
<path d="M0 0 C2.31 0 4.62 0 7 0 C7 3.96 7 7.92 7 12 C0 3.55172414 0 3.55172414 0 0 Z " fill="#FDFDFD" transform="translate(443,90)"/>
</svg>
