<?xml version="1.0" encoding="utf-8"?>
<!-- Generator: Adobe Illustrator 26.0.3, SVG Export Plug-In . SVG Version: 6.00 Build 0)  -->
<svg version="1.0" id="katman_1" xmlns="http://www.w3.org/2000/svg" xmlns:xlink="http://www.w3.org/1999/xlink" x="0px" y="0px"
	 viewBox="0 0 800 600" style="enable-background:new 0 0 800 600;" xml:space="preserve">
<style type="text/css">
	.st0{fill:#010202;}
	.st1{opacity:0.66;fill:#010202;enable-background:new    ;}
</style>
<path class="st0" d="M486.2,457.3v61.9h43.2v-61.9H486.2z M522.2,512.1h-28.9v-27.3h20.2v-10h8.6v37.3H522.2z"/>
<path class="st0" d="M502.1,491.9h11.6v13h-11.6V491.9z"/>
<path class="st1" d="M362.4,476.1h-5.7v10h-4.3v5.9h4.3v20.2h11.6v-5.9h-5.9v-14.3h5.9V486h-5.9V476.1z M376.8,491.9h14.5v4.3h-20.2
	v15.9H397V486h-20.2C376.8,486,376.8,491.9,376.8,491.9z M391.3,506.2h-14.5v-4.3h14.5V506.2z M399.8,486h5.7v25.9h-5.7V486z
	 M332.2,486h-4.3v26.1h5.7v-20.2h10v20.2h5.9V486H345L332.2,486z M270.3,486v26.1h25.9v-5.9H276v-14.3h20.2V486h-21.6H270.3z
	 M299,491.1v20.8h25.9V486H299C299,486,299,491.1,299,491.1z M304.9,491.9h14.5v14.5h-14.5V491.9z M399.8,476.1h5.7v5.7h-5.7V476.1z
	 M466,486h-5.7v26.1h5.7v-20.2h15.9V486L466,486z M413.5,486h-5.1v26.1h5.9v-20.2h10v20.2h5.7V486h-4.9H413.5z M433,486v25.9h21.6
	v-5.7h-15.9v-4.3h18.7V486C457.5,486,433,486,433,486z M438.7,491.9h13v4.3h-13C438.7,496.2,438.7,491.9,438.7,491.9z"/>
<path class="st0" d="M270.7,79.9v370.3H529V79.9H270.7z M486,407.2H313.7V243.5h120.6v-60.3H486C486,183.2,486,407.2,486,407.2z"/>
<path class="st0" d="M365.4,286.7h68.8v77.6h-68.8V286.7z"/>
</svg>
