<?xml version="1.0" encoding="UTF-8"?>
<svg version="1.1" xmlns="http://www.w3.org/2000/svg" width="200" height="200">
<path d="M0 0 C66 0 132 0 200 0 C200 66 200 132 200 200 C134 200 68 200 0 200 C0 134 0 68 0 0 Z " fill="#FDFEFE" transform="translate(0,0)"/>
<path d="M0 0 C3.39702223 2.22970571 5.72812279 4.59218419 8 8 C9.16402463 14.10193966 7.69356947 18.78965823 4.5 23.98828125 C1.59594145 27.88304728 -1.9719549 30.3146366 -6 33 C-10.29579338 33.48815834 -13.09352786 32.64552647 -16.98046875 30.8671875 C-27.81743939 26.21378811 -40.1045702 24.77414304 -51.3125 28.9375 C-66.73343135 36.30642827 -77.12444319 51.73848547 -82.87890625 67.390625 C-84.1625128 71.95056994 -84.1674116 76.31247517 -84 81 C-67.60029068 83.39242818 -51.15047431 82.48847178 -35 79 C-33.71480469 78.74476562 -32.42960937 78.48953125 -31.10546875 78.2265625 C-14.5317774 74.56590929 1.01123331 67.11809101 16.30371094 59.91918945 C25.23350083 55.78317765 34.7229951 53.02047471 44.52734375 55.6875 C49.78708091 57.78789421 53.06390599 60.1370943 56 65 C57.84588735 71.218333 56.97866846 76.32931319 54 82 C50.70354478 87.45182979 45.06918896 90.70376642 39.0625 92.6171875 C28.4502767 94.58688046 18.98150227 91.94843285 8.796875 89.24609375 C-9.82345431 84.32167906 -27.68494517 83.99898554 -45.01171875 93.078125 C-57.42471519 101.06138546 -66.5395595 114.05879058 -71 128 C-71.58310087 131.05372086 -71.84426985 133.88539701 -72 137 C-71.16339844 137.26683594 -70.32679687 137.53367188 -69.46484375 137.80859375 C-65.11297405 139.30500892 -60.88489742 141.0712618 -56.65429688 142.87695312 C-41.39700911 149.16490009 -21.28559059 147.52539818 -6 142 C-5.12472656 141.63390625 -4.24945313 141.2678125 -3.34765625 140.890625 C0.10360378 139.58132835 3.39305965 139.40938988 7 140 C10.5 141.875 10.5 141.875 13 144 C13 144.66 13 145.32 13 146 C13.66 146 14.32 146 15 146 C17.0088583 150.14327024 17.40215934 153.41538356 17 158 C13.79955946 167.22479921 5.46281181 171.13749516 -2.74633789 175.16601562 C-26.50510022 186.39277337 -54.07860267 186.98977682 -78.83203125 178.421875 C-87.01549003 175.33014921 -94.09084757 171.40099789 -101 166 C-102.37194293 165.05803193 -103.74665297 164.1200721 -105.125 163.1875 C-106.07375 162.465625 -107.0225 161.74375 -108 161 C-108 160.34 -108 159.68 -108 159 C-108.82757813 158.66935547 -108.82757813 158.66935547 -109.671875 158.33203125 C-123.73938271 150.28333976 -133.23503976 130.6157686 -137.64160156 115.85009766 C-140.45994986 105.47670001 -141.3653136 95.22966312 -141.4375 84.5 C-141.44765137 83.4387793 -141.45780273 82.37755859 -141.46826172 81.28417969 C-141.25505655 62.04766793 -132.94005767 39.47031345 -120 25 C-119.34 25 -118.68 25 -118 25 C-117.74863281 24.42636719 -117.49726562 23.85273437 -117.23828125 23.26171875 C-108.41971095 7.15461401 -86.03815404 -2.45908295 -69.32885742 -7.49121094 C-67.55669787 -8.00849236 -65.77858614 -8.50526684 -64 -9 C-63.07199585 -9.27154907 -63.07199585 -9.27154907 -62.12524414 -9.54858398 C-41.9820043 -13.82714234 -18.18679764 -8.9099585 0 0 Z " fill="#4AB8A2" transform="translate(143,13)"/>
<path d="M0 0 C66 0 132 0 200 0 C200 26.73 200 53.46 200 81 C199.34 80.01 198.68 79.02 198 78 C194.34256169 72.83655768 191.27191234 70.27998211 185 69 C173.27871677 67.73662816 164.06349063 71.90519999 153.63916016 76.59692383 C129.25774389 87.53920081 105.52696816 96.2301633 78.5 96.125 C77.00919922 96.13080078 77.00919922 96.13080078 75.48828125 96.13671875 C60.11641245 96.11641245 60.11641245 96.11641245 58 94 C57.05414727 80.99452502 62.97422472 67.6542798 71.39453125 57.91015625 C80.14036618 48.27764681 87.94816853 40.23942266 101.453125 38.57421875 C111.60825659 38.19610215 120.5144597 40.56402638 130 44 C130.33 44.33 130.66 44.66 131 45 C135.20480523 45.71789358 137.64501057 44.90555146 141.0625 42.5625 C145.94980092 38.5663576 149.28716031 33.87961422 150.44140625 27.59765625 C150.63266346 23.88973421 150.2939855 21.56240705 148.5625 18.25 C140.86717811 11.493132 130.89419226 8.06413321 121 6 C120.16984375 5.81308594 119.3396875 5.62617187 118.484375 5.43359375 C102.0134742 2.28474507 83.80665357 2.12785708 68 8 C66.97261719 8.36222656 65.94523437 8.72445313 64.88671875 9.09765625 C40.41950094 18.45930249 20.97342238 37.27218695 10.11132812 60.93603516 C3.54073062 76.15235535 1.59024404 91.55457978 1 108 C0.67 108 0.34 108 0 108 C0 72.36 0 36.72 0 0 Z " fill="#FEFEFE" transform="translate(0,0)"/>
<path d="M0 0 C1.64077515 0.0158313 1.64077515 0.0158313 3.31469727 0.03198242 C20.02741982 0.30698143 41.17194876 2.92194876 53.5625 15.3125 C56.28841578 19.40137367 56.29709588 22.51112076 55.5625 27.3125 C52.71326378 34.86970165 48.14997831 38.92084779 41.5625 43.3125 C37.26670662 43.80065834 34.46897214 42.95802647 30.58203125 41.1796875 C19.74506061 36.52628811 7.4579298 35.08664304 -3.75 39.25 C-18.05212434 46.08430371 -29.09097379 60.62633072 -34.4375 75.3125 C-35.82976634 80.24066261 -36.69279294 85.24849196 -37.4375 90.3125 C-45.96323133 89.34591999 -52.90881847 83.89895444 -58.19140625 77.26953125 C-64.91681739 66.70705168 -65.93846536 54.51584925 -63.36157227 42.46582031 C-60.95621069 32.43885396 -57.64901321 20.96790131 -49.1875 14.4375 C-34.24942644 5.43811012 -17.46863391 -0.29626197 0 0 Z " fill="#52BC9A" transform="translate(95.4375,2.6875)"/>
<path d="M0 0 C-0.2784375 0.68578125 -0.556875 1.3715625 -0.84375 2.078125 C-7.77688791 19.59835187 -12.65489761 34.77177506 -5 53 C-0.32246801 61.79960707 8.67811957 67.89270652 18 71 C34.31264224 73.56238407 50.93049052 72.47098353 67 69 C68.28519531 68.74476562 69.57039063 68.48953125 70.89453125 68.2265625 C87.4682226 64.56590929 103.01123331 57.11809101 118.30371094 49.91918945 C127.23350083 45.78317765 136.7229951 43.02047471 146.52734375 45.6875 C151.78708091 47.78789421 155.06390599 50.1370943 158 55 C159.84588735 61.218333 158.97866846 66.32931319 156 72 C152.70354478 77.45182979 147.06918896 80.70376642 141.0625 82.6171875 C130.4502767 84.58688046 120.98150227 81.94843285 110.796875 79.24609375 C92.49437158 74.4057327 75.17579841 73.92032062 58.19921875 82.875 C55.53951367 84.23555962 52.84938405 85.10956748 50 86 C48.52073187 86.64560089 47.04157884 87.29146556 45.5625 87.9375 C27.94576857 95.09096064 5.72805557 96.83737914 -12.25 90.25 C-21.15251545 86.34088264 -27.10895286 81.05845687 -31 72 C-34.62510263 59.92688457 -35.59549596 44.78072499 -29.9375 33.3125 C-28.67103109 31.18031096 -27.35914378 29.07434371 -26 27 C-25.36707031 25.92492187 -24.73414063 24.84984375 -24.08203125 23.7421875 C-19.54831513 16.18277171 -19.54831513 16.18277171 -16 15 C-15.31934819 13.67375141 -14.65536769 12.33892323 -14 11 C-12.57135012 9.41140639 -11.08694474 7.87190961 -9.5625 6.375 C-8.38880859 5.21097656 -8.38880859 5.21097656 -7.19140625 4.0234375 C-2.83397683 0 -2.83397683 0 0 0 Z " fill="#9ED9A9" transform="translate(41,23)"/>
<path d="M0 0 C0.33 0 0.66 0 1 0 C1 1.98 1 3.96 1 6 C2.25490234 6.40025391 2.25490234 6.40025391 3.53515625 6.80859375 C7.88702595 8.30500892 12.11510258 10.0712618 16.34570312 11.87695312 C31.60299089 18.16490009 51.71440941 16.52539818 67 11 C68.31291016 10.45085937 68.31291016 10.45085937 69.65234375 9.890625 C73.10360378 8.58132835 76.39305965 8.40938988 80 9 C83.5 10.875 83.5 10.875 86 13 C86 13.66 86 14.32 86 15 C86.66 15 87.32 15 88 15 C90.0088583 19.14327024 90.40215934 22.41538356 90 27 C86.47826175 37.15089261 76.5191323 41.0863616 67.546875 45.4609375 C64 47 64 47 61 47 C61 46.34 61 45.68 61 45 C60.35039307 45.01047363 59.70078613 45.02094727 59.03149414 45.03173828 C56.04186999 45.07372962 53.05230821 45.09946167 50.0625 45.125 C49.04091797 45.14175781 48.01933594 45.15851563 46.96679688 45.17578125 C34.01342282 45.25855041 20.58843618 42.37416945 11 33 C11 32.34 11 31.68 11 31 C10.34 31 9.68 31 9 31 C1.62702723 21.1625238 -0.55280671 12.10032472 0 0 Z " fill="#97D6A4" transform="translate(70,144)"/>
<path d="M0 0 C2.97 0 5.94 0 9 0 C9.08738991 4.37487331 9.140524 8.74952078 9.1875 13.125 C9.21263672 14.3625 9.23777344 15.6 9.26367188 16.875 C9.27333984 18.07382813 9.28300781 19.27265625 9.29296875 20.5078125 C9.3086792 21.60754395 9.32438965 22.70727539 9.34057617 23.84033203 C8.83226742 28.55612544 7.02001094 31.82544195 3.9375 35.375 C-0.24327402 37.68776861 -4.30731716 37.71428447 -9 37 C-9.66 36.34 -10.32 35.68 -11 35 C-10.525625 34.566875 -10.05125 34.13375 -9.5625 33.6875 C-7.76313043 31.97690387 -7.76313043 31.97690387 -7 29 C-5.02 28.34 -3.04 27.68 -1 27 C-0.67 18.09 -0.34 9.18 0 0 Z " fill="#252936" transform="translate(117,111)"/>
<path d="M0 0 C3.0625 1.0625 3.0625 1.0625 5 2 C4.01 3.98 3.02 5.96 2 8 C-1.3 7.34 -4.6 6.68 -8 6 C-7.67 6.99 -7.34 7.98 -7 9 C-4.99939943 9.91521187 -4.99939943 9.91521187 -2.625 10.5 C0.72459805 11.4165024 2.89730727 12.15012401 5 15 C5.67876033 18.07139051 5.56836931 20.91297452 5 24 C3.125 26.5625 3.125 26.5625 0 28 C-5.15763145 28.64157936 -9.42908623 28.63909571 -14 26 C-13.67 24.02 -13.34 22.04 -13 20 C-9.7 20.33 -6.4 20.66 -3 21 C-2.67 20.01 -2.34 19.02 -2 18 C-2.9075 17.87625 -3.815 17.7525 -4.75 17.625 C-7.62334269 17.0724341 -9.46592809 16.35517759 -12 15 C-12.08075665 12.70890403 -12.13907731 10.41700733 -12.1875 8.125 C-12.22230469 6.84882812 -12.25710937 5.57265625 -12.29296875 4.2578125 C-12.19628906 3.18273437 -12.09960938 2.10765625 -12 1 C-7.81048275 -1.7930115 -4.79124832 -0.91461658 0 0 Z " fill="#212533" transform="translate(140,120)"/>
<path d="M0 0 C1.2375 0.1546875 1.2375 0.1546875 2.5 0.3125 C4.5 3.3125 4.5 3.3125 4.1875 5.9375 C3.5 8.3125 3.5 8.3125 2.5 9.3125 C-0.5 9.4375 -0.5 9.4375 -3.5 9.3125 C-4.5 8.3125 -4.5 8.3125 -4.6875 5.375 C-4.45331344 1.54995285 -3.86571441 0.4832143 0 0 Z " fill="#212432" transform="translate(102.5,133.6875)"/>
<path d="M0 0 C-2.39509338 2.89932357 -4.31245243 3.50168276 -8 4 C-7.67 3.01 -7.34 2.02 -7 1 C-4.53721199 -0.231394 -2.7204945 -0.07159196 0 0 Z " fill="#76CC94" transform="translate(139,187)"/>
</svg>
