<?xml version="1.0" encoding="UTF-8"?>
<svg version="1.1" xmlns="http://www.w3.org/2000/svg" width="460" height="460">
<path d="M0 0 C151.8 0 303.6 0 460 0 C460 151.8 460 303.6 460 460 C308.2 460 156.4 460 0 460 C0 308.2 0 156.4 0 0 Z " fill="#24184C" transform="translate(0,0)"/>
<path d="M0 0 C96.03 0 192.06 0 291 0 C291 94.38 291 188.76 291 286 C194.97 286 98.94 286 0 286 C0 191.62 0 97.24 0 0 Z " fill="#FCFCFC" transform="translate(84,87)"/>
<path d="M0 0 C151.8 0 303.6 0 460 0 C460 151.8 460 303.6 460 460 C308.2 460 156.4 460 0 460 C0 308.2 0 156.4 0 0 Z M25 26 C25 160.64 25 295.28 25 434 C159.64 434 294.28 434 433 434 C433 299.36 433 164.72 433 26 C298.36 26 163.72 26 25 26 Z " fill="#FDFDFE" transform="translate(0,0)"/>
<path d="M0 0 C47.85 0 95.7 0 145 0 C145 19.14 145 38.28 145 58 C116.62 58 88.24 58 59 58 C59 94.96 59 131.92 59 170 C87.38 170 115.76 170 145 170 C145 189.14 145 208.28 145 228 C97.15 228 49.3 228 0 228 C0 152.76 0 77.52 0 0 Z " fill="#777977" transform="translate(113,116)"/>
<path d="M0 0 C19.47 0 38.94 0 59 0 C59 46.2 59 92.4 59 140 C39.53 140 20.06 140 0 140 C0 93.8 0 47.6 0 0 Z " fill="#271C4F" transform="translate(287,204)"/>
<path d="M0 0 C19.47 0 38.94 0 59 0 C59 19.14 59 38.28 59 58 C39.53 58 20.06 58 0 58 C0 38.86 0 19.72 0 0 Z " fill="#281D4F" transform="translate(287,116)"/>
</svg>
