<?xml version="1.0" encoding="UTF-8"?>
<svg version="1.1" xmlns="http://www.w3.org/2000/svg" width="933" height="675">
<path d="M0 0 C236.28 0 472.56 0 716 0 C713.31031678 2.01726241 711.28675521 3.47450354 708.3828125 4.91015625 C693.45996573 12.44822904 681.01566178 21.40594039 669 33 C668.28328125 33.66515625 667.5665625 34.3303125 666.828125 35.015625 C652.48818129 48.66725141 642.36544873 66.2543824 634 84 C633.64969727 84.72864258 633.29939453 85.45728516 632.93847656 86.20800781 C619.9059588 113.40885126 611.83795558 142.15055886 603.80310059 171.11053467 C602.14466254 177.0774077 600.47072714 183.03995644 598.80001831 189.00340271 C596.18834553 198.3323973 593.59604964 207.66658344 591 217 C574.5 217.33 558 217.66 541 218 C539.72125 222.51171875 538.4425 227.0234375 537.125 231.671875 C536.29560473 234.59766528 535.46619191 237.52345056 534.63671875 240.44921875 C533.33137817 245.05350148 532.02608901 249.65779873 530.72119141 254.26220703 C528.42347416 262.36961962 526.12441196 270.47664753 523.82209778 278.58275604 C522.81268729 282.13683713 521.80394267 285.69110389 520.796875 289.24584961 C519.67928564 293.19056904 518.5585458 297.13438646 517.4375 301.078125 C517.10290771 302.2608197 516.76831543 303.4435144 516.42358398 304.66204834 C516.11751221 305.73682434 515.81144043 306.81160034 515.49609375 307.91894531 C515.22982178 308.85716125 514.9635498 309.7953772 514.68920898 310.76202393 C514 313 514 313 513 315 C529.17 315 545.34 315 562 315 C561.31047799 320.51617606 560.5025066 325.40170882 558.98828125 330.66577148 C558.78389246 331.39404428 558.57950367 332.12231707 558.36892128 332.87265873 C557.68891682 335.29038368 557.00070888 337.70569259 556.3125 340.12109375 C555.82185893 341.85943216 555.33175026 343.59792092 554.84213257 345.33654785 C553.78846711 349.07394466 552.73119734 352.81029568 551.67108154 356.54586792 C549.97501378 362.52253324 548.28693649 368.50143728 546.60009766 374.48071289 C544.54070909 381.77866882 542.47950238 389.07610618 540.41589546 396.37287045 C536.79336037 409.18256446 533.18466973 421.99609963 529.5859375 434.8125 C529.32779078 435.731842 529.06964405 436.65118401 528.8036747 437.59838486 C527.50884777 442.21002986 526.21431639 446.82175776 524.91995239 451.43353271 C523.3717428 456.94954033 521.82258211 462.46528053 520.27319336 467.98095703 C513.52563033 492.00196039 506.78058293 516.02367024 500.0401001 540.04666138 C499.07769487 543.476629 498.11509012 546.90654051 497.15228271 550.33639526 C496.02200649 554.36289909 494.89222843 558.38954242 493.76278114 562.41627884 C493.36072687 563.84943641 492.95853114 565.28255432 492.55614281 566.71561813 C487.66581647 584.1331225 482.84196595 601.56892258 478 619 C518.59 619 559.18 619 601 619 C601.66 615.7 602.32 612.4 603 609 C603.62719095 606.53822336 604.28389825 604.08373132 604.97338867 601.63867188 C605.16159494 600.96725694 605.34980122 600.295842 605.54371071 599.60408115 C606.16492842 597.39129237 606.79143508 595.18003891 607.41796875 592.96875 C607.86749806 591.37146801 608.31668195 589.77408878 608.76554871 588.17662048 C609.72920302 584.74977057 610.69518399 581.32358853 611.6630249 577.8979187 C613.21542172 572.40312209 614.76264113 566.90687573 616.30908203 561.41040039 C618.19728368 554.70039878 620.08665122 547.99072772 621.97754288 541.28148365 C625.2475415 529.67834502 628.50806134 518.07257459 631.76171875 506.46484375 C632.10997994 505.22243329 632.10997994 505.22243329 632.46527672 503.95492363 C633.40115955 500.61607431 634.33697847 497.27720709 635.2726965 493.93831158 C637.87032367 484.66936917 640.47013362 475.40103936 643.0703125 466.1328125 C643.30805201 465.28538546 643.54579151 464.43795841 643.79073524 463.56485176 C649.67221266 442.60069505 655.55827677 421.63782647 661.44593048 400.67540359 C662.23148692 397.87841613 663.01696878 395.08140774 663.8024292 392.28439331 C666.47697951 382.76066175 669.15289074 373.23731525 671.83135796 363.71468449 C673.34108916 358.34631272 674.84805158 352.97717049 676.3535347 347.60760593 C677.37921643 343.95074829 678.40655658 340.29435788 679.43425751 336.63806725 C679.9224676 334.89975457 680.40997102 333.16124326 680.89673615 331.42252541 C681.56569894 329.03335623 682.23713802 326.64489644 682.90917969 324.2565918 C683.10728493 323.54673063 683.30539017 322.83686947 683.5094986 322.10549736 C684.88598098 317.22803805 684.88598098 317.22803805 686 315 C686.84508118 315.03188416 687.69016235 315.06376831 688.56085205 315.09661865 C696.61909095 315.38217819 704.67249091 315.56687258 712.73550797 315.64509201 C716.87953146 315.68867258 721.0157487 315.76791253 725.15673828 315.93603516 C745.42738387 317.27755903 745.42738387 317.27755903 763.47851562 309.67382812 C767.82775227 305.60935105 771.51029291 301.1678013 775.07301331 296.40991211 C777.97801995 292.77687681 781.40973972 289.92985079 785 287 C787.73715373 284.54890424 790.40883513 282.04102164 793.0625 279.5 C793.75021484 278.87480469 794.43792969 278.24960937 795.14648438 277.60546875 C795.79037109 276.98285156 796.43425781 276.36023438 797.09765625 275.71875 C797.68039307 275.17154297 798.26312988 274.62433594 798.86352539 274.06054688 C800.934109 270.30636306 799.43281107 266.57045103 798.3558197 262.66259766 C797.55192853 259.95576681 796.70214942 257.26690459 795.83984375 254.578125 C795.53051407 253.59632263 795.22118439 252.61452026 794.90248108 251.60296631 C793.91931333 248.48365178 792.92911406 245.36663891 791.9375 242.25 C790.94274239 239.11895176 789.94963343 235.98742939 788.96180725 232.85418701 C788.34832148 230.90857531 787.73080394 228.96422939 787.10887146 227.02130127 C786.83180862 226.14318787 786.55474579 225.26507446 786.26928711 224.36035156 C786.02359482 223.58870667 785.77790253 222.81706177 785.52476501 222.02203369 C785 220 785 220 785 217 C761.57 217 738.14 217 714 217 C716.25058077 205.74709617 716.25058077 205.74709617 717.60058594 201.00976562 C717.90140076 199.94745728 718.20221558 198.88514893 718.512146 197.79064941 C718.99339935 196.1153717 718.99339935 196.1153717 719.484375 194.40625 C719.82245178 193.22011108 720.16052856 192.03397217 720.5088501 190.81188965 C721.22302801 188.3102342 721.93918925 185.80914419 722.65722656 183.30859375 C723.73831694 179.54071845 724.81101257 175.77052709 725.8828125 172 C728.86843107 161.5389115 731.8632923 151.08333529 735.26953125 140.75 C735.49094788 140.07215454 735.7123645 139.39430908 735.94049072 138.69592285 C742.11669083 120.42555484 752.33518072 102.89383113 770 94 C790.88934001 84.81173623 813.90323945 83.33283082 836 89 C838.475 89.99 838.475 89.99 841 91 C841 283.72 841 476.44 841 675 C599.44 675 357.88 675 109 675 C110.3081108 668.45944601 111.68528083 662.16550971 113.52197266 655.78662109 C113.76610397 654.92684662 114.01023529 654.06707214 114.26176453 653.1812439 C115.05884067 650.37757592 115.86139536 647.57550941 116.6640625 644.7734375 C117.22205132 642.81484528 117.77969359 640.8561543 118.33700562 638.89736938 C119.7966798 633.77055642 121.26102457 628.64508921 122.72637939 623.51989746 C124.22408094 618.27839982 125.71731536 613.03563002 127.2109375 607.79296875 C130.13627921 597.527403 133.06656167 587.2632548 136 577 C137.32 576.67 138.64 576.34 140 576 C140.3403125 576.75023437 140.680625 577.50046875 141.03125 578.2734375 C150.66467571 598.61636308 166.41188401 610.92954349 187.30200195 618.50512695 C197.00574243 621.84289462 206.92580586 624.10202026 217 626 C217.68610352 626.13277344 218.37220703 626.26554688 219.07910156 626.40234375 C263.491389 634.53964397 309.75664745 623.92648054 349 603 C349.64888184 602.65888184 350.29776367 602.31776367 350.96630859 601.96630859 C365.67459233 594.19022261 379.25677333 584.68915414 392 574 C392.49999512 573.58878906 392.99999023 573.17757812 393.51513672 572.75390625 C406.36194942 562.17913647 418.64896871 550.73080357 428.94140625 537.6171875 C431.15698224 534.80042107 433.47945004 532.09504877 435.8125 529.375 C481.15142817 474.87033172 509.21531237 401.18109585 505 330 C504.25983826 322.19595393 502.84000362 314.61322597 501 307 C500.82871582 306.25089355 500.65743164 305.50178711 500.48095703 304.72998047 C495.34656903 282.79662464 484.33826867 264.26455842 469 248 C468.38769531 247.32324219 467.77539062 246.64648438 467.14453125 245.94921875 C450.08894821 227.80266024 426.13671368 218.07313648 402.4375 212.25 C401.63602539 212.05116211 400.83455078 211.85232422 400.00878906 211.64746094 C386.31772681 208.46615791 372.63038563 207.61610044 358.625 207.6875 C357.4749649 207.69073273 357.4749649 207.69073273 356.30169678 207.69403076 C344.95653679 207.74511248 334.0277615 208.15881978 323 211 C322.195625 211.19867676 321.39125 211.39735352 320.5625 211.60205078 C283.46595949 220.92507066 244.93449655 239.82573096 218.28515625 267.85546875 C216 270 216 270 213 270 C215.60957901 259.24709953 218.46031483 248.58284278 221.51928711 237.94921875 C222.20068593 235.57913589 222.87694399 233.20762495 223.55273438 230.8359375 C223.98668297 229.32022767 224.42091643 227.80459936 224.85546875 226.2890625 C225.05649704 225.58399567 225.25752533 224.87892883 225.46464539 224.15249634 C226.88456993 219.23086015 226.88456993 219.23086015 228 217 C190.38 217 152.76 217 114 217 C113.67 219.31 113.34 221.62 113 224 C112.41013829 226.3929622 111.77653332 228.77540647 111.10839844 231.14770508 C110.91716809 231.8313595 110.72593775 232.51501392 110.52891254 233.21938515 C109.8933401 235.48732532 109.25139432 237.75340843 108.609375 240.01953125 C108.15290433 241.64304883 107.69681318 243.26667316 107.24107361 244.89039612 C106.0075534 249.28066632 104.76836213 253.6693174 103.52804184 258.05767059 C102.48065108 261.76618948 101.43660544 265.47564653 100.39260006 269.18511963 C92.6750436 296.60608031 84.9067705 324.01275379 77.11889648 351.41381836 C70.16115636 375.89459809 63.23135803 400.38320379 56.3125 424.875 C56.04176792 425.83333614 55.77103584 426.79167229 55.49209976 427.77904892 C53.01077065 436.56250757 50.52957667 445.34600438 48.04859924 454.12956238 C44.36338895 467.1761493 40.67578043 480.22205657 36.98666573 493.26753998 C24.94960849 535.83343384 12.92568754 578.4027453 1 621 C0.67 621 0.34 621 0 621 C0 416.07 0 211.14 0 0 Z " fill="#1474CE" transform="translate(30,0)"/>
<path d="M0 0 C0 192.72 0 385.44 0 584 C-241.56 584 -483.12 584 -732 584 C-730.6918892 577.45944601 -729.31471917 571.16550971 -727.47802734 564.78662109 C-727.11183037 563.49695938 -727.11183037 563.49695938 -726.73823547 562.1812439 C-725.94115933 559.37757592 -725.13860464 556.57550941 -724.3359375 553.7734375 C-723.77794868 551.81484528 -723.22030641 549.8561543 -722.66299438 547.89736938 C-721.2033202 542.77055642 -719.73897543 537.64508921 -718.27362061 532.51989746 C-716.77591906 527.27839982 -715.28268464 522.03563002 -713.7890625 516.79296875 C-710.86372079 506.527403 -707.93343833 496.2632548 -705 486 C-703.68 485.67 -702.36 485.34 -701 485 C-700.6596875 485.75023437 -700.319375 486.50046875 -699.96875 487.2734375 C-690.33532429 507.61636308 -674.58811599 519.92954349 -653.69799805 527.50512695 C-643.99425757 530.84289462 -634.07419414 533.10202026 -624 535 C-623.31389648 535.13277344 -622.62779297 535.26554688 -621.92089844 535.40234375 C-577.508611 543.53964397 -531.24335255 532.92648054 -492 512 C-491.35111816 511.65888184 -490.70223633 511.31776367 -490.03369141 510.96630859 C-475.32540767 503.19022261 -461.74322667 493.68915414 -449 483 C-448.50000488 482.58878906 -448.00000977 482.17757813 -447.48486328 481.75390625 C-434.63805058 471.17913647 -422.35103129 459.73080357 -412.05859375 446.6171875 C-409.84301776 443.80042107 -407.52054996 441.09504877 -405.1875 438.375 C-372.27296767 398.80644956 -350.31993678 350.23403812 -340 300 C-339.78827148 298.99291992 -339.57654297 297.98583984 -339.35839844 296.94824219 C-337.00544142 285.30278299 -335.85187204 274.05883348 -336.07421875 262.19921875 C-336.08924438 261.25708023 -336.10427002 260.31494171 -336.11975098 259.34425354 C-336.20487618 254.61625761 -336.35061919 249.90085513 -336.58642578 245.17797852 C-336.63821753 243.4259783 -336.68888578 241.67394441 -336.73828125 239.921875 C-336.79747238 239.12500778 -336.85666351 238.32814056 -336.91764832 237.50712585 C-336.98224939 233.87094242 -336.64029169 231.80676411 -334.34544373 228.91526794 C-328.4369239 223.6848665 -323.28500682 223.04047969 -315.62109375 223.31640625 C-314.56841812 223.32631088 -313.51574249 223.33621552 -312.4311676 223.34642029 C-309.0984736 223.3853261 -305.7691831 223.47310574 -302.4375 223.5625 C-300.16606349 223.59764451 -297.89457489 223.62957798 -295.62304688 223.65820312 C-290.08088762 223.73500867 -284.540687 223.85185483 -279 224 C-279.57267171 229.38735867 -280.51243109 234.45363831 -282.01171875 239.66577148 C-282.31830194 240.75818067 -282.31830194 240.75818067 -282.63107872 241.87265873 C-283.31108318 244.29038368 -283.99929112 246.70569259 -284.6875 249.12109375 C-285.17814107 250.85943216 -285.66824974 252.59792092 -286.15786743 254.33654785 C-287.21153289 258.07394466 -288.26880266 261.81029568 -289.32891846 265.54586792 C-291.02498622 271.52253324 -292.71306351 277.50143728 -294.39990234 283.48071289 C-296.45929091 290.77866882 -298.52049762 298.07610618 -300.58410454 305.37287045 C-304.20663963 318.18256446 -307.81533027 330.99609963 -311.4140625 343.8125 C-311.67220922 344.731842 -311.93035595 345.65118401 -312.1963253 346.59838486 C-313.49115223 351.21002986 -314.78568361 355.82175776 -316.08004761 360.43353271 C-317.6282572 365.94954033 -319.17741789 371.46528053 -320.72680664 376.98095703 C-327.47436967 401.00196039 -334.21941707 425.02367024 -340.9598999 449.04666138 C-341.92230513 452.476629 -342.88490988 455.90654051 -343.84771729 459.33639526 C-344.97799351 463.36289909 -346.10777157 467.38954242 -347.23721886 471.41627884 C-347.63927313 472.84943641 -348.04146886 474.28255432 -348.44385719 475.71561813 C-353.33418353 493.1331225 -358.15803405 510.56892258 -363 528 C-322.41 528 -281.82 528 -240 528 C-239.34 524.7 -238.68 521.4 -238 518 C-237.37280905 515.53822336 -236.71610175 513.08373132 -236.02661133 510.63867188 C-235.83840506 509.96725694 -235.65019878 509.295842 -235.45628929 508.60408115 C-234.83507158 506.39129237 -234.20856492 504.18003891 -233.58203125 501.96875 C-233.13250194 500.37146801 -232.68331805 498.77408878 -232.23445129 497.17662048 C-231.27079698 493.74977057 -230.30481601 490.32358853 -229.3369751 486.8979187 C-227.78457828 481.40312209 -226.23735887 475.90687573 -224.69091797 470.41040039 C-222.80271632 463.70039878 -220.91334878 456.99072772 -219.02245712 450.28148365 C-215.7524585 438.67834502 -212.49193866 427.07257459 -209.23828125 415.46484375 C-208.89002006 414.22243329 -208.89002006 414.22243329 -208.53472328 412.95492363 C-207.59884045 409.61607431 -206.66302153 406.27720709 -205.7273035 402.93831158 C-203.12967633 393.66936917 -200.52986638 384.40103936 -197.9296875 375.1328125 C-197.69194799 374.28538546 -197.45420849 373.43795841 -197.20926476 372.56485176 C-191.32778734 351.60069505 -185.44172323 330.63782647 -179.55406952 309.67540359 C-178.76851308 306.87841613 -177.98303122 304.08140774 -177.1975708 301.28439331 C-174.52302049 291.76066175 -171.84710926 282.23731525 -169.16864204 272.71468449 C-167.65891084 267.34631272 -166.15194842 261.97717049 -164.6464653 256.60760593 C-163.62078357 252.95074829 -162.59344342 249.29435788 -161.56574249 245.63806725 C-161.0775324 243.89975457 -160.59002898 242.16124326 -160.10326385 240.42252541 C-159.43430106 238.03335623 -158.76286198 235.64489644 -158.09082031 233.2565918 C-157.89271507 232.54673063 -157.69460983 231.83686947 -157.4905014 231.10549736 C-156.11401902 226.22803805 -156.11401902 226.22803805 -155 224 C-154.15491882 224.03188416 -153.30983765 224.06376831 -152.43914795 224.09661865 C-144.38090905 224.38217819 -136.32750909 224.56687258 -128.26449203 224.64509201 C-124.12046854 224.68867258 -119.9842513 224.76791253 -115.84326172 224.93603516 C-95.57261613 226.27755903 -95.57261613 226.27755903 -77.52148438 218.67382812 C-73.17224773 214.60935105 -69.48970709 210.1678013 -65.92698669 205.40991211 C-63.02198005 201.77687681 -59.59026028 198.92985079 -56 196 C-53.26284627 193.54890424 -50.59116487 191.04102164 -47.9375 188.5 C-47.24978516 187.87480469 -46.56207031 187.24960937 -45.85351562 186.60546875 C-45.20962891 185.98285156 -44.56574219 185.36023438 -43.90234375 184.71875 C-43.31960693 184.17154297 -42.73687012 183.62433594 -42.13647461 183.06054688 C-40.065891 179.30636306 -41.56718893 175.57045103 -42.6441803 171.66259766 C-43.44807147 168.95576681 -44.29785058 166.26690459 -45.16015625 163.578125 C-45.46948593 162.59632263 -45.77881561 161.61452026 -46.09751892 160.60296631 C-47.08068667 157.48365178 -48.07088594 154.36663891 -49.0625 151.25 C-50.05725761 148.11895176 -51.05036657 144.98742939 -52.03819275 141.85418701 C-52.65167852 139.90857531 -53.26919606 137.96422939 -53.89112854 136.02130127 C-54.16819138 135.14318787 -54.44525421 134.26507446 -54.73071289 133.36035156 C-54.97640518 132.58870667 -55.22209747 131.81706177 -55.47523499 131.02203369 C-56 129 -56 129 -56 126 C-79.43 126 -102.86 126 -127 126 C-124.74941923 114.74709617 -124.74941923 114.74709617 -123.39941406 110.00976562 C-123.09859924 108.94745728 -122.79778442 107.88514893 -122.487854 106.79064941 C-122.00660065 105.1153717 -122.00660065 105.1153717 -121.515625 103.40625 C-121.17754822 102.22011108 -120.83947144 101.03397217 -120.4911499 99.81188965 C-119.77697199 97.3102342 -119.06081075 94.80914419 -118.34277344 92.30859375 C-117.26168306 88.54071845 -116.18898743 84.77052709 -115.1171875 81 C-112.13156893 70.5389115 -109.1367077 60.08333529 -105.73046875 49.75 C-105.50905212 49.07215454 -105.2876355 48.39430908 -105.05950928 47.69592285 C-98.88330917 29.42555484 -88.66481928 11.89383113 -71 3 C-49.24048158 -6.57101539 -22.41755158 -8.96702063 0 0 Z " fill="#1B1275" transform="translate(871,91)"/>
<path d="M0 0 C13.55457886 12.84570231 19.65900977 29.17735335 20.15478516 47.56689453 C20.28079568 60.06826694 19.04806982 71.69705393 15.75 83.75 C15.5245752 84.58418457 15.29915039 85.41836914 15.06689453 86.27783203 C9.68719796 105.49938196 0.83500957 124.54374115 -12.25 139.75 C-12.98863281 140.61367188 -13.72726562 141.47734375 -14.48828125 142.3671875 C-16.69583604 144.8759458 -18.95655298 147.31975088 -21.25 149.75 C-21.92289063 150.48734375 -22.59578125 151.2246875 -23.2890625 151.984375 C-45.64426351 175.59548618 -77.19888891 187.40929993 -109.25 188.75 C-110.10207031 188.79125 -110.95414062 188.8325 -111.83203125 188.875 C-134.29374147 189.42705432 -157.20983613 185.06546459 -173.96484375 169.16015625 C-187.06344472 155.34505061 -191.79436446 137.31696428 -191.60131836 118.6472168 C-190.40002877 79.15534466 -172.02634488 42.64141029 -144.12890625 15.37890625 C-108.84992363 -16.83650121 -39.9410754 -34.0638601 0 0 Z " fill="#2B40B5" transform="translate(387.25,332.25)"/>
<path d="M0 0 C0 2.97 0 5.94 0 9 C-1.65 7.35 -3.3 5.7 -5 4 C-1.125 0 -1.125 0 0 0 Z " fill="#2B40B5" transform="translate(933,570)"/>
</svg>
