<?xml version="1.0" encoding="UTF-8"?>
<svg version="1.1" xmlns="http://www.w3.org/2000/svg" width="1382" height="1224">
<path d="M0 0 C456.06 0 912.12 0 1382 0 C1382 403.92 1382 807.84 1382 1224 C925.94 1224 469.88 1224 0 1224 C0 820.08 0 416.16 0 0 Z " fill="#FEFEFE" transform="translate(0,0)"/>
<path d="M0 0 C0.78786702 -0.00380567 1.57573404 -0.00761134 2.38747582 -0.01153234 C5.03764884 -0.0218702 7.68760855 -0.0179379 10.33779621 -0.01409245 C12.25301886 -0.01854366 14.16823967 -0.02385732 16.08345777 -0.02996117 C21.35460085 -0.04416565 26.62568503 -0.045804 31.89684451 -0.04536426 C37.57867668 -0.04701032 43.26048443 -0.06007289 48.94230366 -0.07155704 C61.36996828 -0.09442273 73.79761584 -0.10232936 86.22529864 -0.10738349 C93.98361863 -0.11063871 101.74193364 -0.11716013 109.50025082 -0.12438488 C130.97635513 -0.14395291 152.45245264 -0.1604372 173.92856598 -0.16326141 C174.95898761 -0.16340251 174.95898761 -0.16340251 176.01022585 -0.16354645 C178.79412465 -0.16392493 181.57802346 -0.16428892 184.36192227 -0.16464943 C186.45725855 -0.16492115 188.55259482 -0.16519782 190.6479311 -0.16547489 C191.34031093 -0.16556291 192.03269076 -0.16565094 192.7460518 -0.16574163 C214.49789009 -0.16864666 236.24963949 -0.19073856 258.00144672 -0.22699833 C282.43856221 -0.26773339 306.87560627 -0.29140046 331.31275922 -0.29172093 C344.25190017 -0.29230588 357.19092672 -0.30082232 370.13003826 -0.32971859 C381.14744485 -0.35420983 392.16469533 -0.36153055 403.18212178 -0.34647106 C408.80362432 -0.339293 414.42481845 -0.34019861 420.04628658 -0.36288166 C425.19405404 -0.38345432 430.34127564 -0.38088694 435.48903707 -0.36000682 C437.34975717 -0.35650868 439.21051651 -0.36143559 441.07118513 -0.37571125 C461.03811987 -0.51901181 461.03811987 -0.51901181 469.06928033 7.07406718 C474.26320931 12.61174971 475.44902236 17.7983792 475.40788555 25.30244064 C475.41139163 26.11116734 475.4148977 26.91989404 475.41851002 27.7531276 C475.42784442 30.4742419 475.42289544 33.19514313 475.41804218 35.91626644 C475.42177741 37.88241173 475.42637842 39.84855553 475.43177283 41.81469697 C475.44403395 47.22652298 475.4437387 52.63828731 475.44138408 58.05012405 C475.4409767 63.88324592 475.4520075 69.7163478 475.46149921 75.54946041 C475.47812716 86.98094167 475.48360957 98.4124023 475.48472397 109.84389464 C475.48567358 119.13385192 475.4897795 128.42380239 475.49612522 137.71375751 C475.49792029 140.38712554 475.49969992 143.06049358 475.50147498 145.73386163 C475.50213812 146.73075182 475.50213812 146.73075182 475.50281466 147.74778121 C475.51512446 166.44367118 475.52301565 185.13955883 475.52212811 203.83545303 C475.52208137 204.89294181 475.52208137 204.89294181 475.52203369 205.97179399 C475.52186747 209.54505017 475.52166939 213.11830634 475.52146427 216.69156251 C475.52142438 217.40123345 475.52138449 218.1109044 475.52134339 218.84208052 C475.52126252 220.2772084 475.52117892 221.71233629 475.52109261 223.14746417 C475.51986705 245.47660818 475.53488059 267.80569145 475.56223774 290.13481808 C475.59295542 315.21721413 475.61017043 340.29957027 475.6083113 365.38198632 C475.60756996 378.66421233 475.61317023 391.9463812 475.6346674 405.22859287 C475.65285175 416.53662821 475.6572491 427.844564 475.64364855 439.1526076 C475.63710511 444.9236875 475.63705142 450.69457628 475.65435505 456.46563816 C475.6700298 461.74769846 475.66727939 467.0294152 475.64978679 472.31146684 C475.64670454 474.22329245 475.65039511 476.13514336 475.66150694 478.04693917 C475.67560904 480.64509602 475.66505708 483.24204463 475.64839458 485.84016037 C475.65833094 486.5829878 475.6682673 487.32581523 475.67850477 488.09115258 C475.59124737 494.52356153 473.41664791 499.62706233 469.22092915 504.50224972 C468.57897602 505.04107784 467.9370229 505.57990597 467.27561665 506.13506222 C466.63881977 506.68935909 466.0020229 507.24365597 465.34592915 507.81474972 C460.26272584 511.16134264 455.11274538 511.55132933 449.17818546 511.52012444 C448.3891646 511.52393011 447.60014373 511.52773578 446.78721315 511.53165677 C444.13913639 511.54197612 441.49127386 511.53806575 438.84318256 511.53421688 C436.92709686 511.53866909 435.011013 511.54398308 433.09493184 511.5500856 C427.82604809 511.56427796 422.55722329 511.56592866 417.28832316 511.5654887 C411.60719025 511.5671358 405.92608171 511.58020027 400.24496174 511.59168148 C387.82148843 511.61453824 375.39803219 511.62245271 362.97454071 511.62750793 C355.21839296 511.63076393 347.46225018 511.63728579 339.70610523 511.64450932 C318.23424954 511.66407553 296.76240064 511.6805611 275.29053593 511.68338585 C274.60385419 511.68347991 273.91717245 511.68357397 273.20968217 511.68367088 C270.42689041 511.68404936 267.64409865 511.68441336 264.8613069 511.68477386 C262.76682551 511.68504558 260.67234412 511.68532226 258.57786274 511.68559933 C257.53971732 511.68573136 257.53971732 511.68573136 256.48059927 511.68586606 C234.73531117 511.6887714 212.99011197 511.71086706 191.24485493 511.74712276 C166.8124932 511.78785765 142.38020292 511.81152489 117.94780374 511.81184536 C105.01203113 511.81243029 92.07637295 511.82094531 79.14062977 511.84984303 C68.12690718 511.87433383 57.11334076 511.88165522 46.09959832 511.8665955 C40.48011405 511.85941747 34.8609383 511.86032293 29.24148846 511.8830061 C24.09561125 511.90357873 18.95028012 511.9010114 13.80440894 511.88013125 C11.94439167 511.87663313 10.08433515 511.88155995 8.22436938 511.89583569 C-10.10815633 512.02745693 -10.10815633 512.02745693 -17.84938335 506.26006222 C-20.06813335 503.94365597 -20.06813335 503.94365597 -21.34938335 501.69756222 C-22.0145396 500.58187862 -22.0145396 500.58187862 -22.69313335 499.44365597 C-23.2654771 498.36277706 -23.2654771 498.36277706 -23.84938335 497.26006222 C-24.37210916 496.44637242 -24.37210916 496.44637242 -24.90539509 495.61624444 C-26.25806437 492.23999981 -26.12774279 488.95921001 -26.10944557 485.37755299 C-26.11325124 484.57395607 -26.11705691 483.77035916 -26.12097791 482.94241083 C-26.13133588 480.23270891 -26.12737978 477.52321485 -26.12353802 474.8134985 C-26.12798816 472.85789094 -26.13330146 470.90228519 -26.13940674 468.9466821 C-26.15362436 463.55926425 -26.15524932 458.171904 -26.15480983 452.78447008 C-26.15645475 446.97923838 -26.16951525 441.17403063 -26.18100262 435.36881161 C-26.20387789 422.66836919 -26.21177607 409.96794346 -26.21682906 397.26748323 C-26.22008341 389.33948136 -26.22660432 381.41148435 -26.23383045 373.48348522 C-26.25340034 351.53990171 -26.26988333 329.59632279 -26.27270699 307.65272999 C-26.27280105 306.95068761 -26.27289511 306.24864524 -26.27299202 305.52532885 C-26.2733705 302.68022412 -26.2737345 299.83511939 -26.274095 296.99001466 C-26.27436672 294.8485852 -26.2746434 292.70715574 -26.27492046 290.56572628 C-26.27500849 289.85811514 -26.27509651 289.15050399 -26.2751872 288.42145009 C-26.27809196 266.19313583 -26.3001805 243.96490858 -26.3364439 221.73662472 C-26.37717781 196.76738158 -26.40086561 171.79819772 -26.4011665 146.82891953 C-26.4016472 133.60695615 -26.41027112 120.38509998 -26.43916416 107.16316509 C-26.46365414 95.90418974 -26.47097703 84.64536715 -26.45591664 73.38637237 C-26.44873785 67.64133798 -26.44964726 61.89660538 -26.47232723 56.15160465 C-26.49289626 50.89092542 -26.49033584 45.63078039 -26.46945239 40.37010707 C-26.46595354 38.46830765 -26.47088416 36.56646984 -26.48515683 34.66472076 C-26.61919009 15.57308197 -26.61919009 15.57308197 -20.84938335 8.26006222 C-14.48214199 2.30072594 -8.74342199 -0.04580892 0 0 Z " fill="#FEFEFE" transform="translate(584.849383354187,474.7399377822876)"/>
<path d="M0 0 C1.22401564 -0.00307895 1.22401564 -0.00307895 2.47275886 -0.0062201 C5.19458989 -0.01185392 7.91636973 -0.01043736 10.63820553 -0.00901413 C12.6144747 -0.01159984 14.59074336 -0.01461357 16.5670113 -0.01801753 C21.98854538 -0.02606653 27.4100662 -0.02787593 32.83160555 -0.028615 C38.6825274 -0.0304692 44.53344243 -0.03801835 50.38436031 -0.04475021 C63.84034752 -0.05902607 77.29633218 -0.064858 90.75232565 -0.06944216 C97.40696871 -0.07178104 104.06161096 -0.075384 110.71625337 -0.07913754 C133.51210053 -0.09197011 156.30794722 -0.10268974 179.10379791 -0.10614014 C180.53370935 -0.10636177 181.96362078 -0.10658355 183.39353221 -0.10680549 C184.82681987 -0.10702613 186.26010754 -0.10724661 187.6933952 -0.10746694 C190.56862962 -0.10790948 193.44386405 -0.1083566 196.31909847 -0.10880661 C197.03198484 -0.108916 197.74487121 -0.10902539 198.4793602 -0.1091381 C221.58825928 -0.11276773 244.69712697 -0.12868573 267.80601404 -0.15199697 C292.25925217 -0.17661908 316.71247237 -0.19031407 341.16572326 -0.19150805 C343.85247291 -0.1916795 346.53922254 -0.19189492 349.22597218 -0.19214249 C349.88748713 -0.19219826 350.54900209 -0.19225402 351.23056296 -0.19231148 C361.19715111 -0.19338881 371.16370985 -0.20273238 381.13028812 -0.21632767 C392.47421425 -0.23174752 403.81808655 -0.23683794 415.16202117 -0.22858956 C420.94624255 -0.22468986 426.73035559 -0.22557958 432.51456356 -0.23964691 C437.81780012 -0.2524262 443.12084738 -0.25115301 448.42408382 -0.2390562 C450.33458663 -0.23710618 452.24510304 -0.24014519 454.15558679 -0.24890056 C469.15592041 -0.31324872 483.67090246 0.55218286 497.44092464 7.13142776 C498.54049496 7.63674026 499.64006527 8.14205276 500.77295589 8.66267776 C508.61433203 12.40071189 515.62507776 16.7165543 522.44092464 22.13142776 C523.09705746 22.6457637 523.75319027 23.16009964 524.42920589 23.69002151 C539.92529286 36.36863812 550.47219842 54.96634089 555.44092464 74.13142776 C555.68398741 74.95868775 555.92705018 75.78594774 556.17747849 76.63827622 C558.89390101 86.77235799 558.85852522 96.54277377 558.81514645 106.96831131 C558.81789059 108.96524616 558.82194571 110.96217957 558.8271901 112.95910943 C558.83773394 118.41919768 558.82967584 123.87912119 558.8184396 129.33920217 C558.80957209 135.2384366 558.81804852 141.13765006 558.82430172 147.03688431 C558.83377724 158.58327028 558.82720054 170.12959364 558.81503878 181.67597495 C558.80539393 191.06293537 558.80215531 200.44988028 558.80343342 209.8368454 C558.80355946 210.83872743 558.80355946 210.83872743 558.80368806 211.8608495 C558.80404033 214.57245631 558.80442435 217.28406311 558.80485363 219.99566991 C558.80881543 245.41400204 558.79611668 270.8323011 558.77532707 296.25062377 C558.75696295 318.80937017 558.7511441 341.36808485 558.75659847 363.92683792 C558.75694491 365.37513025 558.757291 366.82342258 558.75763676 368.27171491 C558.75789326 369.34575131 558.75789326 369.34575131 558.75815493 370.44148542 C558.75900854 374.04623159 558.75983232 377.65097777 558.76062393 381.25572395 C558.76078101 381.96696087 558.76093809 382.67819778 558.76109993 383.41098733 C558.76509473 402.28628131 558.75960791 421.16157226 558.75111264 440.0368644 C558.75020565 442.06921345 558.7493 444.1015625 558.74839741 446.13391155 C558.7477963 447.48199551 558.74718768 448.83007945 558.7465715 450.1781634 C558.74205996 460.2214439 558.74204183 470.26471753 558.74408054 480.30799866 C558.7462063 491.7349313 558.74094974 503.16183353 558.72646699 514.58875762 C558.71924078 520.41538642 558.7151308 526.241971 558.71971035 532.06860352 C558.72380568 537.4092252 558.71856774 542.74975583 558.70608427 548.09036376 C558.70317179 550.01553002 558.7035665 551.94070494 558.70772735 553.86586891 C558.76217716 581.59041903 553.19736414 606.11633002 535.44092464 628.13142776 C534.88920589 628.83525589 534.33748714 629.53908401 533.76904964 630.26424026 C520.83648092 645.96807371 502.02486484 656.50323137 482.44092464 661.13142776 C481.75062251 661.30168401 481.06032037 661.47194026 480.34909999 661.64735579 C470.95146652 663.67540438 461.54430638 663.40966199 451.98294735 663.38539505 C450.00281341 663.38770158 448.02268032 663.39087939 446.04254901 663.39484954 C440.61972099 663.4031799 435.19696359 663.39908022 429.77413535 663.3928771 C423.91853313 663.38834637 418.06294293 663.3953395 412.2073431 663.40083694 C400.74291658 663.40972627 389.27851626 663.40781088 377.81408872 663.40201166 C368.49476153 663.39749294 359.17544091 663.3968304 349.85611248 663.3990593 C348.86190694 663.39928845 348.86190694 663.39928845 347.84761643 663.39952224 C345.1568723 663.40014494 342.46612818 663.40078175 339.77538406 663.40144176 C314.54603088 663.40755649 289.31669198 663.40201829 264.087341 663.39124797 C241.69005785 663.38175933 219.29279744 663.38260455 196.89551449 663.39216995 C171.71451273 663.40288835 146.53352359 663.40712059 121.35251987 663.40094543 C118.66613603 663.40030402 115.97975219 663.39967834 113.29336834 663.3990593 C112.301232 663.39882206 112.301232 663.39882206 111.2890525 663.39858004 C101.31711063 663.39630865 91.34518096 663.3989716 81.37324047 663.4040184 C70.0289159 663.40963361 58.684619 663.40809737 47.34029759 663.39745691 C41.55443384 663.39220854 35.76861619 663.39012925 29.9827528 663.39675522 C24.6816344 663.40273412 19.38060464 663.39940754 14.07949422 663.38880011 C12.1664155 663.38657429 10.25332922 663.38768391 8.34025539 663.39255169 C-18.84400678 663.45639106 -43.14005336 656.84378523 -63.55907536 638.13142776 C-64.94739567 636.8823262 -64.94739567 636.8823262 -66.36376286 635.60799026 C-79.13921284 623.54032144 -87.01156871 608.52709615 -92.37157536 591.88142776 C-92.57879215 591.24414749 -92.78600895 590.60686722 -92.99950504 589.95027542 C-95.3478148 582.25787793 -95.70950368 574.44958149 -95.68770981 566.45185757 C-95.68946285 565.62283014 -95.69121588 564.79380272 -95.69302204 563.93965325 C-95.69765811 561.1735796 -95.69522274 558.40755908 -95.69278812 555.64148331 C-95.6946573 553.63348991 -95.69695843 551.62549688 -95.69965345 549.61750442 C-95.70576461 544.10843533 -95.70563866 538.59938144 -95.70445907 533.09030974 C-95.70425489 527.14539521 -95.70977542 521.20048554 -95.71451664 515.25557327 C-95.7228198 503.61207699 -95.72558429 491.96858451 -95.72612902 480.32508572 C-95.7265889 470.8607756 -95.72864901 461.39646711 -95.73182964 451.93215752 C-95.73272721 449.2059804 -95.73361703 446.47980329 -95.73450452 443.75362617 C-95.73483609 442.73697125 -95.73483609 442.73697125 -95.73517436 441.69977785 C-95.74132672 422.640934 -95.74527511 403.58209071 -95.74483109 384.52324581 C-95.74481551 383.80498963 -95.74479993 383.08673345 -95.74478388 382.34671193 C-95.74470077 378.70644542 -95.74460173 375.06617891 -95.74449917 371.4259124 C-95.74447922 370.70296621 -95.74445928 369.98002002 -95.74443873 369.23516637 C-95.74439829 367.77319399 -95.74435649 366.31122162 -95.74431334 364.84924924 C-95.74370058 342.10321447 -95.75120799 319.3571946 -95.7648859 296.61116409 C-95.78025321 271.04527638 -95.78885175 245.47939847 -95.78792268 219.91350585 C-95.78784805 217.18638567 -95.78779934 214.45926549 -95.78776836 211.73214531 C-95.78775671 211.0606786 -95.78774506 210.3892119 -95.78773305 209.69739772 C-95.7877023 198.90210452 -95.7940821 188.10682429 -95.80270063 177.31153495 C-95.81118577 166.45872957 -95.81198901 155.60594403 -95.80559131 144.75313719 C-95.8023251 138.87627262 -95.80227315 132.99945495 -95.81094456 127.12259483 C-95.81880579 121.73941703 -95.8173819 116.35632335 -95.80866043 110.97314761 C-95.80712463 109.02907025 -95.80894459 107.08498663 -95.8145205 105.14091667 C-95.89403635 75.44286742 -87.82737004 49.17303528 -66.55907536 27.69392776 C-48.65245298 10.24463991 -24.99963915 -0.05962796 0 0 Z M-15.55907536 85.13142776 C-21.35820736 93.24340972 -20.12178236 103.69670155 -20.08046818 113.17253494 C-20.08651229 115.13174891 -20.0942918 117.09095817 -20.10365331 119.0501591 C-20.12421711 124.42441735 -20.11984884 129.79840881 -20.11129212 135.17268896 C-20.10635835 140.97241564 -20.12438502 146.77207802 -20.1393671 152.57178116 C-20.16486705 163.93021398 -20.16844777 175.28855225 -20.16376658 186.64700888 C-20.16020069 195.87916745 -20.16369851 205.11129732 -20.17221546 214.34345245 C-20.17340584 215.65735368 -20.17459622 216.97125491 -20.17582267 218.32497133 C-20.17763859 220.32498185 -20.17945454 222.32499238 -20.18128737 224.32500289 C-20.1981423 242.91587147 -20.20682065 261.50672961 -20.19847393 280.09760475 C-20.19816118 280.79819183 -20.19784843 281.49877891 -20.1975262 282.22059589 C-20.19591467 285.7713118 -20.19422313 289.32202767 -20.19249959 292.87274353 C-20.19215742 293.57790564 -20.19181524 294.28306776 -20.1914627 295.00959842 C-20.19076939 296.43560665 -20.19007233 297.86161489 -20.18937152 299.28762312 C-20.17865704 321.47650629 -20.19451971 343.6652305 -20.23143864 365.85408401 C-20.27288541 390.79335459 -20.29432286 415.73252669 -20.28628767 440.67183363 C-20.28246171 453.87308642 -20.28745744 467.07419438 -20.31571674 480.27542114 C-20.33953003 491.51341843 -20.34237036 502.75118175 -20.31813641 513.98918222 C-20.3063489 519.72226401 -20.30418685 525.4549177 -20.32814121 531.18797112 C-20.34982537 536.4387287 -20.34369365 541.68869989 -20.31561784 546.93942042 C-20.31031458 548.83637319 -20.31508667 550.73338726 -20.33108957 552.63027994 C-20.42390544 564.45518461 -19.84536359 573.68395265 -11.12157536 582.63142776 C-5.11300941 586.1486371 -0.43024863 587.57646323 6.54199028 587.50895119 C7.33276418 587.51331151 8.12353808 587.51767183 8.93827483 587.52216429 C11.58638238 587.53310711 14.2339678 587.52270312 16.8820715 587.51237869 C18.80044622 587.51583564 20.71881896 587.52060045 22.63718754 587.52656043 C27.90771302 587.53909503 33.17807574 587.53288878 38.44860184 587.52360177 C44.13308611 587.51682168 49.81754215 587.52728738 55.50202084 587.53554153 C66.63779826 587.54889241 77.77351508 587.54599501 88.9092949 587.53730361 C97.95893178 587.53053247 107.00855166 587.52960788 116.05819035 587.53287506 C117.34547511 587.53333476 118.63275987 587.53379446 119.95905327 587.53426809 C122.57404168 587.53522725 125.1890301 587.53619989 127.8040185 587.53718586 C151.63475232 587.54549978 175.46545168 587.53687299 199.29618 587.52115807 C221.04830335 587.50692293 242.80037402 587.50819369 264.55249691 587.52254105 C288.99253577 587.53860743 313.4325408 587.54491812 337.87258488 587.53570426 C340.47833764 587.5347486 343.08409041 587.53380548 345.68984318 587.53287506 C346.97196384 587.53241223 348.2540845 587.53194941 349.57505731 587.53147256 C358.6143577 587.52888123 367.6536394 587.53325678 376.6929369 587.54031372 C387.70813474 587.54872408 398.72326844 587.54645837 409.73845892 587.53047149 C415.35964921 587.52258234 420.98073252 587.51950822 426.60192204 587.52941895 C431.74692882 587.53835296 436.89172937 587.53345416 442.03671742 587.51748629 C443.89868189 587.51413301 445.76066376 587.51584482 447.62261706 587.52311365 C450.15333173 587.53223595 452.68334 587.52287973 455.21401787 587.50895119 C455.93702146 587.51597469 456.66002505 587.52299818 457.40493783 587.53023452 C463.4175976 587.46409003 468.70868647 586.08509895 473.64795589 582.55330276 C474.44266293 581.72572464 474.44266293 581.72572464 475.25342464 580.88142776 C475.79611996 580.34002151 476.33881527 579.79861526 476.89795589 579.24080276 C480.94252926 573.7115126 481.88217762 568.57718986 481.82124138 561.84295368 C481.82823126 560.6264021 481.82823126 560.6264021 481.83536234 559.38527372 C481.84731092 556.66825531 481.83791747 553.95173708 481.8286047 551.23471451 C481.83277767 549.26684179 481.83825498 547.29897149 481.84492451 545.33110565 C481.85940256 539.92376743 481.85512699 534.51658132 481.8477577 529.10923469 C481.8430342 523.27750642 481.8555286 517.44581144 481.86577511 511.61409378 C481.88298429 500.18955903 481.88379875 488.76507922 481.8785622 477.34053487 C481.87452335 468.05634356 481.87596068 458.77216851 481.88131046 449.48797798 C481.88206733 448.1540496 481.88282331 446.82012122 481.88357841 445.48619283 C481.8847236 443.47608815 481.88587348 441.46598347 481.88703765 439.45587879 C481.89774266 420.76784253 481.90246787 402.07981228 481.89456749 383.39177418 C481.89427032 382.68731369 481.89397314 381.98285321 481.89366696 381.25704544 C481.89121802 375.53631736 481.88860644 369.81558936 481.88598283 364.09486137 C481.87587978 341.77881521 481.88423689 319.46284429 481.90747738 297.14680862 C481.93354669 272.07391633 481.94639885 247.00106934 481.93928963 221.92816299 C481.93857357 219.25500644 481.93789918 216.58184988 481.93724918 213.90869331 C481.93692707 212.59340333 481.93660495 211.27811334 481.93627308 209.92296608 C481.93497112 200.64921746 481.94332695 191.37550632 481.95554066 182.10176659 C481.97023907 170.80109391 481.97092892 159.50052655 481.95346975 148.19985599 C481.94493812 142.43281644 481.94286305 136.66596521 481.9581213 130.89893532 C481.97191373 125.62064935 481.96727539 120.34271399 481.94788206 115.06444859 C481.94410501 113.15403119 481.94709284 111.24358607 481.95749371 109.33319325 C481.97062453 106.73695329 481.95911562 104.14193042 481.9414959 101.54574299 C481.95114641 100.80348725 481.96079692 100.06123152 481.97073987 99.29648319 C481.88340903 93.03229277 479.81092493 87.94338615 475.76514339 83.14314651 C475.22502621 82.70615433 474.68490902 82.26916214 474.12842464 81.81892776 C473.59604183 81.36904495 473.06365902 80.91916214 472.51514339 80.45564651 C466.84626283 76.83653068 462.01965677 75.68906309 455.33985901 75.75111103 C454.54908511 75.74645111 453.75831121 75.74179119 452.94357446 75.73699006 C450.29547246 75.72504522 447.64788402 75.73443345 444.99977779 75.74374771 C443.0814026 75.73957458 441.16302988 75.73409717 439.24466175 75.7274279 C433.97414116 75.71295201 428.70377666 75.71722474 423.43324745 75.72459471 C417.74875944 75.72931874 412.06430557 75.71682333 406.37982845 75.7065773 C395.24405492 75.68936917 384.10833777 75.68855344 372.97255439 75.6937902 C363.92291675 75.69782926 354.87329579 75.6963915 345.82365894 75.69104195 C344.53637418 75.69029352 343.24908942 75.6895451 341.92279602 75.688774 C339.30780761 75.68724255 336.69281919 75.6857042 334.07783078 75.68415903 C316.51691409 75.67432828 298.95600618 75.67016865 281.3950882 75.67778492 C280.70842203 75.67808209 280.02175587 75.67837927 279.31428165 75.67868544 C273.73807748 75.68113438 268.16187338 75.68374597 262.58566929 75.68636958 C240.83353434 75.69647258 219.08147657 75.68811553 197.32935238 75.66487503 C172.88931019 75.63880492 148.44932215 75.6260033 124.00926441 75.63306278 C111.0691227 75.63655891 98.12904438 75.63429694 85.18891239 75.61681175 C74.17370165 75.60211239 63.15859894 75.60142473 52.14339036 75.61888266 C46.52216829 75.62741351 40.90113941 75.62949127 35.27992725 75.61423111 C30.13486855 75.60043635 24.99016949 75.60508002 19.84513187 75.62447035 C17.98316639 75.62824668 16.12117247 75.6252616 14.25923223 75.61485869 C11.72833153 75.60172293 9.19867835 75.61324097 6.66783142 75.63085651 C5.94482783 75.621206 5.22182424 75.61155549 4.47691146 75.60161254 C-3.45916512 75.71503914 -10.08678891 79.53477117 -15.55907536 85.13142776 Z " fill="#0091DA" transform="translate(578.5590753555298,398.8685722351074)"/>
<path d="M0 0 C0.85437578 0.00081107 1.70875156 0.00162215 2.58901751 0.0024578 C23.90873904 0.04124073 45.19420201 0.71817187 66.49113801 1.6606624 C80.2399087 2.2690762 93.98190365 2.69581258 107.74169922 2.95532227 C108.65197325 2.97254215 109.56224728 2.98976203 110.50010537 3.00750373 C115.07357817 3.09312923 119.64709758 3.17592723 124.22063994 3.25774062 C152.07149267 3.76122268 179.91298111 4.47251418 207.74705338 5.56829059 C209.89022196 5.65159394 212.0334937 5.73136287 214.17683411 5.81010818 C248.58301063 7.08737007 283.38048852 9.75648393 314.7578125 25.13671875 C316.19775498 25.79358289 317.63931595 26.44690482 319.08203125 27.09765625 C341.00414021 37.07059321 360.45408816 50.36152051 377.7578125 67.13671875 C378.31710449 67.67022949 378.87639648 68.20374023 379.45263672 68.75341797 C402.98162263 91.24388312 422.68799665 120.04573849 432.7578125 151.13671875 C433.28568359 152.73966797 433.28568359 152.73966797 433.82421875 154.375 C434.49329831 156.48194465 435.13754617 158.59692228 435.7578125 160.71875 C436.47003344 163.1530989 437.21731323 165.55290905 438.0078125 167.9609375 C442.03001615 180.69017015 443.28630061 193.57045619 444.44824219 206.83032227 C444.67250669 209.2256016 444.95353034 211.61578754 445.26912099 214.00075299 C445.95613906 220.20062375 445.89671238 226.38740256 445.88644695 232.61856747 C445.8877952 233.98041534 445.88957999 235.34226284 445.89175919 236.70410964 C445.89647606 240.44355657 445.89499177 244.18297907 445.89248142 247.92242718 C445.89084566 251.9920752 445.89499144 256.06171805 445.89839059 260.13136441 C445.90354185 267.26353025 445.90496226 274.39568931 445.90393448 281.52785683 C445.90240974 292.13451127 445.90657101 302.7411582 445.9118091 313.34781118 C445.92148383 333.39750706 445.92429343 353.4472004 445.92486616 373.49689835 C445.92532575 388.98702327 445.9273843 404.4771472 445.93056679 419.9672718 C445.93146435 424.42663179 445.93235416 428.88599177 445.93324167 433.34535176 C445.93346271 434.45399918 445.93368376 435.56264661 445.93391151 436.70488941 C445.94006687 467.8954172 445.94401198 499.08594463 445.94356823 530.27647305 C445.94355265 531.45266285 445.94353707 532.62885265 445.94352102 533.84068457 C445.94343791 539.80200988 445.94333887 545.76333519 445.94323631 551.72466051 C445.9432064 553.5005416 445.9432064 553.5005416 445.94317587 555.31229907 C445.94313544 557.7064801 445.94309364 560.10066114 445.94305048 562.49484218 C445.94243821 599.7147457 445.94993487 636.9346401 445.96362305 674.15454102 C445.97899945 715.98209022 445.98758826 757.80963343 445.98665982 799.63718563 C445.9865852 804.10188965 445.98653649 808.56659367 445.98650551 813.03129768 C445.98648803 814.68024683 445.98648803 814.68024683 445.98647019 816.36250808 C445.98643947 834.02092203 445.99281412 851.67932805 446.00143777 869.33773964 C446.00993457 887.10470508 446.01088844 904.87165896 446.00432845 922.63862532 C446.00064571 933.18003062 446.00242675 943.7214007 446.01227079 954.26280224 C446.01830334 961.3222739 446.01693923 968.38172024 446.00980029 975.44119077 C446.00594608 979.45177462 446.00506293 983.46229069 446.01325765 987.47286957 C446.06119294 1012.65149432 445.62532498 1037.53658813 439.7578125 1062.13671875 C439.47164062 1063.38839844 439.18546875 1064.64007812 438.890625 1065.9296875 C431.42509619 1096.22123582 417.51678001 1124.99053474 397.7578125 1149.13671875 C397.07847656 1150.0184375 396.39914062 1150.90015625 395.69921875 1151.80859375 C372.68754023 1181.21482188 341.33949913 1201.95597801 307.18823242 1216.12231445 C305.13067952 1216.98109218 303.08990757 1217.86830896 301.05078125 1218.76953125 C294.46326701 1221.50456089 287.64244514 1223.32243146 280.7578125 1225.13671875 C280.0386707 1225.3262989 279.3195289 1225.51587905 278.57859492 1225.71120405 C259.83610613 1230.38641167 240.70766478 1229.68486408 221.54174304 1229.60098124 C216.52640611 1229.58351831 211.51108636 1229.58956609 206.49572754 1229.59259033 C197.83090861 1229.59467592 189.16621124 1229.58225044 180.50142288 1229.55963898 C167.97400128 1229.52696914 155.44663776 1229.51669672 142.91917817 1229.51168701 C122.58850093 1229.50295772 102.2578883 1229.47640671 81.92724609 1229.43847656 C62.19157227 1229.40169498 42.45591608 1229.37341339 22.72021484 1229.35644531 C20.89188244 1229.35486897 20.89188244 1229.35486897 19.02661403 1229.35326079 C12.91109888 1229.34804019 6.79558361 1229.34298547 0.68006825 1229.33801317 C-49.96072829 1229.2966249 -100.60145473 1229.22624136 -151.2421875 1229.13671875 C-150.85940917 1228.71219339 -150.47663083 1228.28766803 -150.08225316 1227.85027826 C-146.53830357 1223.83306471 -143.63521875 1219.76721401 -140.90254211 1215.17324829 C-125.02784285 1189.52833308 -101.88808037 1160.15134566 -71.29864099 1152.4512081 C-48.50657555 1147.29491929 -24.59629249 1147.34425439 -1.34765625 1147.34765625 C-0.04810225 1147.3469534 -0.04810225 1147.3469534 1.27770537 1147.34623635 C23.83081554 1147.3511623 46.35086666 1148.02130142 68.88439643 1148.90660405 C81.94480672 1149.41414346 95.00181582 1149.75441833 108.07006836 1149.97949219 C108.9965737 1149.9955012 109.92307905 1150.0115102 110.87766031 1150.02800433 C115.53076748 1150.10745521 120.18391813 1150.18386559 124.83710635 1150.25840831 C133.89134939 1150.40363825 142.94533304 1150.56269239 151.99919128 1150.73013306 C152.87425063 1150.74625352 153.74930997 1150.76237399 154.65088626 1150.77898295 C167.49252157 1151.01912705 180.32876874 1151.35919226 193.16596985 1151.77157593 C194.78128526 1151.82266868 196.39660176 1151.87372697 198.01191938 1151.92474961 C204.78264508 1152.14026571 211.55282349 1152.3631644 218.32223789 1152.61677049 C241.97523576 1153.55265552 241.97523576 1153.55265552 265.0078125 1148.76171875 C266.00844727 1148.42974487 266.00844727 1148.42974487 267.02929688 1148.09106445 C268.94280224 1147.45146098 270.85051892 1146.79461432 272.7578125 1146.13671875 C274.18867187 1145.67458984 274.18867187 1145.67458984 275.6484375 1145.203125 C300.71261956 1136.76084811 322.92659493 1120.22427379 338.7578125 1099.13671875 C339.69560547 1097.88761719 339.69560547 1097.88761719 340.65234375 1096.61328125 C344.91215182 1090.72936335 348.46464536 1084.60513911 351.7578125 1078.13671875 C352.31339844 1077.08484375 352.86898438 1076.03296875 353.44140625 1074.94921875 C357.22379179 1067.40129572 360.08334596 1059.70381236 362.5703125 1051.63671875 C362.860271 1050.74380127 363.15022949 1049.85088379 363.44897461 1048.9309082 C369.37601746 1028.71467864 368.05271275 1006.53402687 368.01474761 985.6657525 C368.00960604 981.59745199 368.01622058 977.52916601 368.02123427 973.46086764 C368.02841123 966.35298442 368.02826735 959.24513166 368.02313995 952.13724709 C368.01553606 941.5673056 368.01946252 930.99738954 368.02555657 920.42744819 C368.03605927 901.54435837 368.03518687 882.66128211 368.02939874 863.77819101 C368.02435919 847.25535211 368.02305817 830.73251817 368.02544403 814.20967865 C368.0255968 813.11187134 368.02574957 812.01406403 368.02590697 810.88298984 C368.02652969 806.42620054 368.02716649 801.96941125 368.0278265 797.51262196 C368.03393805 755.74531162 368.0284075 713.9780099 368.0176327 672.2107009 C368.00813955 635.1295577 368.00899373 598.04842824 368.01855469 560.96728516 C368.02927049 519.26824856 368.0335072 477.56921958 368.02733016 435.8701818 C368.02668876 431.42295313 368.02606308 426.97572446 368.02544403 422.52849579 C368.02528588 421.4335417 368.02512772 420.33858762 368.02496477 419.2104531 C368.02269279 402.69808247 368.02534479 386.18571735 368.03040314 369.67334747 C368.03612697 350.89537824 368.0346805 332.11742465 368.02384165 313.33945736 C368.01797996 302.83872377 368.01757002 292.3380241 368.025134 281.83729141 C368.0296337 274.81435885 368.02680076 267.79145337 368.01812446 260.7685248 C368.01338871 256.77331777 368.0116944 252.77817789 368.01893643 248.78297308 C368.05109684 229.64971718 367.87191623 210.71083602 364.0078125 191.88671875 C363.83862305 191.06083252 363.66943359 190.23494629 363.49511719 189.3840332 C355.87243938 154.38131951 331.22896802 124.74162542 301.8828125 105.38671875 C294.57873739 100.70143693 286.77388397 97.39778297 278.7578125 94.13671875 C277.88769531 93.74742188 277.01757812 93.358125 276.12109375 92.95703125 C270.96810193 90.69986336 265.71255113 89.26370672 260.2578125 87.94921875 C259.22539429 87.69845581 259.22539429 87.69845581 258.17211914 87.44262695 C247.40651608 84.97876237 236.5874195 84.98503566 225.59750366 84.97850037 C223.96370055 84.97392815 222.32989859 84.96892717 220.69609797 84.9635368 C216.22647391 84.95002139 211.75685741 84.94255657 207.28721833 84.93611014 C202.45980083 84.92807704 197.63239892 84.91438936 192.80499268 84.90139771 C184.44777288 84.8796761 176.09055148 84.8615159 167.73331833 84.84579277 C155.65024623 84.82305474 143.56719143 84.79491742 131.48413403 84.76547349 C111.87891601 84.71784573 92.27369091 84.67456854 72.66845703 84.6340332 C53.62678476 84.59465374 34.58511878 84.55322166 15.54345703 84.5090332 C14.36920801 84.50630893 13.19495899 84.50358466 11.98512666 84.50077783 C6.09410885 84.48709795 0.20309114 84.47337776 -5.68792653 84.45963752 C-54.53933373 84.34574843 -103.39075455 84.23892238 -152.2421875 84.13671875 C-151.46363753 83.37984577 -150.68508757 82.62297279 -149.88294518 81.84316427 C-146.94734721 78.83454442 -144.8233063 75.57964161 -142.61813354 72.03410339 C-105.57729614 14.60094151 -65.09060112 -0.10524673 0 0 Z " fill="#78BE20" transform="translate(857.2421875,-5.13671875)"/>
<path d="M0 0 C1.61730287 -0.0004366 3.23460566 -0.00131314 4.85190809 -0.00258917 C9.2759375 -0.00481667 13.69994253 -0.0008368 18.12396884 0.0041889 C22.90229715 0.00851833 27.68062414 0.0070452 32.45895386 0.00628662 C40.73105824 0.00576297 49.00315472 0.00889323 57.27525711 0.01452446 C69.23524263 0.02266091 81.19522434 0.02525688 93.15521233 0.02651245 C112.56078296 0.0286996 131.96634938 0.03535055 151.37191772 0.04481506 C170.21957376 0.0539979 189.06722865 0.06107447 207.91488647 0.06532288 C209.65833804 0.06571696 209.65833804 0.06571696 211.43701084 0.06611901 C217.26809228 0.06742407 223.09917372 0.06868777 228.93025517 0.06993091 C277.2840219 0.08029302 325.63778406 0.09790217 373.99154663 0.12025452 C367.71164866 7.52722013 367.71164866 7.52722013 364.69520569 10.53012085 C364.11624039 11.10901566 363.53727509 11.68791046 362.94076538 12.28434753 C362.0217041 13.19565933 362.0217041 13.19565933 361.08407593 14.12538147 C360.42156326 14.78643387 359.7590506 15.44748627 359.07646179 16.12857056 C357.65022953 17.55102201 356.22284407 18.97231799 354.7944088 20.39255714 C352.53552442 22.63860488 350.27984303 24.88782596 348.02494812 27.13787842 C343.24578738 31.90565697 338.46269388 36.669478 333.67904663 41.43275452 C328.11728333 46.97092809 322.55713782 52.51070586 317.0011692 58.05469322 C314.77567971 60.27368686 312.54720822 62.48965625 310.31861877 64.70553589 C308.96294741 66.05757695 307.60741499 67.40975736 306.25204468 68.76210022 C305.629216 69.37976257 305.00638733 69.99742493 304.36468506 70.63380432 C301.30362696 73.59176883 301.30362696 73.59176883 298.99154663 77.12025452 C298.32723949 77.12123133 297.66293236 77.12220813 296.9784947 77.12321454 C257.55491436 77.18156088 218.13139011 77.25541368 178.70787755 77.3492408 C173.9680429 77.36050817 169.22820795 77.37164675 164.4883728 77.38270569 C163.5448072 77.38490937 162.60124159 77.38711306 161.62908309 77.38938352 C146.37634054 77.42469936 131.12359803 77.44959569 115.87082983 77.47060154 C100.20535325 77.49240919 84.53992946 77.52550652 68.87449783 77.56895608 C59.21794538 77.59538747 49.56145862 77.61314542 39.90487181 77.61960056 C33.27162103 77.6248806 26.63845272 77.64118466 20.00524623 77.66592018 C16.18547246 77.67984613 12.36584601 77.6891397 8.5460453 77.68526268 C-13.40127355 77.6466822 -13.40127355 77.6466822 -35.00845337 81.12025452 C-36.0566648 81.36357167 -37.10487623 81.60688883 -38.18485165 81.85757923 C-62.26113738 87.68165356 -82.86258829 101.84711615 -101.00845337 118.12025452 C-101.68521118 118.7119342 -102.36196899 119.30361389 -103.05923462 119.91322327 C-116.39404325 132.29327233 -126.28413616 150.40982443 -133.00845337 167.12025452 C-133.35392212 167.97877014 -133.69939087 168.83728577 -134.05532837 169.72181702 C-137.63874994 179.50731439 -139.31861344 189.86552669 -141.00845337 200.12025452 C-141.17940578 201.05270587 -141.3503582 201.98515722 -141.52649099 202.94586468 C-142.34084525 208.74311431 -142.14660297 214.60130177 -142.13708782 220.44247437 C-142.1384352 221.81142625 -142.14021951 223.18037776 -142.14240006 224.54932857 C-142.14712852 228.3178036 -142.14562887 232.08625446 -142.14312228 235.85473068 C-142.14148952 239.95232465 -142.14562981 244.04991344 -142.14903146 248.14750576 C-142.15418754 255.33175002 -142.1556023 262.51598754 -142.15457535 269.70023346 C-142.15305186 280.38419915 -142.15720909 291.06815737 -142.16244997 301.75212161 C-142.17212917 321.94687342 -142.17493447 342.14162269 -142.17550703 362.33637655 C-142.17596645 377.9371777 -142.17802415 393.53797786 -142.18120766 409.13877869 C-142.18210521 413.62848123 -142.18299502 418.11818377 -142.18388253 422.60788631 C-142.18410358 423.72404677 -142.18432463 424.84020723 -142.18455238 425.99019073 C-142.19070849 457.39577362 -142.19465277 488.80135617 -142.1942091 520.2069397 C-142.19419352 521.39145149 -142.19417794 522.57596328 -142.19416189 523.79636937 C-142.19407878 529.80000297 -142.19397974 535.80363657 -142.19387718 541.80727017 C-142.19385724 542.99961386 -142.19383729 544.19195756 -142.19381674 545.42043288 C-142.19377631 547.8316475 -142.19373451 550.24286212 -142.19369135 552.65407674 C-142.19307903 590.14215551 -142.20057645 627.63022522 -142.21426392 665.11830139 C-142.229636 707.23769573 -142.23822939 749.35708412 -142.23730069 791.47648144 C-142.23722606 795.97121366 -142.23717736 800.46594588 -142.23714638 804.9606781 C-142.2371289 806.62074378 -142.2371289 806.62074378 -142.23711106 808.31434614 C-142.23708033 826.10177944 -142.2434585 843.88920486 -142.25207864 861.67663582 C-142.26057009 879.56925666 -142.26153348 897.46186603 -142.25496932 915.35448778 C-142.25128304 925.97427602 -142.25307832 936.59402931 -142.26291166 947.21381383 C-142.26893501 954.32177512 -142.26759016 961.42971124 -142.26044116 968.5376714 C-142.25657931 972.57844608 -142.25572653 976.6191534 -142.26389851 980.6599232 C-142.74180364 1014.34676816 -142.74180364 1014.34676816 -136.00845337 1047.12025452 C-135.69134399 1048.07158264 -135.69134399 1048.07158264 -135.36782837 1049.04212952 C-123.40356159 1084.37845232 -99.65059648 1114.50507451 -66.00845337 1131.49525452 C-45.60910217 1141.40394271 -24.81942699 1146.26497248 -2.20254517 1146.2784729 C-0.58284255 1146.2830428 1.0368589 1146.28804345 2.65655899 1146.29343647 C7.096497 1146.3069782 11.53642737 1146.31442441 15.97638059 1146.32086313 C20.76838652 1146.32888454 25.56037667 1146.3425763 30.35237122 1146.35557556 C38.65124007 1146.37731364 46.95011055 1146.39546787 55.24899292 1146.4111805 C67.24774987 1146.43390344 79.24648931 1146.4620429 91.24523139 1146.49149977 C110.71290816 1146.53914596 130.1805921 1146.5824182 149.64828491 1146.62294006 C168.55812131 1146.66231012 187.46795135 1146.70373997 206.3777771 1146.74794006 C207.54359058 1146.75066434 208.70940407 1146.75338861 209.91054523 1146.75619543 C215.75915209 1146.76987516 221.60775886 1146.78359539 227.45636559 1146.79733574 C275.96807932 1146.91125381 324.47980685 1147.01807349 372.99154663 1147.12025452 C372.60749106 1147.54476837 372.22343548 1147.96928223 371.82774186 1148.40666014 C368.28090783 1152.41938228 365.43089953 1156.45696402 362.76199341 1161.0847168 C347.4609485 1186.49173326 324.80746688 1215.14708368 294.961689 1223.29640675 C270.72668467 1229.22106265 244.92374743 1228.94723137 220.13217163 1228.93666077 C219.22772458 1228.93670355 218.32327753 1228.93674633 217.39142299 1228.93679041 C194.77467511 1228.91855069 172.18624715 1228.28783859 149.58815998 1227.41282861 C134.98205532 1226.84752007 120.382224 1226.45955225 105.76693726 1226.23280334 C104.80071561 1226.21776516 103.83449396 1226.20272698 102.83899286 1226.1872331 C98.95174639 1226.12736201 95.06448543 1226.06859354 91.17720033 1226.01128397 C61.44659323 1225.57143408 31.71616066 1224.97777455 2.00026321 1223.92974281 C-1.07271565 1223.82149919 -4.14574763 1223.72206387 -7.2192955 1223.63144302 C-63.49386296 1221.94402209 -112.59954522 1201.18185384 -153.50552368 1162.53529358 C-154.96189817 1161.16408719 -156.43416912 1159.80982575 -157.90689087 1158.45619202 C-170.81882039 1146.31706797 -181.40182038 1131.43569138 -189.98013306 1115.96986389 C-190.67897854 1114.71287116 -191.38838596 1113.4617047 -192.10708618 1112.21595764 C-202.81254426 1093.65983031 -209.88971158 1073.16573648 -214.57095337 1052.30775452 C-214.78783813 1051.34216614 -215.0047229 1050.37657776 -215.22817993 1049.38172913 C-218.94858522 1032.55945651 -220.1632641 1016.02466465 -220.14267445 998.83155441 C-220.14463392 997.45520441 -220.14702521 996.07885496 -220.14980242 994.70250636 C-220.15613128 990.95070712 -220.15636982 987.19892949 -220.15552501 983.44712594 C-220.15569593 979.35352089 -220.16161791 975.25992325 -220.16676587 971.16632199 C-220.17605143 963.06047924 -220.18000706 954.95464194 -220.18228483 946.84879453 C-220.18525755 937.1333005 -220.19396123 927.41781363 -220.20269911 917.70232338 C-220.22350213 894.2222393 -220.23400724 870.742154 -220.24282872 847.26206285 C-220.24704162 836.14299365 -220.25226277 825.02392498 -220.25751325 813.90485623 C-220.27540089 775.80560969 -220.29039417 737.70636299 -220.29783344 699.60711288 C-220.29830819 697.21705193 -220.29878408 694.82699097 -220.2992611 692.43693002 C-220.29949748 691.25173519 -220.29973386 690.06654036 -220.2999774 688.84543054 C-220.30117853 682.84117265 -220.302394 676.83691475 -220.30361938 670.83265686 C-220.30385953 669.64111804 -220.30409968 668.44957922 -220.30434711 667.22193316 C-220.31223388 628.61985348 -220.33565419 590.01780458 -220.36817533 551.41573833 C-220.40253525 510.55607771 -220.42219031 469.6964351 -220.42547768 428.83675981 C-220.42589519 424.34418376 -220.42637474 419.85160772 -220.42690086 415.35903168 C-220.42702406 414.25291915 -220.42714725 413.14680663 -220.42727417 412.00717554 C-220.42959859 394.26717098 -220.44521603 376.52720241 -220.46574271 358.78721064 C-220.48607959 340.92671676 -220.49144105 323.06626573 -220.48197208 305.20576242 C-220.47678747 294.61951954 -220.48248931 284.03342015 -220.50450675 273.44719815 C-220.51814762 266.34656893 -220.51682253 259.246037 -220.50410479 252.14540652 C-220.49729509 248.11874146 -220.49623083 244.09234791 -220.51366488 240.06570861 C-220.58046102 223.60484893 -220.01223844 207.42728598 -218.11859417 191.06366348 C-218.03339523 190.32532436 -217.94819629 189.58698524 -217.86041557 188.82627221 C-216.67149889 178.74491795 -215.09080961 169.0040511 -211.7784729 159.38929749 C-210.86616323 156.70096328 -210.03056524 153.99264918 -209.19204712 151.28041077 C-205.65602666 140.0283168 -201.74707493 129.32073939 -196.03823853 118.98695374 C-194.9780122 117.06507358 -193.95150092 115.12748299 -192.92642212 113.18666077 C-174.50276441 78.83220473 -146.44611311 50.07799538 -112.96157837 30.27894592 C-111.04874598 29.14415811 -109.15398193 27.98286384 -107.25845337 26.81947327 C-83.68205338 12.64683499 -55.72553972 4.31733194 -28.47355402 1.38882774 C-26.95618704 1.2235103 -25.43982629 1.04815035 -23.92560542 0.85614115 C-15.96277366 -0.08112465 -8.00401231 -0.01612714 0 0 Z " fill="#09C1D5" transform="translate(299.0084533691406,1.8797454833984375)"/>
<path d="M0 0 C222.75 0 445.5 0 675 0 C674.67 0.99 674.34 1.98 674 3 C673.18214887 2.99886084 672.36429774 2.99772168 671.52166325 2.996548 C622.96224146 2.92929599 574.40282465 2.87788096 525.84336555 2.84680401 C520.00226641 2.84305225 514.16116736 2.83916925 508.32006836 2.83520508 C507.15729574 2.83441815 505.99452313 2.83363122 504.79651498 2.83282044 C486.01196371 2.8197952 467.22744021 2.79615736 448.44290537 2.76854161 C429.1433046 2.74040698 409.84371828 2.72380677 390.54409784 2.71773452 C378.65189576 2.71363473 366.75977219 2.70072412 354.86759429 2.6762506 C346.69343632 2.66029375 338.51931846 2.65562195 330.34514607 2.65949587 C325.6413513 2.66140207 320.93769296 2.658649 316.23392296 2.64238358 C277.04208675 2.5136589 238.47170141 5.62362667 203 24 C202.3395166 24.33644531 201.6790332 24.67289063 200.99853516 25.01953125 C187.45657536 31.92937956 175.03157286 39.66515898 163 49 C162.15179688 49.64066406 161.30359375 50.28132813 160.4296875 50.94140625 C146.2609711 62.01206998 133.4058142 75.33801679 123 90 C122.5781543 90.59345215 122.15630859 91.1869043 121.72167969 91.79833984 C115.1546526 101.14257907 109.31820607 110.89551318 104 121 C103.18607788 122.53164795 103.18607788 122.53164795 102.35571289 124.09423828 C98.04239079 132.42853314 94.70585738 140.80336579 91.8125 149.75 C91.59866669 150.40596161 91.38483337 151.06192322 91.16452026 151.73776245 C81.36495779 181.86880313 79.52800631 211.98293427 79.6207987 243.46547298 C79.62947032 247.57333087 79.62036613 251.68116124 79.61373454 255.78901774 C79.60452291 262.95714666 79.60622446 270.1252051 79.61546707 277.29333305 C79.62917329 287.95291012 79.62546677 298.61243395 79.61850847 309.27201504 C79.606631 328.31725585 79.61163017 347.36246337 79.62378674 366.40770232 C79.63434964 383.07078556 79.63885883 399.73385749 79.63749123 416.39694405 C79.6374072 417.50499432 79.63732317 418.61304459 79.63723659 419.75467214 C79.63688431 424.2532554 79.63650029 428.75183865 79.63607101 433.2504219 C79.63211233 475.3875348 79.64479469 517.52462772 79.66559757 559.66173491 C79.68397383 597.05940708 79.68977697 634.45706012 79.68432617 671.85473633 C79.68397974 674.25726117 79.68363364 676.65978602 79.68328788 679.06231087 C79.68303139 680.84399875 79.68303139 680.84399875 79.68276971 682.66168033 C79.68191611 688.64147543 79.68109233 694.62127053 79.68030071 700.60106564 C79.68014363 701.78091542 79.67998655 702.96076521 79.67982471 704.17636802 C79.67583139 735.47625628 79.68131445 766.7761427 79.689812 798.07602984 C79.690719 801.44523939 79.69162464 804.81444895 79.69252724 808.18365851 C79.69312834 810.41846012 79.69373696 812.65326173 79.69435314 814.88806334 C79.69856724 830.43965981 79.69915584 845.99125267 79.69724765 861.54284953 C79.69480082 881.58297283 79.69890811 901.62307675 79.71445765 921.66319477 C79.72248377 932.2499764 79.72512729 942.83672578 79.7198153 953.42350931 C79.71682409 960.50741788 79.72118528 967.59129811 79.73136387 974.67519991 C79.7369546 978.70266502 79.73955158 982.73006471 79.73319729 986.7575302 C79.69886756 1010.61124578 80.59972999 1033.68251538 86 1057 C86.28617187 1058.25683594 86.57234375 1059.51367188 86.8671875 1060.80859375 C100.8785234 1117.41191091 136.79553535 1164.79076451 186.38916016 1194.99560547 C210.676066 1209.4284209 236.34080975 1217.88004648 264 1223 C264 1223.33 264 1223.66 264 1224 C176.88 1224 89.76 1224 0 1224 C0 820.08 0 416.16 0 0 Z " fill="#FEFEFE" transform="translate(0,0)"/>
<path d="M0 0 C0 403.92 0 807.84 0 1224 C-87.78 1224 -175.56 1224 -266 1224 C-266 1223.67 -266 1223.34 -266 1223 C-265.43829102 1222.91024902 -264.87658203 1222.82049805 -264.29785156 1222.72802734 C-247.75550723 1220.03360493 -231.01309004 1216.85559805 -215.86328125 1209.38671875 C-213.6045124 1208.29277204 -211.35749513 1207.29555679 -209.04296875 1206.33203125 C-191.96913679 1199.16462831 -176.25125935 1189.83671477 -162 1178 C-161.17024658 1177.3203418 -161.17024658 1177.3203418 -160.32373047 1176.62695312 C-117.06954293 1141.10760341 -87.38491763 1089.0848113 -81.75 1032.9375 C-81.54773351 1030.81358163 -81.36227046 1028.69036103 -81.2002465 1026.56299166 C-81.06032373 1024.77209446 -80.90962639 1022.98202099 -80.75077529 1021.19270339 C-80.06358702 1013.12611891 -79.85698275 1005.13305614 -79.86857224 997.03992653 C-79.86691811 995.67492968 -79.86482981 994.30993331 -79.86235213 992.94493771 C-79.85683337 989.21536287 -79.85744901 985.4858112 -79.85912972 981.7562336 C-79.85986523 977.69025793 -79.85482758 973.62428856 -79.8505547 969.55831563 C-79.84299883 961.50327324 -79.84078287 953.44823747 -79.84022565 945.3931919 C-79.83930959 935.74030522 -79.83263482 926.08742462 -79.82587883 916.43454057 C-79.80983979 893.10479423 -79.80391754 869.77504856 -79.79913008 846.4452977 C-79.79679162 835.39977494 -79.79318866 824.3542527 -79.7894347 813.30873035 C-79.77659989 775.46941452 -79.76588156 737.63009898 -79.7624321 699.79078102 C-79.76221047 697.41660812 -79.76198868 695.04243522 -79.76176675 692.66826233 C-79.76154611 690.28847545 -79.76132563 687.90868857 -79.7611053 685.5289017 C-79.76066276 680.75494488 -79.76021564 675.98098807 -79.75976562 671.20703125 C-79.75965623 670.02337268 -79.75954684 668.8397141 -79.75943414 667.62018709 C-79.75580611 629.26779905 -79.73989529 590.91542995 -79.71657526 552.56304917 C-79.69194285 511.97779649 -79.67825764 471.39255462 -79.67706418 430.80729425 C-79.67689274 426.34621389 -79.67667731 421.88513354 -79.67642975 417.42405319 C-79.67637398 416.32567688 -79.67631821 415.22730056 -79.67626075 414.09564012 C-79.67511316 396.46818286 -79.66411587 378.84074513 -79.64954269 361.21329446 C-79.63512933 343.47137195 -79.63196788 325.72947429 -79.63998267 307.98754753 C-79.64441649 297.46715172 -79.64066914 286.94683651 -79.62474416 276.4264514 C-79.61491256 269.37474568 -79.6162494 262.32309572 -79.62618039 255.27139038 C-79.63151428 251.26938796 -79.63247518 247.26753897 -79.61967167 243.26554997 C-79.54117611 217.0465439 -80.07016753 190.45280574 -87 165 C-87.17176758 164.35272949 -87.34353516 163.70545898 -87.52050781 163.03857422 C-97.18376377 126.72402192 -116.27987476 95.15977873 -142 68 C-142.49097168 67.4750293 -142.98194336 66.95005859 -143.48779297 66.40917969 C-164.19860821 44.37753874 -191.46665577 26.98855511 -220 17 C-221.26893668 16.52009579 -222.53711226 16.03817624 -223.8046875 15.5546875 C-245.84877156 7.28197552 -268.65333005 4.11483542 -292 2 C-204.94037803 -41.52981099 -97.33561641 0 0 0 Z " fill="#FEFEFE" transform="translate(1382,0)"/>
<path d="M0 0 C0.81908757 -0.00235223 1.63817515 -0.00470446 2.48208356 -0.00712797 C5.21439022 -0.01376107 7.94664871 -0.01336148 10.67896271 -0.01294994 C12.66276893 -0.0162521 14.64657449 -0.01997841 16.6303792 -0.02409142 C22.07278421 -0.03407919 27.51517819 -0.037823 32.95759106 -0.04048073 C38.83102827 -0.04439327 44.70445682 -0.0539708 50.57788849 -0.0626936 C64.08613774 -0.08149671 77.59438764 -0.09170906 91.10264673 -0.10015428 C97.78353124 -0.10436664 104.46441487 -0.1095878 111.14529864 -0.11483881 C134.03214608 -0.13272452 156.91899379 -0.14771915 179.80584717 -0.155159 C181.24149967 -0.15563375 182.67715218 -0.15610964 184.11280468 -0.15658666 C185.18068934 -0.15694122 185.18068934 -0.15694122 186.27014742 -0.15730295 C189.87683748 -0.15850409 193.48352754 -0.15971956 197.09021759 -0.16094494 C198.16383554 -0.16130516 198.16383554 -0.16130516 199.25914273 -0.16167267 C222.45806568 -0.16956316 245.65693747 -0.19299213 268.85583808 -0.22550088 C293.40560304 -0.25983956 317.95533807 -0.2795138 342.50512743 -0.28280324 C345.20284813 -0.28322075 347.90056881 -0.28370031 350.59828949 -0.28422642 C351.26250333 -0.28434961 351.92671716 -0.2844728 352.61105869 -0.28459973 C362.61597204 -0.28678271 372.62083018 -0.30013032 382.62572479 -0.31926441 C394.01464756 -0.34099562 405.40347679 -0.34900979 416.79241794 -0.33929763 C422.59907374 -0.33476028 428.40553663 -0.33660661 434.21216583 -0.35605907 C439.53708955 -0.37374318 444.86168038 -0.37265044 450.1866079 -0.35716178 C452.10386019 -0.35479371 454.02113585 -0.35906726 455.93835253 -0.37099043 C482.31483607 -0.52474868 503.85935115 7.43241802 524.41248322 24.13422108 C525.23748322 24.7658617 526.06248322 25.39750233 526.91248322 26.04828358 C544.93623472 41.08685124 554.25263677 64.58337448 557.41248322 87.13422108 C557.58634048 88.21264774 557.76019775 89.29107441 557.93932343 90.40218067 C558.42354546 94.22147435 558.5325878 97.87303945 558.52600861 101.72186756 C558.52618941 102.82338579 558.52618941 102.82338579 558.52637386 103.94715691 C558.52563363 106.29990815 558.51804637 108.65257795 558.51013947 111.00531483 C558.50866729 112.46759471 558.50764828 113.92987513 558.50708771 115.39215565 C558.5018668 120.78535221 558.48790554 126.17853746 558.47498322 131.57172108 C558.45435822 143.63734608 558.43373322 155.70297108 558.41248322 168.13422108 C533.00248322 168.13422108 507.59248322 168.13422108 481.41248322 168.13422108 C481.22498322 131.75922108 481.22498322 131.75922108 481.20471954 120.32806873 C481.17479428 116.90864766 481.17479428 116.90864766 481.13835907 113.4892931 C481.12539029 111.98144982 481.12199084 110.47350371 481.12651825 108.96561146 C481.14602508 99.92814999 481.09172463 91.69093981 475.41248322 84.13422108 C469.50898823 78.63070291 463.57189375 76.83151984 455.55471992 76.87974548 C454.76595412 76.87653901 453.97718831 76.87333253 453.1645205 76.87002888 C450.51131232 76.86170215 447.85832831 76.86766251 445.20511627 76.87352467 C443.28775616 76.8705052 441.37039725 76.86661675 439.45304048 76.8619321 C434.17609905 76.85161691 428.89922529 76.85384287 423.62227821 76.85811269 C417.93437332 76.86057354 412.246485 76.85157374 406.55858612 76.8440752 C395.41218866 76.83130825 384.26581526 76.829537 373.11941172 76.83187547 C364.06161624 76.83365658 355.00382808 76.83191344 345.94603348 76.82765102 C344.65818901 76.82705583 343.37034454 76.82646065 342.04347449 76.82584742 C339.42743727 76.8246357 336.81140006 76.82342157 334.19536285 76.82220504 C316.6232735 76.81441463 299.05118806 76.81050094 281.47909737 76.81452179 C280.79177395 76.81467817 280.10445054 76.81483454 279.39629915 76.81499566 C275.9125936 76.81580145 272.42888806 76.81664722 268.94518252 76.81750896 C267.90735222 76.81776559 267.90735222 76.81776559 266.84855566 76.81802741 C265.44939191 76.81837406 264.05022817 76.81872259 262.65106442 76.81907299 C240.87913852 76.82443043 219.10725312 76.81649976 197.33533478 76.79803944 C172.8795751 76.77732783 148.42384472 76.76662622 123.96807516 76.77061492 C111.01732608 76.77252966 98.06661389 76.7700129 85.11587143 76.75590038 C74.09071933 76.74400805 63.06562684 76.74255752 52.04047395 76.75469055 C46.41334282 76.76059437 40.78632083 76.76163722 35.15919685 76.74968815 C30.00984975 76.73888053 24.8607036 76.74187146 19.7113661 76.75594983 C17.84666591 76.75861093 15.98195023 76.7561862 14.11726518 76.74821397 C11.58524272 76.73813843 9.05392287 76.74650361 6.52192879 76.75949097 C5.79572649 76.75218162 5.06952419 76.74487227 4.32131577 76.73734143 C-2.10499054 76.80579856 -7.39971205 78.69884373 -12.33751678 82.88422108 C-12.88923553 83.33281483 -13.44095428 83.78140858 -14.00939178 84.24359608 C-18.32404112 89.41263142 -19.02691747 94.89316061 -18.96783352 101.42269516 C-18.97249344 102.23372955 -18.97715336 103.04476393 -18.98195449 103.88037512 C-18.99390306 106.59739353 -18.98450961 109.31391176 -18.97519684 112.03093433 C-18.97936981 113.99880705 -18.98484712 115.96667736 -18.99151665 117.93454319 C-19.0059947 123.34188141 -19.00171913 128.74906752 -18.99434984 134.15641415 C-18.98962634 139.98814243 -19.00212074 145.8198374 -19.01236725 151.65155506 C-19.02957643 163.07608981 -19.03039089 174.50056962 -19.02515434 185.92511397 C-19.02111549 195.20930528 -19.02255282 204.49348033 -19.0279026 213.77767086 C-19.02865947 215.11159924 -19.02941545 216.44552763 -19.03017055 217.77945601 C-19.03131574 219.78956069 -19.03246562 221.79966537 -19.03362979 223.80977005 C-19.0443348 242.49780631 -19.04906001 261.18583656 -19.04115963 279.87387466 C-19.04086246 280.57833515 -19.04056528 281.28279563 -19.0402591 282.00860341 C-19.03781016 287.72933148 -19.03519858 293.45005948 -19.03257497 299.17078747 C-19.02247192 321.48683363 -19.03082903 343.80280455 -19.05406952 366.11884022 C-19.08013883 391.19173251 -19.09299099 416.2645795 -19.08588177 441.33748585 C-19.08516571 444.0106424 -19.08449132 446.68379896 -19.08384132 449.35695553 C-19.08351921 450.67224551 -19.0831971 451.9875355 -19.08286522 453.34268276 C-19.08156326 462.61643138 -19.08991909 471.89014252 -19.1021328 481.16388226 C-19.11683121 492.46455493 -19.11752106 503.7651223 -19.10006189 515.06579285 C-19.09153026 520.8328324 -19.08945519 526.59968364 -19.10471344 532.36671352 C-19.11850587 537.64499949 -19.11386753 542.92293485 -19.0944742 548.20120025 C-19.09069715 550.11161765 -19.09368498 552.02206277 -19.10408586 553.93245559 C-19.11721667 556.52869555 -19.10570776 559.12371843 -19.08808804 561.71990585 C-19.09773855 562.46216159 -19.10738906 563.20441732 -19.11733201 563.96916565 C-19.02727331 570.42902393 -16.86263151 575.58836333 -12.55236053 580.41156483 C-11.8833371 580.95941639 -11.21431366 581.50726795 -10.52501678 582.07172108 C-9.85341522 582.63761951 -9.18181366 583.20351795 -8.48986053 583.78656483 C-4.73678384 586.44531526 -1.28463276 586.28344942 3.17884064 586.33954334 C3.87305524 586.34957606 4.56726984 586.35960878 5.28252125 586.36994553 C7.52763098 586.40130465 9.77275838 586.42609094 12.01795197 586.45062733 C13.40487999 586.46903316 14.79180236 586.48786998 16.17871857 586.50714588 C21.31907322 586.57556307 26.45953621 586.63563538 31.59998322 586.69672108 C48.83217072 586.91328358 48.83217072 586.91328358 66.41248322 587.13422108 C66.41248322 612.54422108 66.41248322 637.95422108 66.41248322 664.13422108 C49.11842072 664.31984608 49.11842072 664.31984608 31.47498322 664.50922108 C27.89147003 664.5638451 24.30795685 664.61846912 20.61585236 664.67474842 C-3.7800234 664.89091031 -26.12649708 662.76570703 -47.58751678 650.13422108 C-48.52853241 649.63793201 -49.46954803 649.14164295 -50.43907928 648.63031483 C-73.99939473 635.32116908 -87.52048961 610.316906 -94.58751678 585.13422108 C-94.76929395 584.49589787 -94.95107112 583.85757465 -95.13835669 583.19990832 C-97.31182808 574.15514185 -96.87798833 564.88875157 -96.86840057 555.64946461 C-96.87357306 553.65399607 -96.87960083 551.6585296 -96.88640738 549.66306597 C-96.90249387 544.19274942 -96.90612353 538.72248543 -96.90760231 533.25214803 C-96.91131292 527.34652743 -96.92641268 521.4409338 -96.93987274 515.53532887 C-96.96841967 501.95262963 -96.98008917 488.3699345 -96.98925663 474.78721149 C-96.99393663 468.06557838 -97.00114295 461.34394865 -97.00864739 454.62231818 C-97.03431657 431.58442197 -97.05575187 408.5465276 -97.06265259 385.5086174 C-97.06309584 384.0635479 -97.06353941 382.6184784 -97.06398329 381.1734089 C-97.06442456 379.72496724 -97.06486553 378.27652559 -97.06530619 376.82808393 C-97.06619126 373.92256129 -97.0670855 371.01703864 -97.06798553 368.111516 C-97.06820432 367.39112029 -97.0684231 366.67072458 -97.06864851 365.9284987 C-97.075901 342.59813686 -97.10770924 319.26789966 -97.15436626 295.93758551 C-97.20367672 271.2349656 -97.23100366 246.53241682 -97.23338842 221.82974631 C-97.23373129 219.11223827 -97.23416213 216.39473026 -97.23465729 213.67722225 C-97.23482459 212.67363142 -97.23482459 212.67363142 -97.23499528 211.64976603 C-97.23714527 201.59213684 -97.25578883 191.53462874 -97.28302765 181.47703838 C-97.31395524 170.01733404 -97.32399726 158.5578432 -97.30755144 147.09810501 C-97.29978167 141.25998423 -97.30138287 135.42229256 -97.32966614 129.58422565 C-97.58939693 72.65746141 -97.58939693 72.65746141 -82.58751678 48.13422108 C-81.92107147 47.0230492 -81.25462616 45.91187733 -80.56798553 44.76703358 C-67.40327535 24.39714805 -48.35312979 10.80166266 -25.46251678 3.38422108 C-24.81742157 3.17305653 -24.17232635 2.96189198 -23.5076828 2.7443285 C-15.80754561 0.37003015 -8.01355596 -0.01596298 0 0 Z " fill="#0091DA" transform="translate(354.58751678466797,171.86577892303467)"/>
</svg>
